<svg width="28" height="18" viewBox="0 0 28 18" fill="none" xmlns="http://www.w3.org/2000/svg">
<rect width="28" height="18" rx="2" fill="white"/>
<path fill-rule="evenodd" clip-rule="evenodd" d="M17.0347 10.0966C17.0347 9.97181 17.0347 9.85971 17.0347 9.73491C17.0347 9.63192 17.0869 9.56096 17.1979 9.56731C17.4051 9.59575 17.6983 9.62419 17.9063 9.58277C18.178 9.5281 18.373 9.34173 18.4883 9.08633C18.6507 8.72684 18.7583 8.43693 18.8262 8.24669L16.7629 3.30216C16.7281 3.21822 16.7178 3.0625 16.8911 3.0625H17.6123C17.7499 3.0625 17.8059 3.14699 17.8367 3.22982L19.3326 7.24608L20.7605 3.22982C20.7896 3.14754 20.8481 3.0625 20.9846 3.0625H21.6647C21.8368 3.0625 21.8271 3.21795 21.7929 3.30216L19.7461 8.40103C19.4813 9.07971 19.1285 10.1607 18.3339 10.3484C17.9354 10.4492 17.4328 10.4128 17.1377 10.2932C17.0632 10.257 17.0347 10.1604 17.0347 10.0966Z" fill="#333E47"/>
<path fill-rule="evenodd" clip-rule="evenodd" d="M16.0723 8.02804C16.0723 8.11998 15.9944 8.19536 15.8988 8.19536H15.3902C15.2803 8.19536 15.2052 8.1186 15.1912 8.02804L15.1402 7.69312C14.9064 7.88446 14.6195 8.05261 14.3084 8.16968C13.7102 8.39443 13.0206 8.43171 12.4361 8.08437C12.0134 7.83338 11.7891 7.34274 11.7891 6.83664C11.7891 6.44512 11.9138 6.05691 12.1904 5.775C12.5594 5.38984 13.0943 5.2007 13.7402 5.2007C14.1303 5.2007 14.6886 5.24515 15.0948 5.37354V4.69957C15.0948 4.01427 14.7965 3.71773 14.0102 3.71773C13.4091 3.71773 12.9493 3.80553 12.3094 3.99798C12.2069 4.00129 12.147 3.92591 12.147 3.83397V3.44963C12.147 3.35741 12.2283 3.26823 12.3165 3.24117C12.7735 3.04845 13.4208 2.92834 14.1089 2.90625C15.006 2.90625 16.0723 3.10201 16.0723 4.43671V8.02804ZM15.0948 7.04399V6.02709C14.7534 5.9368 14.1886 5.89925 13.9699 5.89925C13.6246 5.89925 13.2464 5.97822 13.0489 6.18392C12.9013 6.33467 12.8345 6.55114 12.8345 6.76043C12.8345 7.03102 12.9313 7.30243 13.1574 7.43662C13.4199 7.60919 13.8272 7.5882 14.21 7.483C14.5779 7.38195 14.9232 7.20331 15.0948 7.04399Z" fill="#333E47"/>
<path fill-rule="evenodd" clip-rule="evenodd" d="M8.57216 3.72988C9.70071 3.72988 10.0081 4.5883 10.0081 5.57124C10.0144 6.23389 9.88851 6.82476 9.53374 7.163C9.2683 7.41619 8.97175 7.48521 8.52536 7.48521C8.12805 7.48521 7.60545 7.28476 7.215 7.00561V4.19512C7.62144 3.89306 8.14004 3.72988 8.57216 3.72988ZM7.04204 10.2692H6.36075C6.26542 10.2692 6.1875 10.1938 6.1875 10.1019C6.1875 7.81295 6.1875 5.52375 6.1875 3.23482C6.1875 3.14287 6.26542 3.0675 6.36075 3.0675H6.88221C6.99181 3.0675 7.06687 3.14425 7.08086 3.23482L7.13566 3.59459C7.62401 3.17518 8.25278 2.90625 8.85187 2.90625C10.5298 2.90625 11.0816 4.24371 11.0816 5.63447C11.0816 7.12241 10.2376 8.31795 8.8102 8.31795C8.20911 8.31795 7.64713 8.10342 7.215 7.73067V10.1019C7.215 10.1938 7.13708 10.2692 7.04204 10.2692Z" fill="#333E47"/>
<path fill-rule="evenodd" clip-rule="evenodd" d="M22.0772 12.5144C19.8877 14.1962 16.7134 15.0905 13.9799 15.0905C10.149 15.0905 6.69916 13.6166 4.08843 11.1632C3.88368 10.9703 4.06628 10.7073 4.31265 10.8564C7.12913 12.5623 10.6126 13.5897 14.2098 13.5897C16.6366 13.5897 19.3044 13.0653 21.759 11.9817C22.1292 11.8185 22.4397 12.2356 22.0772 12.5144Z" fill="#F79C34"/>
<path fill-rule="evenodd" clip-rule="evenodd" d="M22.9884 11.4351C22.7081 11.062 21.1373 11.2584 20.4314 11.3464C20.2176 11.3733 20.1843 11.1787 20.377 11.0379C21.6303 10.1216 23.6842 10.3861 23.9229 10.6931C24.1632 11.0023 23.8594 13.1455 22.6853 14.1681C22.5044 14.3253 22.3325 14.2414 22.4128 14.0339C22.6773 13.3468 23.2687 11.8089 22.9884 11.4351Z" fill="#F79C34"/>
</svg>
