<svg width="28" height="18" viewBox="0 0 28 18" fill="none" xmlns="http://www.w3.org/2000/svg">
<rect width="28" height="18" rx="2" fill="white"/>
<g clip-path="url(#clip0_37029_142346)">
<path d="M6.8607 5.66032C6.59703 5.96432 6.17516 6.20409 5.75328 6.16984C5.70055 5.7588 5.90709 5.32207 6.14879 5.05233C6.41246 4.73977 6.87389 4.51713 7.24742 4.5C7.29137 4.92816 7.11998 5.34776 6.8607 5.66032ZM7.24303 6.25119C6.63219 6.21694 6.10924 6.58944 5.8192 6.58944C5.52477 6.58944 5.08092 6.26832 4.59752 6.27688C3.9691 6.28544 3.38463 6.63226 3.06383 7.18459C2.40465 8.28925 2.89244 9.92483 3.52965 10.824C3.84166 11.2693 4.2152 11.7574 4.70738 11.7402C5.1732 11.7231 5.35777 11.4448 5.92027 11.4448C6.48717 11.4448 6.64977 11.7402 7.14195 11.7317C7.65172 11.7231 7.97252 11.2864 8.28453 10.8411C8.64049 10.3359 8.78551 9.84348 8.7943 9.81779C8.78551 9.80923 7.80992 9.44529 7.80113 8.34919C7.79234 7.43292 8.57018 6.99619 8.60533 6.9705C8.16588 6.33682 7.48033 6.26832 7.24303 6.25119ZM10.7718 5.00951V11.6846H11.8353V9.40247H13.3075C14.6522 9.40247 15.597 8.50333 15.597 7.20171C15.597 5.9001 14.6698 5.00951 13.3426 5.00951H10.7718ZM11.8353 5.88297H13.0614C13.9842 5.88297 14.5116 6.36251 14.5116 7.20599C14.5116 8.04948 13.9842 8.5333 13.057 8.5333H11.8353V5.88297ZM17.5394 11.736C18.2074 11.736 18.827 11.4063 19.1083 10.8839H19.1302V11.6846H20.1146V8.36204C20.1146 7.39867 19.3236 6.77783 18.1063 6.77783C16.9769 6.77783 16.142 7.40723 16.1112 8.27212H17.0692C17.1483 7.86108 17.5394 7.59134 18.0755 7.59134C18.7259 7.59134 19.0907 7.88677 19.0907 8.43054V8.79876L17.7635 8.87583C16.5287 8.94862 15.8607 9.44101 15.8607 10.2973C15.8607 11.1622 16.5506 11.736 17.5394 11.736ZM17.8251 10.9439C17.2582 10.9439 16.8978 10.6784 16.8978 10.2716C16.8978 9.85205 17.245 9.60799 17.9086 9.56946L19.0907 9.49667V9.87345C19.0907 10.4986 18.5458 10.9439 17.8251 10.9439ZM21.4286 13.5C22.4657 13.5 22.9535 13.1147 23.3797 11.9458L25.2474 6.84206H24.1664L22.9139 10.7854H22.892L21.6395 6.84206H20.5277L22.3295 11.7017L22.2328 11.9971C22.0702 12.4981 21.8065 12.6908 21.3363 12.6908C21.2528 12.6908 21.0902 12.6822 21.0243 12.6736V13.4743C21.0858 13.4914 21.3495 13.5 21.4286 13.5Z" fill="black"/>
</g>
<defs>
<clipPath id="clip0_37029_142346">
<rect width="22.5" height="9" fill="white" transform="translate(2.75 4.5)"/>
</clipPath>
</defs>
</svg>
