<svg width="28" height="18" viewBox="0 0 28 18" fill="none" xmlns="http://www.w3.org/2000/svg">
<rect width="28" height="18" rx="2" fill="white"/>
<path d="M16.669 4.28125H11.3203V13.7143H16.669V4.28125Z" fill="#FF5A00"/>
<path d="M11.6733 9C11.6733 7.0835 12.5912 5.38252 13.9995 4.2835C12.963 3.4835 11.6555 3 10.2294 3C6.85086 3 4.11719 5.6835 4.11719 9C4.11719 12.3165 6.85086 15 10.2294 15C11.6555 15 12.963 14.5165 13.9995 13.7165C12.5892 12.633 11.6733 10.9165 11.6733 9Z" fill="#EB001B"/>
<path d="M23.8823 9C23.8823 12.3165 21.1487 15 17.7702 15C16.344 15 15.0365 14.5165 14 13.7165C15.4262 12.6155 16.3262 10.9165 16.3262 9C16.3262 7.0835 15.4084 5.38252 14 4.2835C15.0345 3.4835 16.342 3 17.7682 3C21.1487 3 23.8823 5.70097 23.8823 9Z" fill="#F79E1B"/>
</svg>
