<svg width="28" height="18" viewBox="0 0 28 18" fill="none" xmlns="http://www.w3.org/2000/svg">
<rect width="28" height="18" rx="2" fill="white"/>
<path d="M18.6219 6.15937C18.7671 5.24063 18.6219 4.62812 18.0396 4.05937C17.408 3.44687 16.2917 3.14062 14.8844 3.14062H10.758C10.5154 3.14062 10.2245 3.35938 10.1752 3.57812L8.47656 13.2906C8.47656 13.4656 8.62227 13.6844 8.86493 13.6844H11.3891L11.2434 14.6469C11.1946 14.8219 11.3403 14.9531 11.5343 14.9531H13.6706C13.9137 14.9531 14.1559 14.8219 14.2046 14.6031V14.4719L14.6412 12.1969V12.1094C14.69 11.8906 14.9326 11.7156 15.1753 11.7156H15.4672C17.5537 11.7156 19.156 10.9719 19.6413 8.78437C19.884 7.86562 19.7875 7.12188 19.2047 6.59687C19.059 6.42188 18.8158 6.29063 18.6219 6.15937Z" fill="#009CDE"/>
<path d="M18.6219 6.15937C18.7671 5.24063 18.6219 4.62812 18.0396 4.05937C17.408 3.44687 16.2917 3.14062 14.8844 3.14062H10.758C10.5154 3.14062 10.2245 3.35938 10.1752 3.57812L8.47656 13.2906C8.47656 13.4656 8.62227 13.6844 8.86493 13.6844H11.3891L12.0689 10.0531L12.0201 10.1844C12.0689 9.92188 12.3115 9.74688 12.6024 9.74688H13.8157C16.1947 9.74688 18.0396 8.87188 18.6219 6.42188C18.5737 6.29063 18.6219 6.24688 18.6219 6.15937Z" fill="#012169"/>
<path d="M12.7004 6.15937C12.7481 6.02813 12.8456 5.89687 12.9913 5.80938C13.0877 5.80938 13.1365 5.76563 13.2335 5.76563H16.4374C16.8263 5.76563 17.2136 5.80938 17.506 5.85313C17.6025 5.85313 17.7 5.85312 17.7969 5.89687C17.8939 5.94062 17.9909 5.94063 18.0396 5.98438C18.0878 5.98438 18.136 5.98438 18.1853 5.98438C18.3305 6.02813 18.4762 6.11563 18.6219 6.15937C18.7671 5.24063 18.6219 4.62812 18.0396 4.01562C17.4568 3.40313 16.3409 3.14062 14.9326 3.14062H10.758C10.5154 3.14062 10.2245 3.31562 10.1752 3.57812L8.47656 13.2906C8.47656 13.4656 8.62227 13.6844 8.86493 13.6844H11.3891L12.0689 10.0531L12.7004 6.15937Z" fill="#003087"/>
</svg>
