<svg width="28" height="18" viewBox="0 0 28 18" fill="none" xmlns="http://www.w3.org/2000/svg">
<rect width="28" height="18" rx="2" fill="white"/>
<path fill-rule="evenodd" clip-rule="evenodd" d="M10.2676 3.0006H14.1849L19.5097 7.8747C19.8187 8.15742 20 8.55486 20 8.96811C20.0007 9.1716 19.9595 9.37317 19.8788 9.56095C19.7981 9.74874 19.6796 9.91893 19.5302 10.0615L14.1975 14.9918H10.255C10.2221 14.992 10.19 14.9825 10.1628 14.9646C10.1356 14.9467 10.1147 14.9212 10.1027 14.8915C10.0907 14.8618 10.0882 14.8292 10.0956 14.7981C10.103 14.767 10.1199 14.7389 10.1441 14.7173L16.3658 9.11971C16.3843 9.10197 16.3989 9.08082 16.4088 9.05749C16.4188 9.03417 16.4238 9.00915 16.4236 8.98391C16.4223 8.9329 16.4002 8.88448 16.3622 8.84928L10.1562 3.27454C10.0454 3.17913 10.1195 3.0006 10.2676 3.0006ZM8.47761 10.0574C8.32665 9.91399 8.20666 9.74274 8.12464 9.55368C8.04263 9.36463 8.00026 9.16157 8 8.9564C8 8.54257 8.18069 8.14512 8.48966 7.86299L11.3499 5.23073L13.4977 7.17112L11.6336 8.83348C11.6152 8.85106 11.6007 8.87202 11.5907 8.89514C11.5808 8.91825 11.5757 8.94306 11.5758 8.96811C11.5758 9.0202 11.6005 9.06761 11.6378 9.10332L13.523 10.7973L11.3746 12.7377L8.47761 10.0574ZM15.1522 15H17.7733C17.9215 15 17.9962 14.8209 17.8848 14.7255L16.6543 13.6163L15.1522 15ZM17.8643 3.27454L16.6458 4.36385L15.148 3.00001H17.7529C17.7859 2.99958 17.8183 3.00893 17.8457 3.02682C17.8731 3.04471 17.8943 3.07029 17.9064 3.10016C17.9185 3.13002 17.9209 3.16276 17.9134 3.19402C17.9059 3.22527 17.8887 3.25298 17.8643 3.27454Z" fill="#FF3D00"/>
</svg>
