<svg width="28" height="18" viewBox="0 0 28 18" fill="none" xmlns="http://www.w3.org/2000/svg">
<rect width="28" height="18" rx="2" fill="white"/>
<g clip-path="url(#clip0_37029_142333)">
<path d="M12.5021 12.4012H10.6875L11.8225 5.625H13.6369L12.5021 12.4012Z" fill="#00579F"/>
<path d="M19.0838 5.78849C18.7259 5.65138 18.1582 5.5 17.4563 5.5C15.6644 5.5 14.4025 6.42267 14.3947 7.7418C14.3799 8.71506 15.2982 9.25563 15.9851 9.58014C16.6871 9.91175 16.9257 10.1282 16.9257 10.4238C16.9186 10.8777 16.3584 11.087 15.836 11.087C15.1116 11.087 14.7234 10.9791 14.1335 10.7265L13.8945 10.6183L13.6406 12.1394C14.0662 12.3266 14.8503 12.4927 15.6644 12.5C17.5683 12.5 18.8078 11.5916 18.8225 10.1859C18.8298 9.41448 18.3449 8.82342 17.2994 8.34043C16.6648 8.03039 16.2761 7.82133 16.2761 7.50409C16.2835 7.2157 16.6048 6.92031 17.3212 6.92031C17.9111 6.90585 18.3446 7.04276 18.6729 7.17977L18.837 7.25173L19.0838 5.78849Z" fill="#00579F"/>
<path d="M21.4949 10.0006C21.6444 9.61134 22.2194 8.1047 22.2194 8.1047C22.2118 8.11917 22.3685 7.70823 22.4581 7.45596L22.5849 8.03984C22.5849 8.03984 22.9285 9.66183 23.0032 10.0006C22.7196 10.0006 21.8533 10.0006 21.4949 10.0006ZM23.7348 5.625H22.3312C21.8984 5.625 21.5695 5.74745 21.3828 6.18722L18.6875 12.4011H20.5915C20.5915 12.4011 20.9049 11.5648 20.9723 11.3846C21.1812 11.3846 23.0333 11.3846 23.302 11.3846C23.3541 11.6225 23.5185 12.4011 23.5185 12.4011H25.1986L23.7348 5.625Z" fill="#00579F"/>
<path d="M9.17529 5.625L7.39825 10.2457L7.20406 9.30858C6.87552 8.22725 5.84515 7.0524 4.69531 6.46824L6.32303 12.394H8.24187L11.094 5.625H9.17529Z" fill="#00579F"/>
<path d="M5.74619 5.625H2.82674L2.79688 5.76191C5.07423 6.32423 6.58247 7.67968 7.20214 9.30886L6.56749 6.1946C6.463 5.76182 6.1419 5.63928 5.74619 5.625Z" fill="#FAA61A"/>
</g>
<defs>
<clipPath id="clip0_37029_142333">
<rect width="22.4" height="7" fill="white" transform="translate(2.79688 5.5)"/>
</clipPath>
</defs>
</svg>
