<svg width="20" height="20" xmlns="http://www.w3.org/2000/svg">
    <path d="M10.95 7.87c.032.088.051.185.051.287v6.528c0 .436-.322.789-.72.789-.398 0-.72-.353-.72-.79v-4.62l-.645.705a.69.69 0 0 1-.509.232.69.69 0 0 1-.51-.232.843.843 0 0 1 0-1.116L9.771 7.6a.716.716 0 0 1 .236-.172.652.652 0 0 1 .537-.003c.003.002.006.002.01.003a.76.76 0 0 1 .393.43l.003.012zm6.256 10.551H2.441V3.87h1.834v1.489c0 .436.323.789.721.789.399 0 .72-.353.72-.79V3.87h8.215v1.489c0 .436.323.789.72.789.398 0 .72-.353.72-.79V3.87h1.835v14.552zM15.371 2.29V.79c0-.437-.322-.79-.72-.79-.397 0-.72.353-.72.79v1.5H5.717V.79c0-.437-.322-.79-.72-.79-.4 0-.722.353-.722.79v1.5H1.721c-.398 0-.721.353-.721.79v16.13c0 .436.323.79.721.79h16.205c.398 0 .721-.354.721-.79V3.08c0-.437-.323-.79-.721-.79H15.37z" fill="#193A56" fill-rule="evenodd"/>
</svg>
