<svg width="40" height="40" viewBox="0 0 40 40" fill="none" xmlns="http://www.w3.org/2000/svg">
<g clip-path="url(#clip0_4210_7347)">
<path d="M17.8657 24.856H15.2734L16.8948 15.1758H19.4869L17.8657 24.856Z" fill="white"/>
<path d="M27.2642 15.4121C26.7529 15.2163 25.942 15 24.9392 15C22.3793 15 20.5767 16.3181 20.5656 18.2026C20.5443 19.5929 21.8563 20.3652 22.8375 20.8288C23.8404 21.3025 24.1813 21.6117 24.1813 22.0339C24.1711 22.6825 23.3709 22.9814 22.6245 22.9814C21.5896 22.9814 21.0351 22.8273 20.1924 22.4665L19.851 22.3118L19.4883 24.4848C20.0963 24.7523 21.2164 24.9896 22.3793 25C25.0993 25 26.87 23.7023 26.891 21.6941C26.9014 20.5921 26.2086 19.7477 24.7151 19.0578C23.8085 18.6148 23.2532 18.3162 23.2532 17.863C23.2639 17.451 23.7228 17.029 24.7463 17.029C25.589 17.0083 26.2082 17.2039 26.6772 17.3997L26.9117 17.5025L27.2642 15.4121Z" fill="white"/>
<path d="M30.7098 21.4267C30.9233 20.8706 31.7447 18.7182 31.7447 18.7182C31.734 18.7389 31.9578 18.1518 32.0858 17.7914L32.267 18.6255C32.267 18.6255 32.7579 20.9427 32.8645 21.4267C32.4593 21.4267 31.2218 21.4267 30.7098 21.4267ZM33.9096 15.1758H31.9045C31.2862 15.1758 30.8164 15.3507 30.5496 15.979L26.6992 24.8559H29.4192C29.4192 24.8559 29.867 23.6611 29.9632 23.4038C30.2616 23.4038 32.9075 23.4038 33.2914 23.4038C33.3658 23.7437 33.6007 24.8559 33.6007 24.8559H36.0009L33.9096 15.1758Z" fill="white"/>
<path d="M13.1109 15.1758L10.5723 21.7768L10.2949 20.438C9.82552 18.8933 8.35356 17.2149 6.71094 16.3804L9.03624 24.8458H11.7774L15.852 15.1758H13.1109Z" fill="white"/>
<path d="M8.2133 15.1758H4.04267L4 15.3714C7.25336 16.1747 9.40799 18.111 10.2932 20.4384L9.38659 15.9895C9.23732 15.3712 8.77861 15.1962 8.2133 15.1758Z" fill="#FAA61A"/>
</g>
<defs>
<clipPath id="clip0_4210_7347">
<rect width="32" height="10" fill="white" transform="translate(4 15)"/>
</clipPath>
</defs>
</svg>
