<svg width="40" height="40" viewBox="0 0 40 40" fill="none" xmlns="http://www.w3.org/2000/svg">
<path d="M30.3895 13.5001C30.7162 11.4001 30.3895 10.0001 29.0793 8.7001C27.6583 7.3001 25.1465 6.6001 21.9802 6.6001H12.6958C12.1498 6.6001 11.4953 7.1001 11.3845 7.6001L7.5625 29.8001C7.5625 30.2001 7.89033 30.7001 8.43633 30.7001H14.1157L13.7878 32.9001C13.6782 33.3001 14.006 33.6001 14.4423 33.6001H19.249C19.7962 33.6001 20.341 33.3001 20.4507 32.8001V32.5001L21.433 27.3001V27.1001C21.5427 26.6001 22.0887 26.2001 22.6347 26.2001H23.2915C27.9862 26.2001 31.5912 24.5001 32.6832 19.5001C33.2292 17.4001 33.0122 15.7001 31.7008 14.5001C31.373 14.1001 30.8258 13.8001 30.3895 13.5001Z" fill="#009CDE"/>
<path d="M30.3895 13.5001C30.7162 11.4001 30.3895 10.0001 29.0793 8.7001C27.6583 7.3001 25.1465 6.6001 21.9802 6.6001H12.6958C12.1498 6.6001 11.4953 7.1001 11.3845 7.6001L7.5625 29.8001C7.5625 30.2001 7.89033 30.7001 8.43633 30.7001H14.1157L15.6452 22.4001L15.5355 22.7001C15.6452 22.1001 16.1912 21.7001 16.8457 21.7001H19.5757C24.9283 21.7001 29.0793 19.7001 30.3895 14.1001C30.281 13.8001 30.3895 13.7001 30.3895 13.5001Z" fill="#012169"/>
<path d="M17.0662 13.5001C17.1735 13.2001 17.3928 12.9001 17.7207 12.7001C17.9377 12.7001 18.0473 12.6001 18.2655 12.6001H25.4743C26.3493 12.6001 27.2208 12.7001 27.8788 12.8001C28.0958 12.8001 28.3152 12.8001 28.5333 12.9001C28.7515 13.0001 28.9697 13.0001 29.0793 13.1001C29.1878 13.1001 29.2963 13.1001 29.4072 13.1001C29.7338 13.2001 30.0617 13.4001 30.3895 13.5001C30.7162 11.4001 30.3895 10.0001 29.0793 8.6001C27.768 7.2001 25.2573 6.6001 22.0887 6.6001H12.6958C12.1498 6.6001 11.4953 7.0001 11.3845 7.6001L7.5625 29.8001C7.5625 30.2001 7.89033 30.7001 8.43633 30.7001H14.1157L15.6452 22.4001L17.0662 13.5001Z" fill="#003087"/>
</svg>
