<svg width="40" height="40" viewBox="0 0 40 40" fill="none" xmlns="http://www.w3.org/2000/svg">
<path fill-rule="evenodd" clip-rule="evenodd" d="M11.9132 7.0013H20.4006L31.9377 17.5618C32.6072 18.1744 33 19.0355 33 19.9309C33.0015 20.3718 32.9122 20.8085 32.7374 21.2154C32.5626 21.6223 32.3058 21.991 31.9821 22.3L20.428 32.9822H11.8858C11.8146 32.9826 11.745 32.9621 11.6861 32.9233C11.6272 32.8845 11.5818 32.8293 11.5558 32.7649C11.5298 32.7005 11.5245 32.63 11.5405 32.5626C11.5565 32.4953 11.5932 32.4342 11.6456 32.3874L25.1259 20.2594C25.1659 20.2209 25.1976 20.1751 25.2191 20.1246C25.2406 20.074 25.2515 20.0198 25.2511 19.9651C25.2483 19.8546 25.2004 19.7497 25.118 19.6734L11.6717 7.59483C11.4316 7.38811 11.5921 7.0013 11.9132 7.0013ZM8.03483 22.2911C7.70775 21.9803 7.44775 21.6093 7.27006 21.1996C7.09237 20.79 7.00056 20.3501 7 19.9055C7 19.0089 7.39149 18.1478 8.06093 17.5365L14.2582 11.8333L18.9117 16.0374L14.8728 19.6392C14.833 19.6773 14.8015 19.7227 14.78 19.7728C14.7584 19.8229 14.7474 19.8766 14.7475 19.9309C14.7475 20.0438 14.801 20.1465 14.8819 20.2239L18.9665 23.8941L14.3117 28.0983L8.03483 22.2911ZM22.4964 33H28.1756C28.4966 33 28.6584 32.6119 28.417 32.4052L25.7509 30.0019L22.4964 33ZM28.3726 7.59483L25.7327 9.95501L22.4872 7.00003H28.1312C28.2027 6.99909 28.2729 7.01935 28.3323 7.05811C28.3917 7.09687 28.4376 7.15229 28.4638 7.217C28.49 7.28172 28.4953 7.35265 28.479 7.42037C28.4627 7.48809 28.4256 7.54812 28.3726 7.59483Z" fill="#FF3D00"/>
</svg>
