<svg width="40" height="40" viewBox="0 0 40 40" fill="none" xmlns="http://www.w3.org/2000/svg">
<path fill-rule="evenodd" clip-rule="evenodd" d="M25.3547 21.5027C25.3547 21.303 25.3547 21.1237 25.3547 20.924C25.3547 20.7592 25.4383 20.6457 25.6159 20.6558C25.9474 20.7013 26.4164 20.7468 26.7494 20.6806C27.1841 20.5931 27.496 20.2949 27.6805 19.8862C27.9404 19.3111 28.1125 18.8472 28.2212 18.5428L24.9199 10.6315C24.8642 10.4972 24.8478 10.248 25.125 10.248H26.279C26.4991 10.248 26.5886 10.3832 26.6379 10.5158L29.0313 16.9418L31.3161 10.5158C31.3627 10.3841 31.4563 10.248 31.6746 10.248H32.7628C33.0382 10.248 33.0227 10.4968 32.9679 10.6315L29.6931 18.7898C29.2693 19.8756 28.7048 21.6052 27.4334 21.9056C26.7959 22.0668 25.9917 22.0085 25.5195 21.8172C25.4003 21.7594 25.3547 21.6048 25.3547 21.5027Z" fill="#333E47"/>
<path fill-rule="evenodd" clip-rule="evenodd" d="M23.8142 18.1949C23.8142 18.342 23.6895 18.4626 23.5366 18.4626H22.7228C22.5469 18.4626 22.4268 18.3398 22.4045 18.1949L22.3227 17.659C21.9487 17.9652 21.4897 18.2342 20.992 18.4216C20.0348 18.7812 18.9315 18.8408 17.9962 18.285C17.3199 17.8835 16.9609 17.0984 16.9609 16.2887C16.9609 15.6622 17.1605 15.0411 17.603 14.59C18.1935 13.9738 19.0493 13.6711 20.0827 13.6711C20.707 13.6711 21.6003 13.7423 22.2501 13.9477V12.8693C22.2501 11.7728 21.7729 11.2984 20.5148 11.2984C19.553 11.2984 18.8173 11.4389 17.7934 11.7468C17.6295 11.7521 17.5336 11.6315 17.5336 11.4844V10.8694C17.5336 10.7219 17.6638 10.5792 17.8049 10.5359C18.536 10.2275 19.5717 10.0353 20.6728 10C22.1081 10 23.8142 10.3132 23.8142 12.4488V18.1949ZM22.2501 16.6204V14.9934C21.7039 14.8489 20.8002 14.7888 20.4504 14.7888C19.8978 14.7888 19.2927 14.9152 18.9767 15.2443C18.7406 15.4855 18.6337 15.8319 18.6337 16.1667C18.6337 16.5997 18.7885 17.0339 19.1502 17.2486C19.5704 17.5248 20.222 17.4912 20.8344 17.3229C21.4231 17.1612 21.9756 16.8753 22.2501 16.6204Z" fill="#333E47"/>
<path fill-rule="evenodd" clip-rule="evenodd" d="M11.8155 11.3237C13.6212 11.3237 14.113 12.6972 14.113 14.2699C14.1231 15.3301 13.9217 16.2755 13.354 16.8167C12.9293 17.2218 12.4548 17.3323 11.7406 17.3323C11.1049 17.3323 10.2687 17.0115 9.64402 16.5649V12.0681C10.2943 11.5848 11.1241 11.3237 11.8155 11.3237ZM9.36727 21.7867H8.2772C8.12467 21.7867 8 21.6661 8 21.519C8 17.8566 8 14.1939 8 10.5316C8 10.3845 8.12467 10.2639 8.2772 10.2639H9.11154C9.2869 10.2639 9.407 10.3867 9.42938 10.5316L9.51706 11.1072C10.2984 10.4361 11.3045 10.0059 12.263 10.0059C14.9478 10.0059 15.8305 12.1458 15.8305 14.371C15.8305 16.7518 14.4802 18.6646 12.1964 18.6646C11.2346 18.6646 10.3354 18.3214 9.64402 17.725V21.519C9.64402 21.6661 9.51934 21.7867 9.36727 21.7867Z" fill="#333E47"/>
<path fill-rule="evenodd" clip-rule="evenodd" d="M32.9237 25.8774C29.4206 28.5682 24.3416 29.9991 19.9679 29.9991C13.8385 29.9991 8.31869 27.6409 4.14149 23.7153C3.81389 23.4068 4.10605 22.9859 4.50024 23.2246C9.00665 25.954 14.5802 27.5979 20.3358 27.5979C24.2187 27.5979 28.4872 26.7589 32.4146 25.025C33.007 24.7639 33.5038 25.4313 32.9237 25.8774Z" fill="#F79C34"/>
<path fill-rule="evenodd" clip-rule="evenodd" d="M34.3834 24.1462C33.935 23.5493 31.4216 23.8634 30.2922 24.0043C29.9501 24.0473 29.8969 23.736 30.2052 23.5107C32.2105 22.0446 35.4967 22.4677 35.8786 22.959C36.2631 23.4537 35.7771 26.8829 33.8985 28.519C33.609 28.7705 33.334 28.6363 33.4624 28.3043C33.8856 27.2048 34.8319 24.7443 34.3834 24.1462Z" fill="#F79C34"/>
</svg>
