<svg width="40" height="40" viewBox="0 0 40 40" fill="none" xmlns="http://www.w3.org/2000/svg">
<g clip-path="url(#clip0_4210_7350)">
<path d="M9.42587 15.0525C9.03524 15.5029 8.41024 15.8581 7.78524 15.8073C7.70712 15.1984 8.01311 14.5514 8.37118 14.1518C8.76181 13.6887 9.4454 13.3589 9.99879 13.3335C10.0639 13.9678 9.80998 14.5894 9.42587 15.0525ZM9.99228 15.9279C9.08733 15.8771 8.31259 16.429 7.8829 16.429C7.4467 16.429 6.78915 15.9532 6.073 15.9659C5.14201 15.9786 4.27613 16.4924 3.80087 17.3107C2.82431 18.9472 3.54696 21.3703 4.49097 22.7024C4.95321 23.362 5.5066 24.0852 6.23576 24.0598C6.92587 24.0344 7.19931 23.6221 8.03264 23.6221C8.87248 23.6221 9.11337 24.0598 9.84254 24.0471C10.5977 24.0344 11.073 23.3874 11.5352 22.7277C12.0626 21.9792 12.2774 21.2498 12.2905 21.2117C12.2774 21.199 10.8321 20.6599 10.8191 19.036C10.8061 17.6786 11.9584 17.0316 12.0105 16.9935C11.3595 16.0547 10.3438 15.9532 9.99228 15.9279ZM15.2201 14.0883V23.9773H16.7957V20.5964H18.9766C20.9688 20.5964 22.3686 19.2644 22.3686 17.336C22.3686 15.4077 20.9949 14.0883 19.0287 14.0883H15.2201ZM16.7957 15.3823H18.6121C19.9793 15.3823 20.7605 16.0928 20.7605 17.3424C20.7605 18.592 19.9793 19.3088 18.6056 19.3088H16.7957V15.3823ZM25.2462 24.0534C26.2358 24.0534 27.1537 23.565 27.5704 22.7912H27.603V23.9773H29.0613V19.055C29.0613 17.6278 27.8894 16.7081 26.086 16.7081C24.4128 16.7081 23.1759 17.6405 23.1303 18.9218H24.5496C24.6668 18.3129 25.2462 17.9133 26.0405 17.9133C27.004 17.9133 27.5444 18.3509 27.5444 19.1565V19.702L25.5782 19.8162C23.7488 19.924 22.7592 20.6535 22.7592 21.9221C22.7592 23.2035 23.7813 24.0534 25.2462 24.0534ZM25.6694 22.88C24.8295 22.88 24.2957 22.4867 24.2957 21.8841C24.2957 21.2625 24.81 20.9009 25.7931 20.8438L27.5444 20.736V21.2942C27.5444 22.2203 26.7371 22.88 25.6694 22.88ZM31.0079 26.6668C32.5444 26.6668 33.267 26.0959 33.8985 24.3643L36.6655 16.8032H35.0639L33.2084 22.6453H33.1759L31.3204 16.8032H29.6733L32.3425 24.0027L32.1993 24.4404C31.9584 25.1825 31.5678 25.468 30.8712 25.468C30.7475 25.468 30.5066 25.4553 30.4089 25.4426V26.6288C30.5001 26.6541 30.8907 26.6668 31.0079 26.6668Z" fill="white"/>
</g>
<defs>
<clipPath id="clip0_4210_7350">
<rect width="33.3333" height="13.3333" fill="white" transform="translate(3.33203 13.3335)"/>
</clipPath>
</defs>
</svg>
