<svg width="40" height="40" viewBox="0 0 40 40" fill="none" xmlns="http://www.w3.org/2000/svg">
<path d="M24.316 12.3638H15.6562V27.6363H24.316V12.3638Z" fill="#FF5A00"/>
<path d="M16.2338 19.9999C16.2338 16.897 17.7198 14.1431 20 12.3637C18.3219 11.0684 16.205 10.2856 13.8959 10.2856C8.42594 10.2856 4 14.6304 4 19.9999C4 25.3695 8.42594 29.7142 13.8959 29.7142C16.205 29.7142 18.3219 28.9314 20 27.6362C17.7166 25.8819 16.2338 23.1028 16.2338 19.9999Z" fill="#EB001B"/>
<path d="M36 19.9999C36 25.3695 31.5741 29.7142 26.1041 29.7142C23.795 29.7142 21.6781 28.9314 20 27.6362C22.309 25.8537 23.7662 23.1028 23.7662 19.9999C23.7662 16.897 22.2802 14.1431 20 12.3637C21.6749 11.0684 23.7918 10.2856 26.1009 10.2856C31.5741 10.2856 36 14.6586 36 19.9999Z" fill="#F79E1B"/>
</svg>
