<svg width="40" height="40" viewBox="0 0 40 40" fill="none" xmlns="http://www.w3.org/2000/svg">
<g clip-path="url(#clip0_39116_232688)">
<path d="M9.42782 15.0522C9.0372 15.5026 8.4122 15.8578 7.7872 15.8071C7.70907 15.1981 8.01506 14.5511 8.37313 14.1515C8.76376 13.6885 9.44735 13.3586 10.0007 13.3333C10.0658 13.9676 9.81194 14.5892 9.42782 15.0522ZM9.99423 15.9276C9.08928 15.8769 8.31454 16.4287 7.88485 16.4287C7.44866 16.4287 6.7911 15.953 6.07496 15.9657C5.14397 15.9784 4.27808 16.4921 3.80282 17.3104C2.82626 18.947 3.54892 21.37 4.49293 22.7021C4.95517 23.3618 5.50855 24.0849 6.23772 24.0595C6.92782 24.0342 7.20126 23.6219 8.03459 23.6219C8.87444 23.6219 9.11532 24.0595 9.84449 24.0469C10.5997 24.0342 11.075 23.3872 11.5372 22.7275C12.0645 21.979 12.2794 21.2495 12.2924 21.2115C12.2794 21.1988 10.8341 20.6596 10.8211 19.0358C10.808 17.6783 11.9604 17.0313 12.0125 16.9933C11.3614 16.0545 10.3458 15.953 9.99423 15.9276ZM15.2221 14.0881V23.9771H16.7976V20.5962H18.9786C20.9708 20.5962 22.3705 19.2641 22.3705 17.3358C22.3705 15.4075 20.9968 14.0881 19.0307 14.0881H15.2221ZM16.7976 15.3821H18.614C19.9812 15.3821 20.7625 16.0925 20.7625 17.3421C20.7625 18.5917 19.9812 19.3085 18.6075 19.3085H16.7976V15.3821ZM25.2481 24.0532C26.2377 24.0532 27.1557 23.5648 27.5724 22.7909H27.6049V23.9771H29.0632V19.0548C29.0632 17.6276 27.8914 16.7078 26.088 16.7078C24.4148 16.7078 23.1778 17.6403 23.1322 18.9216H24.5515C24.6687 18.3126 25.2481 17.913 26.0424 17.913C27.0059 17.913 27.5463 18.3507 27.5463 19.1563V19.7018L25.5802 19.816C23.7507 19.9238 22.7612 20.6533 22.7612 21.9219C22.7612 23.2032 23.7833 24.0532 25.2481 24.0532ZM25.6713 22.8797C24.8315 22.8797 24.2976 22.4864 24.2976 21.8838C24.2976 21.2622 24.8119 20.9006 25.795 20.8436L27.5463 20.7357V21.2939C27.5463 22.22 26.739 22.8797 25.6713 22.8797ZM31.0099 26.6666C32.5463 26.6666 33.269 26.0957 33.9005 24.364L36.6674 16.803H35.0658L33.2104 22.645H33.1778L31.3224 16.803H29.6752L32.3445 24.0025L32.2013 24.4401C31.9604 25.1823 31.5697 25.4677 30.8731 25.4677C30.7494 25.4677 30.5085 25.455 30.4109 25.4424V26.6285C30.502 26.6539 30.8927 26.6666 31.0099 26.6666Z" fill="black"/>
</g>
<defs>
<clipPath id="clip0_39116_232688">
<rect width="33.3333" height="13.3333" fill="white" transform="translate(3.33398 13.3333)"/>
</clipPath>
</defs>
</svg>
