<svg width="40" height="40" viewBox="0 0 40 40" fill="none" xmlns="http://www.w3.org/2000/svg">
<g clip-path="url(#clip0_39092_8551)">
<path d="M17.8657 24.8558H15.2734L16.8948 15.1755H19.4869L17.8657 24.8558Z" fill="#00579F"/>
<path d="M27.2642 15.4121C26.7529 15.2163 25.942 15 24.9392 15C22.3793 15 20.5767 16.3181 20.5656 18.2026C20.5443 19.5929 21.8563 20.3652 22.8375 20.8288C23.8404 21.3025 24.1813 21.6117 24.1813 22.0339C24.1711 22.6825 23.3709 22.9814 22.6245 22.9814C21.5896 22.9814 21.0351 22.8273 20.1924 22.4665L19.851 22.3118L19.4883 24.4848C20.0963 24.7523 21.2164 24.9896 22.3793 25C25.0993 25 26.87 23.7023 26.891 21.6941C26.9014 20.5921 26.2086 19.7477 24.7151 19.0578C23.8085 18.6148 23.2532 18.3162 23.2532 17.863C23.2639 17.451 23.7228 17.029 24.7463 17.029C25.589 17.0083 26.2082 17.2039 26.6772 17.3997L26.9117 17.5025L27.2642 15.4121Z" fill="#00579F"/>
<path d="M30.7098 21.4264C30.9233 20.8703 31.7447 18.718 31.7447 18.718C31.734 18.7386 31.9578 18.1516 32.0858 17.7912L32.267 18.6253C32.267 18.6253 32.7579 20.9424 32.8645 21.4264C32.4593 21.4264 31.2218 21.4264 30.7098 21.4264ZM33.9096 15.1755H31.9045C31.2862 15.1755 30.8164 15.3505 30.5496 15.9787L26.6992 24.8557H29.4192C29.4192 24.8557 29.867 23.6609 29.9632 23.4036C30.2616 23.4036 32.9075 23.4036 33.2914 23.4036C33.3658 23.7434 33.6007 24.8557 33.6007 24.8557H36.0009L33.9096 15.1755Z" fill="#00579F"/>
<path d="M13.109 15.1755L10.5703 21.7766L10.2929 20.4378C9.82357 18.893 8.35161 17.2147 6.70898 16.3802L9.03429 24.8455H11.7755L15.85 15.1755H13.109Z" fill="#00579F"/>
<path d="M8.2133 15.1755H4.04267L4 15.3711C7.25336 16.1744 9.40799 18.1108 10.2932 20.4382L9.38659 15.9893C9.23732 15.371 8.77861 15.1959 8.2133 15.1755Z" fill="#FAA61A"/>
</g>
<defs>
<clipPath id="clip0_39092_8551">
<rect width="32" height="10" fill="white" transform="translate(4 15)"/>
</clipPath>
</defs>
</svg>
