<svg width="40" height="40" viewBox="0 0 40 40" fill="none" xmlns="http://www.w3.org/2000/svg">
    <path d="M35.48 8.35c0-1.28-.4-2.22-1.19-2.79-.77-.56-1.71-.6-2.41-.52v-.29c0-.41-.34-.75-.75-.75s-.75.34-.75.75v2.4c0 .41.34.75.75.75s.75-.34.75-.75v-.6c.47-.07 1.11-.08 1.53.23.38.27.57.8.57 1.57 0 3.88-2.27 13.64-7.65 13.64-5.38 0-7.64-9.76-7.64-13.64 0-.77.19-1.3.56-1.57.15-.11.33-.18.53-.22.34-.07.7-.05 1.01 0v.6c0 .41.34.75.75.75s.75-.34.75-.75V4.75c0-.41-.34-.75-.75-.75s-.75.34-.75.75v.29c-.7-.08-1.64-.04-2.41.52-.79.57-1.19 1.51-1.19 2.79 0 2.95 1.3 10.16 4.96 13.45l-.1.04 3.53 7.94a3.747 3.747 0 0 1-3.74 3.71c-2.05 0-3.75-1.68-3.75-3.75v-5.62a5.25 5.25 0 1 0-10.5 0v2.74c-2.04.36-3.6 2.13-3.6 4.27 0 2.4 1.95 4.35 4.35 4.35 2.4 0 4.35-1.95 4.35-4.35 0-2.14-1.56-3.91-3.6-4.27v-2.74c0-2.07 1.68-3.75 3.75-3.75 2.07 0 3.75 1.68 3.75 3.75v5.62c0 2.89 2.35 5.25 5.25 5.25s5.21-2.32 5.24-5.19l3.54-7.96-.1-.04c3.65-3.29 4.96-10.5 4.96-13.45zM11.2 31.13c0 1.57-1.28 2.85-2.85 2.85S5.5 32.7 5.5 31.13s1.28-2.85 2.85-2.85 2.85 1.28 2.85 2.85zm15.14-3.35-2.08-4.68a5.87 5.87 0 0 0 4.16 0l-2.08 4.68zM6.8 31.13a1.54 1.54 0 1 0 3.082-.001 1.54 1.54 0 0 0-3.082.001zm2.09 0c0 .3-.24.54-.54.54-.3 0-.54-.24-.54-.54 0-.3.24-.54.54-.54.3 0 .54.24.54.54z" fill="#193A56"/>
</svg>
