<svg width="40" height="40" viewBox="0 0 40 40" fill="none" xmlns="http://www.w3.org/2000/svg">
<path d="M12.3077 27.5C11.8026 27.5 11.375 27.325 11.025 26.975C10.675 26.625 10.5 26.1974 10.5 25.6923V14.3077C10.5 13.8026 10.675 13.375 11.025 13.025C11.375 12.675 11.8026 12.5 12.3077 12.5H27.6923C28.1974 12.5 28.625 12.675 28.975 13.025C29.325 13.375 29.5 13.8026 29.5 14.3077V18.6962C29.5 18.9449 29.4153 19.1571 29.2458 19.3327C29.0761 19.5083 28.8659 19.596 28.6152 19.596H12V25.6923C12 25.7692 12.0321 25.8398 12.0963 25.9038C12.1603 25.9679 12.2307 26 12.3077 26H21.1155C21.328 26 21.5061 26.0719 21.6497 26.2158C21.7934 26.3596 21.8652 26.5378 21.8652 26.7503C21.8652 26.9629 21.7934 27.141 21.6497 27.2845C21.5061 27.4282 21.328 27.5 21.1155 27.5H12.3077ZM12 16.404H28V14.3077C28 14.2307 27.9679 14.1602 27.9038 14.0962C27.8398 14.0321 27.7693 14 27.6923 14H12.3077C12.2307 14 12.1603 14.0321 12.0963 14.0962C12.0321 14.1602 12 14.2307 12 14.3077V16.404ZM27.25 26.75H25C24.7875 26.75 24.6094 26.6781 24.4658 26.5343C24.3219 26.3904 24.25 26.2122 24.25 25.9998C24.25 25.7871 24.3219 25.609 24.4658 25.4655C24.6094 25.3218 24.7875 25.25 25 25.25H27.25V23C27.25 22.7875 27.3219 22.6094 27.4657 22.4658C27.6096 22.3219 27.7878 22.25 28.0002 22.25C28.2129 22.25 28.391 22.3219 28.5345 22.4658C28.6782 22.6094 28.75 22.7875 28.75 23V25.25H31C31.2125 25.25 31.3906 25.3219 31.5343 25.4658C31.6781 25.6096 31.75 25.7878 31.75 26.0003C31.75 26.2129 31.6781 26.391 31.5343 26.5345C31.3906 26.6782 31.2125 26.75 31 26.75H28.75V29C28.75 29.2125 28.6781 29.3906 28.5343 29.5343C28.3904 29.6781 28.2122 29.75 27.9998 29.75C27.7871 29.75 27.609 29.6781 27.4655 29.5343C27.3218 29.3906 27.25 29.2125 27.25 29V26.75Z" fill="#193a56"/>
</svg>
