<svg width="40" height="40" viewBox="0 0 40 40" fill="none" xmlns="http://www.w3.org/2000/svg">
<path fill-rule="evenodd" clip-rule="evenodd" d="M23.349 23.5155C23.349 25.5504 21.6995 27.1999 19.6646 27.1999C17.6302 27.1999 15.9805 25.5504 15.9805 23.5155C15.9805 21.4808 17.6302 19.8311 19.6646 19.8311C21.6995 19.8311 23.349 21.4808 23.349 23.5155Z" fill="#97191A"/>
<path fill-rule="evenodd" clip-rule="evenodd" d="M29.5382 6.42896C28.4387 6.42896 27.4492 6.83778 26.6761 7.61085C25.9028 8.38392 25.4937 9.36657 25.4937 10.4528V23.3356C25.4937 26.5495 22.879 29.1645 19.6648 29.1645C16.4506 29.1645 13.8359 26.5495 13.8359 23.3356V10.4528C13.8359 9.3648 13.4215 8.38038 12.6378 7.60554C11.8582 6.83571 10.8738 6.42896 9.79105 6.42896C9.10506 6.42896 8.54688 6.98684 8.54688 7.67313V23.3356C8.54688 29.4659 13.5345 34.429 19.6648 34.429C25.795 34.429 30.7827 29.4659 30.7827 23.3356V7.67313C30.7827 6.98714 30.2245 6.42896 29.5382 6.42896Z" fill="white"/>
</svg>
