<!-- Generated by IcoMoon.io -->
<svg width="20" height="20" viewBox="0 0 20 20" fill="none" xmlns="http://www.w3.org/2000/svg">
<path d="M10 0C4.49 0 0 4.49 0 10C0 15.51 4.49 20 10 20C15.51 20 20 15.51 20 10C20 4.49 15.51 0 10 0ZM10 18.6C5.26 18.6 1.4 14.74 1.4 10C1.4 5.26 5.26 1.4 10 1.4C14.74 1.4 18.6 5.26 18.6 10C18.6 14.74 14.74 18.6 10 18.6ZM8.22 5.15C8.22 4.27 8.9 3.58 9.79 3.58C10.68 3.58 11.36 4.28 11.36 5.15C11.36 6.02 10.67 6.72 9.79 6.72C8.91 6.72 8.22 6.04 8.22 5.15ZM11.78 13.76V15.9C11.78 15.9 11.43 15.97 11.02 15.97C9.6 15.97 8.47 15.24 8.47 13.64V7.56H11.1V13.27C11.1 13.58 11.25 13.77 11.78 13.77V13.76Z" fill="#193A56"/>
</svg>
