<svg width="32" height="32" viewBox="0 0 32 32" fill="none" xmlns="http://www.w3.org/2000/svg">
<path fill-rule="evenodd" clip-rule="evenodd" d="M18.6793 18.8128C18.6793 20.4407 17.3597 21.7603 15.7318 21.7603C14.1043 21.7603 12.7845 20.4407 12.7845 18.8128C12.7845 17.185 14.1043 15.8652 15.7318 15.8652C17.3597 15.8652 18.6793 17.185 18.6793 18.8128Z" fill="#97191A"/>
<path fill-rule="evenodd" clip-rule="evenodd" d="M23.6308 5.14258C22.7511 5.14258 21.9596 5.46964 21.3411 6.08809C20.7224 6.70655 20.3951 7.49267 20.3951 8.36167V18.6679C20.3951 21.239 18.3034 23.331 15.732 23.331C13.1607 23.331 11.0689 21.239 11.0689 18.6679V8.36167C11.0689 7.49125 10.7374 6.70372 10.1104 6.08384C9.48676 5.46798 8.69922 5.14258 7.83305 5.14258C7.28425 5.14258 6.83771 5.58889 6.83771 6.13792V18.6679C6.83771 23.5721 10.8278 27.5426 15.732 27.5426C20.6362 27.5426 24.6263 23.5721 24.6263 18.6679V6.13792C24.6263 5.58912 24.1798 5.14258 23.6308 5.14258Z" fill="#0F3250"/>
</svg>
