<svg width="40" height="40" viewBox="0 0 40 40" fill="none" xmlns="http://www.w3.org/2000/svg">
<path d="M32.37 26.82C33.48 26.5 34.49 26.54 34.51 26.55C35.06 26.58 35.53 26.16 35.56 25.61C35.59 25.06 35.17 24.59 34.62 24.55C34.49 24.55 31.29 24.37 29.21 26.33C28.32 27.16 27.8 28.25 27.61 29.54C27.61 29.56 27.59 29.59 27.59 29.61H15.79L10.75 22.01L12.97 11.54H14.68C15.23 11.54 15.68 11.09 15.68 10.54C15.68 9.99004 15.23 9.54004 14.68 9.54004H9.34C8.79 9.54004 8.34 9.99004 8.34 10.54C8.34 11.09 8.79 11.54 9.34 11.54H10.93L7.72 26.7C5.65 26.81 4 28.51 4 30.61C4 32.71 5.76 34.54 7.93 34.54C9.75 34.54 11.27 33.29 11.71 31.61H27.59C28.04 33.29 29.56 34.54 31.37 34.54C33.54 34.54 35.3 32.78 35.3 30.61C35.3 28.79 34.05 27.27 32.36 26.82H32.37ZM7.93 32.53C6.87 32.53 6 31.66 6 30.6C6 29.77 6.53 29.06 7.27 28.79L6.95 30.3C6.84 30.84 7.18 31.37 7.72 31.49C7.79 31.51 7.86 31.51 7.93 31.51C8.39 31.51 8.81 31.19 8.91 30.72L9.24 29.19C9.62 29.54 9.87 30.04 9.87 30.6C9.87 31.66 9 32.53 7.94 32.53H7.93ZM11.71 29.6C11.42 28.5 10.67 27.6 9.67 27.1L10.17 24.74L13.39 29.6H11.71ZM31.37 32.53C30.67 32.53 30.07 32.16 29.73 31.6H31.41C31.96 31.6 32.41 31.15 32.41 30.6C32.41 30.05 31.96 29.6 31.41 29.6H29.73C30.07 29.05 30.67 28.67 31.37 28.67C32.43 28.67 33.3 29.54 33.3 30.6C33.3 31.66 32.43 32.53 31.37 32.53Z" fill="#193A56"/>
<path d="M26.53 6C23.48 6 21 8.47 21 11.51C21 13.58 23.3 17.18 25.23 19.84C25.53 20.25 26.03 20.51 26.53 20.5C27.04 20.5 27.52 20.25 27.82 19.84C29.75 17.19 32.05 13.59 32.05 11.51C32.05 8.47 29.57 6 26.52 6H26.53ZM26.53 18.21C24.38 15.18 23 12.58 23 11.51C23 9.58 24.58 8 26.53 8C28.48 8 30.06 9.57 30.06 11.51C30.06 12.59 28.69 15.19 26.53 18.21ZM28.6 11.32C28.6 12.46 27.67 13.38 26.53 13.38C25.39 13.38 24.46 12.46 24.46 11.32C24.46 10.18 25.39 9.26 26.53 9.26C27.67 9.26 28.6 10.18 28.6 11.32Z" fill="#193A56"/>
</svg>
