<svg width="24" height="24" viewBox="0 0 24 24" fill="none" xmlns="http://www.w3.org/2000/svg">
    <path fill-rule="evenodd" clip-rule="evenodd" d="M19.488 14.07 17.418 12l2.07-2.07a.513.513 0 0 0 .09-.132 3.813 3.813 0 0 0-.306-5.07 3.812 3.812 0 0 0-5.064-.312.513.513 0 0 0-.132.09l-2.07 2.07-.738-.738-1.332-1.332a.513.513 0 0 0-.132-.09 3.827 3.827 0 0 0-5.076.312 3.812 3.812 0 0 0-.312 5.064.52.52 0 0 0 .096.138l1.332 1.332.738.738-2.07 2.07a.513.513 0 0 0-.09.132 3.806 3.806 0 0 0 .306 5.07A3.818 3.818 0 0 0 7.434 20.4c.828 0 1.656-.27 2.358-.816a.52.52 0 0 0 .138-.096l2.07-2.07 2.07 2.07a.357.357 0 0 0 .126.084 3.825 3.825 0 0 0 2.37.828c.978 0 1.956-.378 2.706-1.128a3.811 3.811 0 0 0 .312-5.064.52.52 0 0 0-.096-.138zm-4.86-8.838.06-.042a2.914 2.914 0 0 1 3.948.18 2.913 2.913 0 0 1 .18 3.948c-.018.018-.03.042-.048.066l-1.986 1.986-2.058-2.058-2.082-2.082 1.992-1.992-.006-.006zm-8.466 5.076-.936-.936s-.03-.042-.042-.066a2.914 2.914 0 0 1 .18-3.948 2.913 2.913 0 0 1 3.948-.18c.018.018.042.03.06.042l.936.936-4.146 4.146v.006zm3.21 8.46s-.042.03-.066.042c-1.17.978-2.868.9-3.948-.18a2.913 2.913 0 0 1-.18-3.948c.018-.018.03-.042.042-.066l1.992-1.992 4.146 4.146-1.992 1.986.006.012zm-1.836-7.086-.738-.738 4.146-4.146.738.738 2.406 2.406 3.174 3.174-4.146 4.146-5.58-5.58zm11.1 6.954a2.913 2.913 0 0 1-3.948.18c-.018-.018-.042-.03-.06-.042l-.876-.876 4.146-4.146.87.87.048.066c.978 1.17.9 2.868-.18 3.948zm-5.334-4.482a.598.598 0 1 1-.844.846.598.598 0 0 1 .844-.846zm-1.698-1.698a.598.598 0 1 1-.844.846.598.598 0 0 1 .844-.846zm-1.698-1.698a.597.597 0 1 1-.844.846.597.597 0 0 1 .844-.846zM15 13.302a.598.598 0 1 1-.846-.846.598.598 0 1 1 .846.846zm-1.698-2.544a.598.598 0 1 1-.844.846.598.598 0 0 1 .844-.846zM11.604 9.06a.598.598 0 1 1-.844.846.598.598 0 0 1 .844-.846z" fill="#193A56"/>
</svg>
