<svg width="40" height="40" viewBox="0 0 40 40" fill="none" xmlns="http://www.w3.org/2000/svg">
    <path d="M31.13 17.42c-.34-1.05-1.01-1.59-1.99-1.61H17.38c-.98.01-1.64.55-1.97 1.57l-2.06 5.47h19.82l-2.04-5.43zm-15.61 3.93 1.31-3.47c.17-.54.33-.56.57-.57h11.73c.25 0 .4.03.59.6l1.29 3.44H15.52zm19.45.14-2.06-5.27c-.62-1.58-1.96-2.45-3.78-2.46H17.39c-.22 0-.43.02-.63.04v-3.05c0-.63-.34-1.2-.88-1.5-.25-.14-.94-.23-1.8-.29V5.45h2.75v-1.5h-3.05C13.39 2.98 12.61 2 11.17 2H8.68v.02c-1.45 0-2.23.97-2.62 1.95H3v1.5h2.75v3.51c-.86.06-1.55.15-1.8.29-.54.3-.88.88-.88 1.5v6.43c.15 1.44 1.19 4.09 4.05 4.41v1.44c0 .81.66 1.46 1.46 1.46h.37c-.04.22-.06.45-.06.69v7.92h2.17v1.52c0 1.08.49 1.98 1.34 2.48.88.51 2.02.51 2.9 0 .86-.5 1.36-1.4 1.36-2.47v-1.52h13.2v1.52c0 1.07.49 1.98 1.36 2.47.44.26.95.38 1.45.38s1.01-.13 1.45-.38c.86-.5 1.34-1.4 1.34-2.47v-1.52h2.17v-7.92c0-2.07-1.45-3.34-2.66-3.72zM8.67 3.52h2.49V3.5c1.24 0 1.42 1.73 1.42 1.73v3.66c-1.46-.04-2.99-.03-3.71-.02-.52 0-1.08.02-1.63.03V5.32c0-.07.18-1.8 1.42-1.8h.01zM7.13 16.96v3.12c-2.24-.37-2.55-2.92-2.55-2.97v-6.34c0-.08.04-.16.04-.16.38-.12 2.78-.27 6.32-.21v-.03c2.4.01 3.97.12 4.22.19.07.04.11.11.11.19v3.54c-.74.41-1.3 1.06-1.65 1.93l-.68 1.74v-1c0-.81-.66-1.46-1.46-1.46H8.6c-.81 0-1.46.66-1.46 1.46h-.01zm2.43 6.07-.93.03L8.59 17l2.84-.04v4.58c-.66.24-1.37.74-1.88 1.49h.01zm26.57 8.6h-2.17v3.02c0 .54-.2.95-.59 1.17-.42.24-.98.24-1.4 0-.28-.16-.61-.49-.61-1.17v-3.02h-16.2v3.02c0 .68-.33 1.01-.61 1.17-.42.24-.98.24-1.4 0-.39-.23-.6-.63-.59-1.18v-3.02h-2.17V25.2c0-1.59 1.34-2.27 1.8-2.33l.44-.06 2.36-6.05c.39-1 1.2-1.5 2.39-1.51h11.74c1.19 0 2 .51 2.39 1.51l2.36 6.05.44.06c.46.06 1.81.74 1.8 2.33v6.42l.02.01zm-22.17-7.88h-.03c-.63 0-1.22.25-1.67.7-.46.46-.72 1.08-.71 1.72 0 .64.25 1.23.7 1.69.45.46 1.06.71 1.7.71h.01c.63 0 1.22-.24 1.66-.69.45-.45.7-1.06.7-1.7 0-.64-.26-1.29-.72-1.74a2.3 2.3 0 0 0-1.64-.68v-.01zm.95 3.42c-.25.25-.6.4-.96.4-.38 0-.73-.15-.99-.41s-.4-.61-.4-.98c0-.38.15-.74.42-1.01.26-.26.61-.41.97-.41h.02c.37.03.69.14.94.39.27.27.42.64.42 1.03s-.14.73-.41.99h-.01zm17.68-3.42c-.65.03-1.21.24-1.66.68a2.45 2.45 0 0 0-.72 1.74c0 .65.25 1.25.7 1.7.44.44 1.04.69 1.66.69h.01c.64 0 1.25-.25 1.7-.71.45-.45.7-1.05.7-1.68 0-.65-.25-1.26-.71-1.72a2.43 2.43 0 0 0-1.68-.7zm1.4 2.42c0 .37-.14.71-.4.97-.27.27-.62.41-1 .41-.36 0-.7-.14-.96-.4s-.41-.62-.41-.99.16-.77.42-1.03c.26-.25.58-.37.95-.39.35 0 .71.14.98.41.27.27.42.63.42 1.01v.01z" fill="white"/>
</svg>
