<svg width="28" height="18" viewBox="0 0 28 18" fill="none" xmlns="http://www.w3.org/2000/svg">
<rect width="28" height="18" rx="2" fill="white"/>
<path d="M16.667 4.28369H11.3184V13.7167H16.667V4.28369Z" fill="#FF5A00"/>
<path d="M11.6733 9C11.6733 7.0835 12.5912 5.38252 13.9995 4.2835C12.963 3.4835 11.6555 3 10.2294 3C6.85086 3 4.11719 5.6835 4.11719 9C4.11719 12.3165 6.85086 15 10.2294 15C11.6555 15 12.963 14.5165 13.9995 13.7165C12.5892 12.633 11.6733 10.9165 11.6733 9Z" fill="#EB001B"/>
<path d="M23.8843 9C23.8843 12.3165 21.1506 15 17.7721 15C16.3459 15 15.0385 14.5165 14.002 13.7165C15.4281 12.6155 16.3281 10.9165 16.3281 9C16.3281 7.0835 15.4103 5.38252 14.002 4.2835C15.0365 3.4835 16.344 3 17.7701 3C21.1506 3 23.8843 5.70097 23.8843 9Z" fill="#F79E1B"/>
</svg>
