<svg width="28" height="18" viewBox="0 0 28 18" fill="none" xmlns="http://www.w3.org/2000/svg">
<rect width="28" height="18" rx="2" fill="#193a56"/>
<g clip-path="url(#clip0_39041_226579)">
<path d="M12.5079 12.3992H10.6934L11.8283 5.62305H13.6428L12.5079 12.3992Z" fill="white"/>
<path d="M19.0858 5.78849C18.7278 5.65138 18.1602 5.5 17.4582 5.5C15.6663 5.5 14.4044 6.42267 14.3967 7.7418C14.3818 8.71506 15.3002 9.25563 15.987 9.58014C16.689 9.91175 16.9277 10.1282 16.9277 10.4238C16.9205 10.8777 16.3604 11.087 15.838 11.087C15.1135 11.087 14.7253 10.9791 14.1354 10.7265L13.8965 10.6183L13.6426 12.1394C14.0682 12.3266 14.8522 12.4927 15.6663 12.5C17.5703 12.5 18.8098 11.5916 18.8245 10.1859C18.8317 9.41448 18.3468 8.82342 17.3014 8.34043C16.6667 8.03039 16.278 7.82133 16.278 7.50409C16.2855 7.2157 16.6068 6.92031 17.3232 6.92031C17.9131 6.90585 18.3465 7.04276 18.6749 7.17977L18.839 7.25173L19.0858 5.78849Z" fill="white"/>
<path d="M21.4969 9.99867C21.6463 9.60939 22.2213 8.10275 22.2213 8.10275C22.2138 8.11722 22.3705 7.70628 22.4601 7.45401L22.5869 8.03788C22.5869 8.03788 22.9305 9.65988 23.0051 9.99867C22.7215 9.99867 21.8553 9.99867 21.4969 9.99867ZM23.7367 5.62305H22.3332C21.9003 5.62305 21.5715 5.74549 21.3847 6.18527L18.6895 12.3991H20.5934C20.5934 12.3991 20.9069 11.5628 20.9742 11.3827C21.1831 11.3827 23.0353 11.3827 23.304 11.3827C23.3561 11.6206 23.5205 12.3991 23.5205 12.3991H25.2006L23.7367 5.62305Z" fill="white"/>
<path d="M9.17725 5.62305L7.4002 10.2438L7.20601 9.30662C6.87747 8.22529 5.8471 7.05045 4.69727 6.46629L6.32498 12.392H8.24382L11.096 5.62305H9.17725Z" fill="white"/>
<path d="M5.75009 5.62305H2.83065L2.80078 5.75996C5.07813 6.32228 6.58638 7.67773 7.20605 9.30691L6.57139 6.19265C6.46691 5.75987 6.14581 5.63732 5.75009 5.62305Z" fill="#FAA61A"/>
</g>
<defs>
<clipPath id="clip0_39041_226579">
<rect width="22.4" height="7" fill="white" transform="translate(2.80078 5.5)"/>
</clipPath>
</defs>
</svg>
