<svg width="10" height="10" viewBox="0 0 10 10" fill="none" xmlns="http://www.w3.org/2000/svg">
<path d="M8.91564 2.97812L3.91564 7.97812C3.87169 8.02201 3.81212 8.04667 3.75001 8.04667C3.6879 8.04667 3.62833 8.02201 3.58439 7.97812L1.39689 5.79062C1.35549 5.74619 1.33295 5.68743 1.33402 5.62671C1.33509 5.56599 1.35969 5.50806 1.40263 5.46512C1.44557 5.42217 1.50351 5.39758 1.56422 5.39651C1.62494 5.39543 1.68371 5.41797 1.72814 5.45937L3.75001 7.48086L8.58439 2.64687C8.62882 2.60547 8.68758 2.58293 8.7483 2.58401C8.80902 2.58508 8.86695 2.60967 8.9099 2.65262C8.95284 2.69556 8.97743 2.75349 8.97851 2.81421C8.97958 2.87493 8.95704 2.93369 8.91564 2.97812Z" fill="#001C35" stroke="#001C35" stroke-width="0.5"/>
</svg>
