<svg width="16" height="16" viewBox="0 0 16 16" fill="none" xmlns="http://www.w3.org/2000/svg">
<path d="M11.265 8.26499L6.265 13.265C6.19391 13.3312 6.09989 13.3673 6.00274 13.3656C5.90559 13.3639 5.8129 13.3245 5.74419 13.2558C5.67548 13.1871 5.63613 13.0944 5.63441 12.9972C5.6327 12.9001 5.66876 12.8061 5.735 12.735L10.4694 7.99998L5.735 3.26498C5.66876 3.1939 5.6327 3.09987 5.63441 3.00272C5.63613 2.90557 5.67548 2.81288 5.74419 2.74417C5.8129 2.67547 5.90559 2.63611 6.00274 2.6344C6.09989 2.63268 6.19391 2.66874 6.265 2.73498L11.265 7.73499C11.3352 7.8053 11.3747 7.90061 11.3747 7.99998C11.3747 8.09936 11.3352 8.19467 11.265 8.26499Z" fill="#F9F9F7"/>
</svg>
