<svg width="16" height="16" viewBox="0 0 16 16" fill="none" xmlns="http://www.w3.org/2000/svg">
<g clip-path="url(#clip0_7327_3395)">
<path d="M10.265 12.735C10.3018 12.7693 10.3314 12.8107 10.3519 12.8567C10.3724 12.9027 10.3834 12.9524 10.3843 13.0027C10.3852 13.0531 10.3759 13.1031 10.3571 13.1498C10.3382 13.1965 10.3101 13.2389 10.2745 13.2745C10.2389 13.3101 10.1965 13.3382 10.1498 13.357C10.1031 13.3759 10.0531 13.3852 10.0027 13.3843C9.95239 13.3834 9.90273 13.3724 9.85673 13.3519C9.81073 13.3314 9.76933 13.3018 9.735 13.265L4.735 8.26498C4.66477 8.19467 4.62533 8.09936 4.62533 7.99998C4.62533 7.90061 4.66477 7.8053 4.735 7.73498L9.735 2.73498C9.80609 2.66874 9.90011 2.63268 9.99726 2.6344C10.0944 2.63611 10.1871 2.67547 10.2558 2.74417C10.3245 2.81288 10.3639 2.90557 10.3656 3.00272C10.3673 3.09987 10.3312 3.1939 10.265 3.26498L5.53062 7.99998L10.265 12.735Z" fill="#F9F9F7"/>
</g>
<defs>
<clipPath id="clip0_7327_3395">
<rect width="16" height="16" fill="white"/>
</clipPath>
</defs>
</svg>
