<svg width="16" height="16" viewBox="0 0 16 16" fill="none" xmlns="http://www.w3.org/2000/svg">
<g clip-path="url(#clip0_7134_5481)">
<path d="M13.2649 6.26498L8.26492 11.265C8.19461 11.3352 8.0993 11.3747 7.99992 11.3747C7.90055 11.3747 7.80524 11.3352 7.73492 11.265L2.73492 6.26498C2.66868 6.1939 2.63262 6.09987 2.63434 6.00272C2.63605 5.90557 2.67541 5.81288 2.74411 5.74417C2.81282 5.67547 2.90551 5.63611 3.00266 5.6344C3.09981 5.63268 3.19384 5.66874 3.26492 5.73498L7.99992 10.4694L12.7349 5.73498C12.806 5.66874 12.9 5.63268 12.9972 5.6344C13.0943 5.63611 13.187 5.67547 13.2557 5.74417C13.3244 5.81288 13.3638 5.90557 13.3655 6.00272C13.3672 6.09987 13.3312 6.1939 13.2649 6.26498Z" fill="#001C35"/>
</g>
<defs>
<clipPath id="clip0_7134_5481">
<rect width="16" height="16" fill="white"/>
</clipPath>
</defs>
</svg>
