<svg width="16" height="16" viewBox="0 0 16 16" fill="none" xmlns="http://www.w3.org/2000/svg">
<path d="M13.1666 3.00001C13.1666 2.90796 13.092 2.83334 13 2.83334H2.99996C2.90791 2.83334 2.83329 2.90796 2.83329 3.00001V13C2.83329 13.0921 2.90791 13.1667 2.99996 13.1667H13C13.092 13.1667 13.1666 13.0921 13.1666 13V3.00001ZM13.8333 13C13.8333 13.4602 13.4602 13.8333 13 13.8333H2.99996C2.53972 13.8333 2.16663 13.4602 2.16663 13V3.00001C2.16663 2.53977 2.53972 2.16667 2.99996 2.16667H13C13.4602 2.16667 13.8333 2.53977 13.8333 3.00001V13Z" fill="#001C35"/>
<path d="M2.4105 2.41058C2.54067 2.28041 2.75168 2.28041 2.88185 2.41058L13.5895 13.1183C13.7195 13.2485 13.7196 13.4595 13.5895 13.5896C13.4594 13.7197 13.2484 13.7196 13.1182 13.5896L2.4105 2.88194C2.28032 2.75176 2.28032 2.54076 2.4105 2.41058Z" fill="#001C35"/>
</svg>
