<svg width="24" height="24" viewBox="0 0 24 24" fill="none" xmlns="http://www.w3.org/2000/svg">
<path d="M23.0278 4.50005C23.0196 4.36275 22.9613 4.23323 22.8641 4.13598C22.7668 4.03872 22.6373 3.98047 22.5 3.97223C17.7187 3.69098 13.8862 5.13661 12.2484 7.84036C11.1581 9.6413 11.1816 11.8416 12.2981 13.9341C11.5822 14.7537 11.0832 15.7397 10.8469 16.8019L8.99061 14.9447C9.75468 13.4354 9.74999 11.8557 8.96062 10.5525C7.75968 8.56973 4.96874 7.50661 1.49061 7.71286C1.35317 7.72112 1.22353 7.7795 1.12625 7.87695C1.02897 7.9744 0.970816 8.10415 0.962802 8.24161C0.758427 11.7188 1.81968 14.5097 3.80249 15.7107C4.44827 16.1054 5.19065 16.3137 5.94749 16.3125C6.73128 16.3046 7.50215 16.1118 8.19749 15.75L10.6875 18.2325V21C10.6875 21.1492 10.7468 21.2923 10.8522 21.3978C10.9577 21.5033 11.1008 21.5625 11.25 21.5625C11.3992 21.5625 11.5422 21.5033 11.6477 21.3978C11.7532 21.2923 11.8125 21.1492 11.8125 21V18.2354C11.8087 16.9467 12.2663 15.6993 13.1025 14.7188C14.1534 15.2747 15.2325 15.5541 16.2731 15.5541C17.291 15.5575 18.2899 15.2794 19.1597 14.7507C21.8634 13.1147 23.3091 9.2813 23.0278 4.50005ZM4.38561 14.7479C2.85655 13.8225 2.0053 11.625 2.06249 8.81255C4.87499 8.75161 7.06968 9.6038 7.99499 11.1329C8.52749 12.0113 8.57249 13.0435 8.13937 14.0944L5.64749 11.6016C5.54194 11.4961 5.39879 11.4368 5.24952 11.4368C5.10025 11.4368 4.9571 11.4961 4.85155 11.6016C4.746 11.7072 4.68671 11.8503 4.68671 11.9996C4.68671 12.1488 4.746 12.292 4.85155 12.3975L7.34718 14.8922C6.29624 15.3254 5.26405 15.2813 4.38561 14.7479ZM18.5775 13.7897C17.1956 14.626 15.5644 14.6504 13.9209 13.8741L19.1484 8.64755C19.2007 8.59528 19.2421 8.53324 19.2704 8.46496C19.2987 8.39667 19.3133 8.32349 19.3133 8.24958C19.3133 8.17567 19.2987 8.10248 19.2704 8.0342C19.2421 7.96592 19.2007 7.90387 19.1484 7.85161C19.0962 7.79935 19.0341 7.75789 18.9658 7.72961C18.8976 7.70132 18.8244 7.68676 18.7505 7.68676C18.6765 7.68676 18.6034 7.70132 18.5351 7.72961C18.4668 7.75789 18.4048 7.79935 18.3525 7.85161L13.125 13.0791C12.3487 11.4357 12.375 9.80442 13.2094 8.42348C14.5706 6.17348 17.8087 4.93786 21.9281 5.07192C22.0622 9.18755 20.8256 12.4275 18.5775 13.7897Z" fill="#001C35"/>
</svg>
