<svg width="24" height="24" viewBox="0 0 24 24" fill="none" xmlns="http://www.w3.org/2000/svg">
<path d="M17.0625 6V18C17.0625 18.1492 17.0032 18.2923 16.8977 18.3977C16.7923 18.5032 16.6492 18.5625 16.5 18.5625C16.3508 18.5625 16.2077 18.5032 16.1023 18.3977C15.9968 18.2923 15.9375 18.1492 15.9375 18V6C15.9375 5.85082 15.9968 5.70774 16.1023 5.60225C16.2077 5.49676 16.3508 5.4375 16.5 5.4375C16.6492 5.4375 16.7923 5.49676 16.8977 5.60225C17.0032 5.70774 17.0625 5.85082 17.0625 6ZM21 5.4375C20.8508 5.4375 20.7077 5.49676 20.6023 5.60225C20.4968 5.70774 20.4375 5.85082 20.4375 6V18C20.4375 18.1492 20.4968 18.2923 20.6023 18.3977C20.7077 18.5032 20.8508 18.5625 21 18.5625C21.1492 18.5625 21.2923 18.5032 21.3977 18.3977C21.5032 18.2923 21.5625 18.1492 21.5625 18V6C21.5625 5.85082 21.5032 5.70774 21.3977 5.60225C21.2923 5.49676 21.1492 5.4375 21 5.4375ZM13.3125 12C13.3127 12.218 13.2577 12.4325 13.1526 12.6234C13.0475 12.8144 12.8958 12.9757 12.7116 13.0922L4.44469 18.3563C4.24806 18.4821 4.02125 18.5529 3.78793 18.5612C3.55461 18.5695 3.32333 18.515 3.11826 18.4035C2.91318 18.2919 2.74183 18.1273 2.62208 17.9268C2.50233 17.7264 2.43859 17.4975 2.4375 17.2641V6.73594C2.43859 6.50247 2.50233 6.27358 2.62208 6.07315C2.74183 5.87273 2.91318 5.70814 3.11826 5.59655C3.32333 5.48496 3.55461 5.43047 3.78793 5.43877C4.02125 5.44708 4.24806 5.51787 4.44469 5.64375L12.7116 10.9078C12.8958 11.0243 13.0475 11.1856 13.1526 11.3766C13.2577 11.5675 13.3127 11.782 13.3125 12ZM12.1875 12C12.1878 11.9712 12.1806 11.9429 12.1666 11.9177C12.1527 11.8926 12.1324 11.8715 12.1078 11.8566L3.84375 6.5925C3.81601 6.57375 3.78347 6.56334 3.75 6.5625C3.7173 6.56252 3.68511 6.57057 3.65625 6.58594C3.628 6.59946 3.60418 6.62075 3.58758 6.64731C3.57097 6.67388 3.56228 6.70461 3.5625 6.73594V17.2641C3.56228 17.2954 3.57097 17.3261 3.58758 17.3527C3.60418 17.3792 3.628 17.4005 3.65625 17.4141C3.68502 17.4305 3.71781 17.4386 3.75093 17.4375C3.78406 17.4363 3.8162 17.4259 3.84375 17.4075L12.1116 12.1434C12.1354 12.128 12.155 12.1068 12.1683 12.0816C12.1816 12.0565 12.1882 12.0284 12.1875 12Z" fill="#001C35"/>
</svg>
