<svg width="24" height="24" viewBox="0 0 24 24" fill="none" xmlns="http://www.w3.org/2000/svg">
<path d="M12 2.4375C10.1087 2.4375 8.25991 2.99833 6.68736 4.04907C5.11482 5.09981 3.88917 6.59327 3.16541 8.34059C2.44164 10.0879 2.25227 12.0106 2.62125 13.8656C2.99022 15.7205 3.90096 17.4244 5.2383 18.7617C6.57564 20.099 8.27951 21.0098 10.1345 21.3788C11.9894 21.7477 13.9121 21.5584 15.6594 20.8346C17.4067 20.1108 18.9002 18.8852 19.9509 17.3126C21.0017 15.7401 21.5625 13.8913 21.5625 12C21.5595 9.46478 20.5511 7.03425 18.7584 5.24158C16.9658 3.44891 14.5352 2.44048 12 2.4375ZM20.4375 12C20.4393 14.0432 19.6964 16.017 18.3478 17.5519L6.44813 5.65219C7.66736 4.58417 9.16855 3.89015 10.772 3.65322C12.3754 3.41628 14.0132 3.64647 15.4892 4.31622C16.9652 4.98598 18.2169 6.06692 19.0945 7.42965C19.9721 8.79237 20.4384 10.3791 20.4375 12ZM3.5625 12C3.56068 9.95682 4.3036 7.98302 5.65219 6.44812L17.5519 18.3478C16.3327 19.4158 14.8315 20.1098 13.228 20.3468C11.6246 20.5837 9.98681 20.3535 8.5108 19.6838C7.03478 19.014 5.78306 17.9331 4.90548 16.5704C4.02789 15.2076 3.56163 13.6209 3.5625 12Z" fill="#001C35"/>
</svg>
