<svg width="24" height="24" viewBox="0 0 24 24" fill="none" xmlns="http://www.w3.org/2000/svg">
<path d="M20.8235 9.32335C20.8235 9.27136 20.8028 9.22147 20.7661 9.18469L14.8193 3.23409C14.7825 3.19737 14.7326 3.17664 14.6807 3.17664C14.6288 3.17669 14.5788 3.19739 14.542 3.23409L8.92538 8.86755C8.74665 9.0468 8.47329 9.09135 8.24676 8.97863L8.24752 8.97939L8.23373 8.9725C8.2199 8.96621 8.19622 8.9565 8.16403 8.94339C8.09919 8.91699 7.99864 8.87883 7.86761 8.83921C7.60483 8.75978 7.22258 8.67388 6.75853 8.65306C5.84023 8.61191 4.57898 8.82396 3.25128 9.89558L3.24975 9.89711C3.22831 9.91432 3.21025 9.93548 3.19767 9.95993C3.18509 9.98437 3.17777 10.0114 3.17622 10.0388C3.17472 10.0664 3.17937 10.0943 3.18924 10.12C3.19912 10.1458 3.21413 10.1695 3.23367 10.189L13.8113 20.7665C13.8311 20.7861 13.8549 20.8019 13.881 20.8117C13.9071 20.8214 13.9352 20.8251 13.963 20.8231C13.9908 20.8212 14.0181 20.8134 14.0426 20.8002C14.0671 20.787 14.0886 20.7687 14.1054 20.7465C14.9167 19.6663 15.9944 17.6888 15.0384 15.7772C14.9252 15.5511 14.9695 15.2777 15.1479 15.0985L20.7661 9.462L20.7906 9.43212C20.8119 9.40014 20.8235 9.36237 20.8235 9.32335ZM22 9.32335C22 9.68722 21.8558 10.0365 21.5986 10.2939L21.5979 10.2932L16.2646 15.6439C17.2281 18.083 15.8349 20.4041 15.0437 21.4567L15.0414 21.4597L15.0407 21.459C14.9223 21.6143 14.7729 21.7432 14.601 21.8358C14.429 21.9286 14.2391 21.9832 14.0442 21.9967C13.8493 22.0102 13.6535 21.9821 13.4705 21.914C13.2875 21.8458 13.1211 21.739 12.9826 21.6014L2.40262 11.0217L2.40339 11.0209C2.2668 10.8846 2.15998 10.7215 2.09088 10.5414C2.02176 10.361 1.99154 10.1681 2.00203 9.97525C2.01256 9.78238 2.06382 9.59393 2.15216 9.42217C2.24052 9.25038 2.36365 9.09858 2.51445 8.97786C4.09166 7.70583 5.64351 7.42482 6.81138 7.47719C7.39052 7.50318 7.87033 7.61089 8.20846 7.71313C8.26389 7.72989 8.31531 7.7475 8.36318 7.76369L13.7102 2.40217L13.711 2.40141C13.9683 2.14443 14.317 2.00005 14.6807 2C15.0445 2 15.3937 2.14426 15.6511 2.40141L21.5986 8.35277C21.8558 8.61018 22 8.95944 22 9.32335Z" fill="#001C35"/>
<path d="M7.69075 15.4793C7.92046 15.2495 8.29284 15.2496 8.52256 15.4793C8.75229 15.709 8.75229 16.0814 8.52256 16.3112L3.78828 21.0461C3.55856 21.2759 3.18619 21.2759 2.95647 21.0461C2.72679 20.8163 2.72676 20.4439 2.95647 20.2142L7.69075 15.4793Z" fill="#001C35"/>
</svg>
