<svg width="24" height="24" viewBox="0 0 24 24" fill="none" xmlns="http://www.w3.org/2000/svg">
<path d="M9.375 5.4375H3.75C3.4019 5.4375 3.06806 5.57578 2.82192 5.82192C2.57578 6.06806 2.4375 6.4019 2.4375 6.75V12.75C2.4375 13.0981 2.57578 13.4319 2.82192 13.6781C3.06806 13.9242 3.4019 14.0625 3.75 14.0625H9.5625V15C9.5625 15.8454 9.22668 16.6561 8.6289 17.2539C8.03113 17.8517 7.22038 18.1875 6.375 18.1875C6.22582 18.1875 6.08274 18.2468 5.97725 18.3523C5.87176 18.4577 5.8125 18.6008 5.8125 18.75C5.8125 18.8992 5.87176 19.0423 5.97725 19.1477C6.08274 19.2532 6.22582 19.3125 6.375 19.3125C7.51829 19.311 8.61433 18.8562 9.42275 18.0478C10.2312 17.2393 10.686 16.1433 10.6875 15V6.75C10.6875 6.4019 10.5492 6.06806 10.3031 5.82192C10.0569 5.57578 9.7231 5.4375 9.375 5.4375ZM9.5625 12.9375H3.75C3.70027 12.9375 3.65258 12.9177 3.61742 12.8826C3.58225 12.8474 3.5625 12.7997 3.5625 12.75V6.75C3.5625 6.70027 3.58225 6.65258 3.61742 6.61742C3.65258 6.58225 3.70027 6.5625 3.75 6.5625H9.375C9.42473 6.5625 9.47242 6.58225 9.50758 6.61742C9.54275 6.65258 9.5625 6.70027 9.5625 6.75V12.9375ZM20.25 5.4375H14.625C14.2769 5.4375 13.9431 5.57578 13.6969 5.82192C13.4508 6.06806 13.3125 6.4019 13.3125 6.75V12.75C13.3125 13.0981 13.4508 13.4319 13.6969 13.6781C13.9431 13.9242 14.2769 14.0625 14.625 14.0625H20.4375V15C20.4375 15.8454 20.1017 16.6561 19.5039 17.2539C18.9061 17.8517 18.0954 18.1875 17.25 18.1875C17.1008 18.1875 16.9577 18.2468 16.8523 18.3523C16.7468 18.4577 16.6875 18.6008 16.6875 18.75C16.6875 18.8992 16.7468 19.0423 16.8523 19.1477C16.9577 19.2532 17.1008 19.3125 17.25 19.3125C18.3933 19.311 19.4893 18.8562 20.2978 18.0478C21.1062 17.2393 21.561 16.1433 21.5625 15V6.75C21.5625 6.4019 21.4242 6.06806 21.1781 5.82192C20.9319 5.57578 20.5981 5.4375 20.25 5.4375ZM20.4375 12.9375H14.625C14.5753 12.9375 14.5276 12.9177 14.4924 12.8826C14.4573 12.8474 14.4375 12.7997 14.4375 12.75V6.75C14.4375 6.70027 14.4573 6.65258 14.4924 6.61742C14.5276 6.58225 14.5753 6.5625 14.625 6.5625H20.25C20.2997 6.5625 20.3474 6.58225 20.3826 6.61742C20.4177 6.65258 20.4375 6.70027 20.4375 6.75V12.9375Z" fill="#001C35"/>
</svg>
