<svg width="24" height="24" viewBox="0 0 24 24" fill="none" xmlns="http://www.w3.org/2000/svg">
<path d="M22.1475 10.1025L14.6475 2.60249C14.5689 2.52393 14.4687 2.47043 14.3596 2.44877C14.2506 2.42711 14.1376 2.43825 14.0349 2.48078C13.9321 2.52331 13.8443 2.59533 13.7825 2.68774C13.7207 2.78016 13.6876 2.88881 13.6875 2.99999V6.95624C8.58005 7.29281 2.40098 12.1125 1.69411 18.2681C1.67115 18.4641 1.71064 18.6624 1.80694 18.8346C1.90324 19.0069 2.05144 19.1444 2.23044 19.2275C2.40944 19.3106 2.61009 19.3351 2.80383 19.2975C2.99757 19.2599 3.1745 19.1621 3.30942 19.0181C4.36505 17.8922 8.1563 14.3062 13.6875 14.0747V18C13.6876 18.1112 13.7207 18.2198 13.7825 18.3122C13.8443 18.4047 13.9321 18.4767 14.0349 18.5192C14.1376 18.5617 14.2506 18.5729 14.3596 18.5512C14.4687 18.5296 14.5689 18.4761 14.6475 18.3975L22.1475 10.8975C22.2529 10.792 22.3121 10.6491 22.3121 10.5C22.3121 10.3509 22.2529 10.208 22.1475 10.1025ZM14.8125 16.6425V13.5C14.8125 13.3508 14.7533 13.2077 14.6478 13.1022C14.5423 12.9968 14.3992 12.9375 14.25 12.9375C11.6504 12.9375 9.1163 13.6172 6.72005 14.9578C5.32339 15.7424 4.03687 16.7086 2.89411 17.8312C3.33474 15.3412 4.78411 12.9562 7.01911 11.0559C9.23161 9.18187 11.9335 8.06249 14.25 8.06249C14.3992 8.06249 14.5423 8.00323 14.6478 7.89774C14.7533 7.79225 14.8125 7.64918 14.8125 7.49999V4.35843L20.9541 10.5L14.8125 16.6425Z" fill="#001C35"/>
</svg>
