<svg width="24" height="24" viewBox="0 0 24 24" fill="none" xmlns="http://www.w3.org/2000/svg">
<path d="M15.5625 12C15.5625 12.1492 15.5032 12.2923 15.3977 12.3977C15.2923 12.5032 15.1492 12.5625 15 12.5625H12.5625V15C12.5625 15.1492 12.5032 15.2923 12.3977 15.3977C12.2923 15.5032 12.1492 15.5625 12 15.5625C11.8508 15.5625 11.7077 15.5032 11.6023 15.3977C11.4968 15.2923 11.4375 15.1492 11.4375 15V12.5625H9C8.85082 12.5625 8.70774 12.5032 8.60225 12.3977C8.49676 12.2923 8.4375 12.1492 8.4375 12C8.4375 11.8508 8.49676 11.7077 8.60225 11.6023C8.70774 11.4968 8.85082 11.4375 9 11.4375H11.4375V9C11.4375 8.85082 11.4968 8.70774 11.6023 8.60225C11.7077 8.49676 11.8508 8.4375 12 8.4375C12.1492 8.4375 12.2923 8.49676 12.3977 8.60225C12.5032 8.70774 12.5625 8.85082 12.5625 9V11.4375H15C15.1492 11.4375 15.2923 11.4968 15.3977 11.6023C15.5032 11.7077 15.5625 11.8508 15.5625 12ZM20.8125 5.25V10.5C20.8125 15.3694 18.4575 18.3188 16.4813 19.935C14.3503 21.6787 12.2372 22.2684 12.1481 22.2928C12.0511 22.3193 11.9489 22.3193 11.8519 22.2928C11.7581 22.2684 9.64969 21.6787 7.51875 19.935C5.5425 18.3188 3.1875 15.3694 3.1875 10.5V5.25C3.1875 4.9019 3.32578 4.56806 3.57192 4.32192C3.81806 4.07578 4.1519 3.9375 4.5 3.9375H19.5C19.8481 3.9375 20.1819 4.07578 20.4281 4.32192C20.6742 4.56806 20.8125 4.9019 20.8125 5.25ZM19.6875 5.25C19.6875 5.20027 19.6677 5.15258 19.6326 5.11742C19.5974 5.08225 19.5497 5.0625 19.5 5.0625H4.5C4.45027 5.0625 4.40258 5.08225 4.36742 5.11742C4.33225 5.15258 4.3125 5.20027 4.3125 5.25V10.5C4.3125 14.0391 5.61938 16.9116 8.1975 19.0369C9.32811 19.9662 10.6159 20.6857 12 21.1613C13.3839 20.6852 14.6716 19.9658 15.8025 19.0369C18.3806 16.9116 19.6875 14.0391 19.6875 10.5V5.25Z" fill="#001C35"/>
</svg>
