<svg width="24" height="24" viewBox="0 0 24 24" fill="none" xmlns="http://www.w3.org/2000/svg">
<path d="M12 2.4375C10.1087 2.4375 8.25991 2.99833 6.68736 4.04907C5.11482 5.09981 3.88917 6.59327 3.16541 8.34059C2.44164 10.0879 2.25227 12.0106 2.62125 13.8656C2.99022 15.7205 3.90096 17.4244 5.2383 18.7617C6.57564 20.099 8.27951 21.0098 10.1345 21.3788C11.9894 21.7477 13.9121 21.5584 15.6594 20.8346C17.4067 20.1108 18.9002 18.8852 19.9509 17.3126C21.0017 15.7401 21.5625 13.8913 21.5625 12C21.5595 9.46478 20.5511 7.03425 18.7584 5.24158C16.9658 3.44891 14.5352 2.44048 12 2.4375ZM12 20.4375C10.3312 20.4375 8.69992 19.9426 7.31238 19.0155C5.92484 18.0884 4.84338 16.7706 4.20477 15.2289C3.56616 13.6871 3.39907 11.9906 3.72463 10.3539C4.05019 8.71721 4.85379 7.21379 6.03379 6.03379C7.2138 4.85378 8.71722 4.05019 10.3539 3.72462C11.9906 3.39906 13.6871 3.56615 15.2289 4.20477C16.7706 4.84338 18.0884 5.92484 19.0155 7.31238C19.9427 8.69992 20.4375 10.3312 20.4375 12C20.435 14.237 19.5453 16.3817 17.9635 17.9635C16.3817 19.5453 14.237 20.435 12 20.4375ZM15.2728 7.75781C15.185 7.70911 15.0857 7.68482 14.9853 7.68746C14.8849 7.6901 14.787 7.71957 14.7019 7.77281L9.5625 10.9847V8.25C9.5625 8.10082 9.50324 7.95774 9.39775 7.85225C9.29226 7.74676 9.14919 7.6875 9 7.6875C8.85082 7.6875 8.70775 7.74676 8.60226 7.85225C8.49677 7.95774 8.4375 8.10082 8.4375 8.25V15.75C8.4375 15.8992 8.49677 16.0423 8.60226 16.1477C8.70775 16.2532 8.85082 16.3125 9 16.3125C9.14919 16.3125 9.29226 16.2532 9.39775 16.1477C9.50324 16.0423 9.5625 15.8992 9.5625 15.75V13.0153L14.7019 16.2272C14.787 16.2804 14.8849 16.3099 14.9853 16.3125C15.0857 16.3151 15.1849 16.2908 15.2728 16.2421C15.3606 16.1934 15.4338 16.1221 15.4847 16.0356C15.5357 15.949 15.5625 15.8504 15.5625 15.75V8.25C15.5626 8.14957 15.5357 8.05096 15.4848 7.96441C15.4338 7.87786 15.3606 7.80652 15.2728 7.75781ZM14.4375 14.7347L10.0613 12L14.4375 9.26531V14.7347Z" fill="#001C35"/>
</svg>
