<svg xmlns="http://www.w3.org/2000/svg" width="24" height="24" viewBox="0 0 24 24" fill="none">
    <path fill-rule="evenodd" clip-rule="evenodd" d="M8.01209 20.625C8.06627 20.5941 8.12872 20.5753 8.19052 20.5651C8.22115 20.5601 8.48947 20.5366 8.4901 20.5624C8.48784 20.3121 8.50227 20.0598 8.51672 19.8071C8.54486 19.3153 8.57307 18.8221 8.47833 18.339C8.12424 17.9136 7.86482 17.2332 7.86482 17.2332C7.66434 16.7108 7.55819 16.2279 7.55819 16.2279C6.9565 16.2279 6.70875 15.666 6.69713 15.3135C6.68527 14.9613 6.6028 14.6818 6.6028 14.6818C6.532 14.4632 6.37387 13.943 6.29593 13.5641C6.15326 12.8374 6.47078 12.7329 6.66562 12.7329C6.74449 12.7329 6.80314 12.7502 6.80314 12.7502C6.80314 12.7502 6.815 11.4257 6.82682 11.1462C6.83676 10.9096 6.80079 10.6661 6.76589 10.4298C6.76001 10.3901 6.75417 10.3505 6.74858 10.3112C6.7001 9.97192 6.74472 9.66385 6.79329 9.32855C6.79461 9.31945 6.79593 9.31032 6.79725 9.30117C6.90632 8.54789 7.20357 7.87459 7.69969 7.30687C7.85941 7.12398 7.97467 7.00231 8.09154 6.87892C8.20769 6.75631 8.32543 6.63201 8.49 6.44426C8.64676 6.26546 8.71851 6.18248 8.80106 6.11217C8.89245 6.03432 8.99708 5.972 9.24496 5.81238C9.5084 5.64287 9.69831 5.47331 9.85983 5.3291C9.98764 5.21498 10.0977 5.11673 10.2123 5.04693C10.5199 4.85993 10.8814 4.73818 11.2416 4.73818C11.3915 4.73818 11.5405 4.75503 11.6896 4.77189C11.8386 4.78874 11.9875 4.80559 12.1373 4.80559C12.2004 4.80559 12.2619 4.79691 12.3226 4.78389L12.6834 4.68841L12.8674 4.66671C12.9384 4.66671 13.0092 4.67827 13.1123 4.69508C13.1791 4.70597 13.2594 4.71908 13.3621 4.73267C13.6315 4.76813 13.6784 4.88748 13.7303 5.01938C13.767 5.11271 13.8061 5.21233 13.9284 5.29293C13.9601 5.31383 13.9885 5.33266 14.0143 5.34979C14.2291 5.49203 14.2666 5.51693 14.5299 5.63614C14.7014 5.71388 14.7891 5.78545 14.9044 5.87947C14.9874 5.94717 15.0847 6.02651 15.2378 6.1282C15.4367 6.26027 15.5205 6.40319 15.5991 6.53735C15.6651 6.64993 15.7275 6.75634 15.8513 6.84501C16.0358 6.97725 16.2695 7.28376 16.4669 7.54268C16.5597 7.66434 16.6445 7.77549 16.7123 7.85311C16.9248 8.09595 17.373 9.39552 17.3849 9.88167C17.3914 10.1519 17.4125 10.5419 17.432 10.9019C17.4475 11.1893 17.462 11.4576 17.4672 11.6304C17.4791 12.0191 17.5852 12.6491 17.5852 12.6491C17.5958 12.6491 17.6107 12.6461 17.6291 12.6424C17.7531 12.6174 18.0328 12.5611 18.1673 13.1916C18.3264 13.9388 17.7758 14.8458 17.7758 14.8458C17.7288 14.9344 17.7129 15.0248 17.6919 15.1435C17.6667 15.2861 17.6342 15.4696 17.5323 15.74C17.2291 16.4168 16.9982 16.5738 16.8569 16.5738C16.7342 16.5738 16.6567 16.4558 16.6567 16.4558C16.7111 16.5649 16.6721 16.6856 16.6346 16.8016C16.6186 16.8509 16.6029 16.8994 16.5948 16.9458C16.5821 17.0194 16.5398 17.0917 16.498 17.1631C16.4674 17.2154 16.4372 17.2671 16.4191 17.3184C16.2877 17.6901 16.1364 17.7799 16.0563 17.8273C16.0213 17.8481 15.9999 17.8607 15.9999 17.8854V19.781C16.0685 19.8969 16.1028 20.0355 16.1368 20.1729C16.1653 20.2884 16.1937 20.403 16.242 20.5027C19.3593 18.9444 21.5 15.7222 21.5 12C21.5 6.75329 17.2467 2.5 12 2.5C6.75329 2.5 2.5 6.75329 2.5 12C2.5 15.8225 4.75756 19.1176 8.01209 20.625ZM23 12C23 18.0751 18.0751 23 12 23C5.92487 23 1 18.0751 1 12C1 5.92487 5.92487 1 12 1C18.0751 1 23 5.92487 23 12Z" fill="#193A56"/>
</svg>