<svg width="32" height="32" viewBox="0 0 32 32" fill="none" xmlns="http://www.w3.org/2000/svg">
    <path d="M30.4016 9.59172H8.38156L6.85585 4H1.60156V5.33136H5.88728L7.26728 10.3817L10.7216 23.2781H11.5273C11.2101 23.7663 11.0216 24.3432 11.0216 24.9734C11.0216 26.642 12.333 28 13.9444 28C15.5558 28 16.8673 26.642 16.8673 24.9734C16.8673 24.3432 16.6787 23.7574 16.3616 23.2781H20.8101C20.493 23.7663 20.3044 24.3432 20.3044 24.9734C20.3044 26.642 21.6158 28 23.2273 28C24.8387 28 26.1501 26.642 26.1501 24.9734C26.1501 24.3432 25.9616 23.7574 25.6444 23.2781H26.733L30.393 9.59172H30.4016ZM13.9444 26.6686C13.0444 26.6686 12.3073 25.9053 12.3073 24.9734C12.3073 24.0414 13.0444 23.2781 13.9444 23.2781C14.8444 23.2781 15.5816 24.0414 15.5816 24.9734C15.5816 25.9053 14.8444 26.6686 13.9444 26.6686ZM23.2358 26.6686C22.3358 26.6686 21.5987 25.9053 21.5987 24.9734C21.5987 24.0414 22.3358 23.2781 23.2358 23.2781C24.1358 23.2781 24.873 24.0414 24.873 24.9734C24.873 25.9053 24.1358 26.6686 23.2358 26.6686ZM26.493 19.2308L25.7644 21.9467H11.6901L8.74156 10.9231H28.713L27.7787 14.429H22.5416V15.3166H27.5387L26.733 18.3432H18.7444V19.2308H26.493Z" fill="#193A56"/>
</svg>