<svg width="32" height="32" viewBox="0 0 32 32" fill="none" xmlns="http://www.w3.org/2000/svg">
    <path d="M21.9728 19.656C21.7808 19.44 21.3648 19.08 20.7808 19.08C20.3568 19.08 19.9408 19.272 19.5728 19.64L17.8048 21.408C17.7168 21.496 17.6048 21.592 17.4448 21.592C17.3968 21.592 17.3168 21.592 17.1888 21.52C17.0288 21.424 16.8368 21.328 16.6208 21.216C16.4368 21.12 16.2368 21.024 16.0448 20.904C14.4448 19.888 12.9888 18.568 11.5968 16.856C10.8368 15.896 10.3488 15.096 10.0128 14.272C9.94078 14.04 9.94078 13.896 10.1328 13.704L10.1488 13.688C10.6208 13.264 11.0608 12.824 11.4528 12.424C11.5568 12.328 11.6528 12.224 11.7488 12.128L11.9008 11.976C12.6768 11.2 12.6768 10.304 11.9008 9.528L10.0048 7.624C9.68478 7.288 9.37278 6.976 9.05278 6.672C8.35678 5.976 7.42878 5.952 6.66078 6.672L4.90078 8.432C4.38078 8.96 4.07678 9.6 4.01278 10.344C3.92478 11.392 4.11678 12.472 4.62878 13.84C5.42878 16.016 6.64478 18.04 8.45278 20.216C10.6448 22.832 13.2768 24.888 16.2848 26.352C17.4048 26.888 18.9008 27.512 20.5408 27.616C20.6288 27.616 20.7248 27.616 20.8208 27.616C21.7888 27.616 22.5648 27.288 23.2208 26.584C23.5248 26.224 23.8608 25.896 24.1808 25.592L24.3088 25.472C24.3728 25.408 24.4448 25.344 24.5088 25.28H24.5168L24.8288 24.944C25.5808 24.16 25.5728 23.24 24.8128 22.488L21.9728 19.648V19.656ZM24.1088 23.936H23.9168L23.8368 24.24C23.7168 24.368 23.5888 24.488 23.4608 24.608L23.3408 24.728C23.0048 25.048 22.6448 25.408 22.3168 25.784C21.9088 26.224 21.4448 26.416 20.8128 26.416C20.7488 26.416 20.6768 26.416 20.6128 26.416C19.1808 26.328 17.8208 25.752 16.8048 25.264C13.9488 23.88 11.4528 21.92 9.37278 19.44C7.66078 17.376 6.50878 15.456 5.74878 13.416C5.30078 12.224 5.13278 11.304 5.20478 10.44C5.24478 9.976 5.41278 9.608 5.74078 9.28L7.49278 7.528C7.62878 7.4 7.76478 7.32 7.86878 7.32C7.95678 7.32 8.07678 7.384 8.22878 7.536C8.53278 7.824 8.82878 8.12 9.14078 8.44L11.0528 10.36C11.3648 10.672 11.3648 10.8 11.0528 11.112L10.6048 11.56C10.1488 12.024 9.76478 12.408 9.34078 12.792L9.23678 12.88L9.22078 12.912C8.78078 13.392 8.66078 13.968 8.87678 14.64L8.90078 14.72C9.28478 15.648 9.82878 16.536 10.6688 17.6C12.1408 19.416 13.6928 20.824 15.4048 21.904C15.6288 22.048 15.8608 22.168 16.1008 22.288C16.2688 22.368 16.4208 22.448 16.5808 22.544L16.6608 22.592C17.3568 22.944 18.0848 22.816 18.6528 22.248L20.4208 20.48C20.6768 20.224 20.8368 20.184 21.1088 20.48L23.9568 23.328C24.1888 23.56 24.2448 23.712 24.1008 23.92L24.1088 23.936ZM14.7248 9.488H14.1248V8.288H14.7248C19.4608 8.288 23.3088 12.136 23.3088 16.872V17.472H22.1088V16.872C22.1088 12.8 18.7968 9.488 14.7248 9.488ZM27.5968 16.872V17.472H26.3968V16.872C26.3968 10.432 21.1568 5.2 14.7248 5.2H14.1248V4H14.7248C21.8208 4 27.5968 9.776 27.5968 16.872Z" fill="#193A56"/>
</svg>
