<svg width="40" height="40" viewBox="0 0 40 40" fill="none" xmlns="http://www.w3.org/2000/svg">
<path fill-rule="evenodd" clip-rule="evenodd" d="M27.7327 16.8684C27.3628 16.8684 27.0608 16.5664 27.0608 16.1964C27.0608 15.8254 27.3628 15.5244 27.7327 15.5244C28.1038 15.5244 28.4058 15.8254 28.4058 16.1964C28.4058 16.5664 28.1038 16.8684 27.7327 16.8684ZM30.3797 15.9394C30.3547 15.6804 30.3018 15.4284 30.2078 15.1964C29.8097 14.2174 28.8527 13.5244 27.7327 13.5244C26.6128 13.5244 25.6558 14.2174 25.2587 15.1964C25.1337 15.5054 25.0608 15.8424 25.0608 16.1964C25.0608 16.5504 25.1327 16.8864 25.2587 17.1964C25.6558 18.1744 26.6128 18.8684 27.7327 18.8684C28.8527 18.8684 29.8097 18.1744 30.2078 17.1964C30.3127 16.9364 30.3708 16.6544 30.3888 16.3614C30.3918 16.3054 30.4058 16.2524 30.4058 16.1964C30.4058 16.1084 30.3877 16.0254 30.3797 15.9394ZM17.1407 16.8684C16.7708 16.8684 16.4688 16.5664 16.4688 16.1964C16.4688 15.8254 16.7708 15.5244 17.1407 15.5244C17.5108 15.5244 17.8127 15.8254 17.8127 16.1964C17.8127 16.5664 17.5108 16.8684 17.1407 16.8684ZM17.1407 13.5244C16.0207 13.5244 15.0638 14.2174 14.6678 15.1964C14.5428 15.5054 14.4688 15.8424 14.4688 16.1964C14.4688 16.5504 14.5417 16.8864 14.6678 17.1964C15.0638 18.1744 16.0207 18.8684 17.1407 18.8684C18.2607 18.8684 19.2178 18.1744 19.6147 17.1964C19.7407 16.8864 19.8127 16.5504 19.8127 16.1964C19.8127 15.8424 19.7397 15.5054 19.6147 15.1964C19.2178 14.2174 18.2607 13.5244 17.1407 13.5244Z" fill="#193A56"/>
<path fill-rule="evenodd" clip-rule="evenodd" d="M32.8661 24.995C32.7351 24.768 32.5231 24.607 32.2701 24.54C32.0151 24.472 31.7531 24.508 31.5271 24.639L26.2711 27.361C26.1061 27.446 25.9321 27.465 25.7621 27.455C25.0381 28.292 23.8821 28.701 22.7461 28.402L17.7061 27.456C17.1631 27.353 16.8051 26.831 16.9081 26.288C17.0111 25.745 17.5401 25.392 18.0751 25.49L23.1861 26.452C23.7771 26.605 24.3191 26.295 24.4581 25.772C24.5961 25.25 24.2851 24.712 23.7621 24.574C20.3641 23.579 16.5111 22.544 15.9041 22.523C15.4111 22.617 13.2411 24.033 11.5591 25.293L8.29306 27.744L10.8951 32.503L14.4361 30.548C14.6461 30.433 14.8901 30.396 15.1231 30.445C17.7591 30.992 22.4561 31.676 24.0661 31.235L32.5111 26.335C32.7371 26.203 32.8991 25.992 32.9661 25.739C33.0331 25.486 32.9981 25.222 32.8661 24.995ZM34.8991 26.252C34.6951 27.021 34.2031 27.665 33.5141 28.065L24.9511 33.034C24.8991 33.064 24.8441 33.081 24.7901 33.1C24.7651 33.109 24.7431 33.123 24.7191 33.13C24.7081 33.133 24.6961 33.135 24.6851 33.138C22.3591 33.828 16.6961 32.795 15.0821 32.476L10.9831 34.739C10.8341 34.821 10.6681 34.863 10.5001 34.863C10.4061 34.863 10.3121 34.85 10.2201 34.824C9.96606 34.749 9.75006 34.576 9.62306 34.343L6.12306 27.943C5.88406 27.507 6.00206 26.962 6.40006 26.663L10.3601 23.693C12.2881 22.247 14.8161 20.523 15.9101 20.523C16.9621 20.523 22.5981 22.149 24.3011 22.648C25.4431 22.951 26.2511 23.908 26.4421 25.02L30.5651 22.886C31.2111 22.51 32.0101 22.401 32.7841 22.607C33.5531 22.811 34.1971 23.303 34.5961 23.991C34.9961 24.68 35.1031 25.482 34.8991 26.252ZM15.7781 10.263L18.3001 10.307V9H16.6931L15.7781 10.263ZM20.3001 10.342L24.4921 10.415L22.8021 9H20.3001V10.342ZM10.9461 15.741L10.7351 12.483C10.6891 11.797 11.1111 11.152 11.7611 10.917L13.2141 10.393L15.2061 7.644C15.5001 7.241 15.9701 7 16.4681 7H19.3001H22.9621C23.3261 7 23.6801 7.129 23.9611 7.363L27.7321 10.52L31.4151 11.098C32.2111 11.224 32.7751 11.924 32.7281 12.727L32.3511 16.301C32.3451 16.357 32.3191 16.405 32.3041 16.457C32.2901 16.512 32.2801 16.569 32.2571 16.619C32.2251 16.685 32.1791 16.741 32.1361 16.798C32.1041 16.838 32.0791 16.884 32.0421 16.919C31.9851 16.973 31.9151 17.01 31.8471 17.05C31.8071 17.072 31.7741 17.103 31.7321 17.12C31.6161 17.167 31.4901 17.196 31.3571 17.196H30.2071C30.3121 16.936 30.3701 16.654 30.3881 16.361C30.3911 16.306 30.4051 16.253 30.4051 16.196C30.4051 16.108 30.3871 16.025 30.3801 15.939C30.3541 15.68 30.3021 15.429 30.2071 15.196H30.4581L30.6891 13.009L27.3011 12.476C27.2861 12.474 27.2741 12.467 27.2611 12.464L14.0091 12.233L12.7531 12.685L12.9151 15.196H14.6671C14.5421 15.506 14.4691 15.842 14.4691 16.196C14.4691 16.55 14.5411 16.887 14.6671 17.196H12.5021C11.6831 17.196 11.0011 16.557 10.9461 15.741ZM25.2591 15.196C25.1341 15.506 25.0601 15.842 25.0601 16.196C25.0601 16.55 25.1331 16.887 25.2591 17.196H19.6141C19.7401 16.887 19.8121 16.55 19.8121 16.196C19.8121 15.842 19.7391 15.506 19.6141 15.196H25.2591Z" fill="#193A56"/>
</svg>
