<svg width="70" height="70" viewBox="0 0 70 70" fill="none" xmlns="http://www.w3.org/2000/svg">
<path d="M63.6894 36.31C63.2694 36.22 62.3394 36.08 61.1794 35.9C64.4094 25.1 63.1494 15.55 63.0894 15.14L62.9394 14.06H61.8494C48.8294 14.07 35.5094 3.73 35.3794 3.62L34.5794 3L33.7994 3.65C33.6794 3.75 21.1294 14.07 8.88943 14.07H7.72943L7.63943 15.22C7.60943 15.61 6.93943 24.72 9.42943 34.7L6.89943 35.45C5.75943 35.78 3.68943 37.1 4.02943 39.71L4.96943 45.82C5.28943 47.26 6.69943 49.99 9.73943 49.99H16.4794C16.9494 51.79 18.2394 53.24 19.9094 53.96C22.9694 57.41 27.8694 62.24 33.8994 65.69L34.4994 66.03L35.1094 65.7C41.4094 62.3 46.2594 58.53 50.3494 53.87C51.1194 54.23 51.9694 54.44 52.8794 54.44C55.6294 54.44 57.9694 52.56 58.6394 49.99H59.9894C60.2194 50.03 60.4694 50.05 60.7194 50.05C62.4494 50.05 64.6194 49.11 65.2194 46.23C65.9294 42.79 66.1494 40.44 66.1594 40.34C66.3094 38.67 65.5994 36.69 63.6694 36.3L63.6894 36.31ZM10.0794 16.54C21.1394 16.02 31.6994 8.45 34.6194 6.19C37.6794 8.43 48.9494 16.08 60.7094 16.55C60.9394 19.32 61.2594 27.14 58.6694 35.54C55.8794 35.14 52.8194 34.73 51.7794 34.59L41.2594 26.02C40.7894 25.48 39.6194 24.8 36.7494 24.73H20.7994C19.9594 24.67 18.3394 25.03 17.0994 26.74L12.7394 33.72L11.8094 34C9.94943 26.43 9.96943 19.25 10.0594 16.55L10.0794 16.54ZM22.2394 51.94C20.4094 51.94 18.8894 50.5 18.7894 48.67V48.48C18.7794 46.57 20.3294 45.02 22.2394 45.02C24.1494 45.02 25.6994 46.57 25.6994 48.48C25.6994 48.49 25.6994 48.5 25.6994 48.51C25.6994 48.53 25.6894 48.55 25.6894 48.57C25.6894 48.57 25.6894 48.66 25.6894 48.67C25.5894 50.5 24.0694 51.94 22.2394 51.94ZM34.5394 63.17C30.1294 60.54 26.3794 57.17 23.6094 54.28C25.7394 53.78 27.4494 52.13 27.9994 50H47.1194C47.3494 50.89 47.7794 51.69 48.3594 52.36C44.6294 56.58 40.2094 60.04 34.5394 63.17ZM56.3394 48.58C56.3394 48.58 56.3394 48.65 56.3394 48.68C56.2394 50.51 54.7194 51.95 52.8894 51.95C51.0594 51.95 49.5394 50.51 49.4394 48.68C49.4394 48.65 49.4194 48.63 49.4194 48.61H49.4394V48.49C49.4394 46.58 50.9894 45.03 52.8994 45.03C54.8094 45.03 56.3594 46.58 56.3594 48.49C56.3594 48.49 56.3594 48.5 56.3594 48.51C56.3594 48.54 56.3594 48.56 56.3594 48.59L56.3394 48.58ZM63.6794 40.12C63.6794 40.12 63.4594 42.44 62.7794 45.73C62.3594 47.72 60.7994 47.6 60.3494 47.52C60.2694 47.5 60.1894 47.5 60.0994 47.5H58.7494C58.2794 44.68 55.8294 42.53 52.8794 42.53C49.9294 42.53 47.4794 44.69 47.0094 47.5H28.1194C27.6494 44.68 25.1994 42.53 22.2494 42.53C19.2994 42.53 16.8494 44.69 16.3794 47.5H9.73943C7.95943 47.5 7.42943 45.37 7.42943 45.37L6.50943 39.37C6.37943 38.34 7.32943 37.95 7.61943 37.86L13.9294 35.98C14.2194 35.89 14.4694 35.7 14.6294 35.44L19.1894 28.14C19.8494 27.24 20.5994 27.24 20.6394 27.23C20.6794 27.23 20.7194 27.23 20.7594 27.23H36.7294C38.6394 27.27 39.2994 27.63 39.4194 27.71C39.4694 27.77 39.5294 27.82 39.5894 27.87L50.4794 36.75C50.6594 36.9 50.8694 36.99 51.0994 37.02C51.1994 37.03 61.5294 38.42 63.1794 38.76C63.7394 38.87 63.6794 40.12 63.6794 40.12ZM42.9594 36.63C42.9594 37.32 42.3994 37.88 41.7094 37.88H20.7694C20.0794 37.88 19.5194 37.32 19.5194 36.63C19.5194 35.94 20.0794 35.38 20.7694 35.38H41.7094C42.3994 35.38 42.9594 35.94 42.9594 36.63Z" fill="#193A56"/>
</svg>
