<svg width="41" height="40" viewBox="0 0 41 40" fill="none" xmlns="http://www.w3.org/2000/svg">
<path d="M31.63 17.42C31.29 16.37 30.62 15.83 29.64 15.81H17.88C16.9 15.82 16.24 16.36 15.91 17.38L13.85 22.85H33.67L31.63 17.42ZM16.02 21.35L17.33 17.88C17.5 17.34 17.66 17.32 17.9 17.31H29.63C29.88 17.31 30.03 17.34 30.22 17.91L31.51 21.35H16.02ZM35.47 21.49L33.41 16.22C32.79 14.64 31.45 13.77 29.63 13.76H17.89C17.67 13.76 17.46 13.78 17.26 13.8V10.75C17.26 10.12 16.92 9.55 16.38 9.25C16.13 9.11 15.44 9.02 14.58 8.96V5.45H17.33V3.95H14.28C13.89 2.98 13.11 2 11.67 2H9.18V2.02C7.73 2.02 6.95 2.99 6.56 3.97H3.5V5.47H6.25V8.98C5.39 9.04 4.7 9.13 4.45 9.27C3.91 9.57 3.57 10.15 3.57 10.77V14.49V17.2C3.72 18.64 4.76 21.29 7.62 21.61V23.05C7.62 23.86 8.28 24.51 9.08 24.51H9.45C9.41 24.73 9.39 24.96 9.39 25.2V33.12H11.56V34.64C11.56 35.72 12.05 36.62 12.9 37.12C13.78 37.63 14.92 37.63 15.8 37.12C16.66 36.62 17.16 35.72 17.16 34.65V33.13H30.36V34.65C30.36 35.72 30.85 36.63 31.72 37.12C32.16 37.38 32.67 37.5 33.17 37.5C33.67 37.5 34.18 37.37 34.62 37.12C35.48 36.62 35.96 35.72 35.96 34.65V33.13H38.13V25.21C38.13 23.14 36.68 21.87 35.47 21.49ZM9.17 3.52H11.66V3.5C12.9 3.5 13.08 5.23 13.08 5.23V8.89C11.62 8.85 10.09 8.86 9.37 8.87C8.85 8.87 8.29 8.89 7.74 8.9V5.32C7.74 5.25 7.92 3.52 9.16 3.52H9.17ZM7.63 16.96V20.08C5.39 19.71 5.08 17.16 5.08 17.11V10.77C5.08 10.69 5.12 10.61 5.12 10.61C5.5 10.49 7.9 10.34 11.44 10.4V10.37C13.84 10.38 15.41 10.49 15.66 10.56C15.73 10.6 15.77 10.67 15.77 10.75V14.29C15.03 14.7 14.47 15.35 14.12 16.22L13.44 17.96V16.96C13.44 16.15 12.78 15.5 11.98 15.5H9.1C8.29 15.5 7.64 16.16 7.64 16.96H7.63ZM10.06 23.03L9.13 23.06L9.09 17L11.93 16.96V21.54C11.27 21.78 10.56 22.28 10.05 23.03H10.06ZM36.63 31.63H34.46V34.65C34.46 35.19 34.26 35.6 33.87 35.82C33.45 36.06 32.89 36.06 32.47 35.82C32.19 35.66 31.86 35.33 31.86 34.65V31.63H15.66V34.65C15.66 35.33 15.33 35.66 15.05 35.82C14.63 36.06 14.07 36.06 13.65 35.82C13.26 35.59 13.05 35.19 13.06 34.64V31.62H10.89V25.2C10.89 23.61 12.23 22.93 12.69 22.87L13.13 22.81L15.49 16.76C15.88 15.76 16.69 15.26 17.88 15.25H29.62C30.81 15.25 31.62 15.76 32.01 16.76L34.37 22.81L34.81 22.87C35.27 22.93 36.62 23.61 36.61 25.2V31.62L36.63 31.63ZM14.46 23.75H14.43C13.8 23.75 13.21 24 12.76 24.45C12.3 24.91 12.04 25.53 12.05 26.17C12.05 26.81 12.3 27.4 12.75 27.86C13.2 28.32 13.81 28.57 14.45 28.57C14.45 28.57 14.45 28.57 14.46 28.57C15.09 28.57 15.68 28.33 16.12 27.88C16.57 27.43 16.82 26.82 16.82 26.18C16.82 25.54 16.56 24.89 16.1 24.44C15.66 24 15.08 23.76 14.46 23.76V23.75ZM15.41 27.17C15.16 27.42 14.81 27.57 14.45 27.57C14.07 27.57 13.72 27.42 13.46 27.16C13.2 26.9 13.06 26.55 13.06 26.18C13.06 25.8 13.21 25.44 13.48 25.17C13.74 24.91 14.09 24.76 14.45 24.76H14.47C14.84 24.79 15.16 24.9 15.41 25.15C15.68 25.42 15.83 25.79 15.83 26.18C15.83 26.57 15.69 26.91 15.42 27.17H15.41ZM33.09 23.75C32.44 23.78 31.88 23.99 31.43 24.43C30.97 24.88 30.71 25.52 30.71 26.17C30.71 26.82 30.96 27.42 31.41 27.87C31.85 28.31 32.45 28.56 33.07 28.56H33.08C33.72 28.56 34.33 28.31 34.78 27.85C35.23 27.4 35.48 26.8 35.48 26.17C35.48 25.52 35.23 24.91 34.77 24.45C34.31 24 33.72 23.76 33.09 23.75ZM34.49 26.17C34.49 26.54 34.35 26.88 34.09 27.14C33.82 27.41 33.47 27.55 33.09 27.55C32.73 27.55 32.39 27.41 32.13 27.15C31.87 26.89 31.72 26.53 31.72 26.16C31.72 25.79 31.88 25.39 32.14 25.13C32.4 24.88 32.72 24.76 33.09 24.74C33.44 24.74 33.8 24.88 34.07 25.15C34.34 25.42 34.49 25.78 34.49 26.16V26.17Z" fill="white"/>
</svg>
