<svg width="40" height="40" viewBox="0 0 40 40" fill="none" xmlns="http://www.w3.org/2000/svg">
<path d="M31.13 17.42C30.79 16.37 30.12 15.83 29.14 15.81H17.38C16.4 15.82 15.74 16.36 15.41 17.38L13.35 22.85H33.17L31.13 17.42ZM15.52 21.35L16.83 17.88C17 17.34 17.16 17.32 17.4 17.31H29.13C29.38 17.31 29.53 17.34 29.72 17.91L31.01 21.35H15.52ZM34.97 21.49L32.91 16.22C32.29 14.64 30.95 13.77 29.13 13.76H17.39C17.17 13.76 16.96 13.78 16.76 13.8V10.75C16.76 10.12 16.42 9.55 15.88 9.25C15.63 9.11 14.94 9.02 14.08 8.96V5.45H16.83V3.95H13.78C13.39 2.98 12.61 2 11.17 2H8.68V2.02C7.23 2.02 6.45 2.99 6.06 3.97H3V5.47H5.75V8.98C4.89 9.04 4.2 9.13 3.95 9.27C3.41 9.57 3.07 10.15 3.07 10.77V14.49V17.2C3.22 18.64 4.26 21.29 7.12 21.61V23.05C7.12 23.86 7.78 24.51 8.58 24.51H8.95C8.91 24.73 8.89 24.96 8.89 25.2V33.12H11.06V34.64C11.06 35.72 11.55 36.62 12.4 37.12C13.28 37.63 14.42 37.63 15.3 37.12C16.16 36.62 16.66 35.72 16.66 34.65V33.13H29.86V34.65C29.86 35.72 30.35 36.63 31.22 37.12C31.66 37.38 32.17 37.5 32.67 37.5C33.17 37.5 33.68 37.37 34.12 37.12C34.98 36.62 35.46 35.72 35.46 34.65V33.13H37.63V25.21C37.63 23.14 36.18 21.87 34.97 21.49ZM8.67 3.52H11.16V3.5C12.4 3.5 12.58 5.23 12.58 5.23V8.89C11.12 8.85 9.59 8.86 8.87 8.87C8.35 8.87 7.79 8.89 7.24 8.9V5.32C7.24 5.25 7.42 3.52 8.66 3.52H8.67ZM7.13 16.96V20.08C4.89 19.71 4.58 17.16 4.58 17.11V10.77C4.58 10.69 4.62 10.61 4.62 10.61C5 10.49 7.4 10.34 10.94 10.4V10.37C13.34 10.38 14.91 10.49 15.16 10.56C15.23 10.6 15.27 10.67 15.27 10.75V14.29C14.53 14.7 13.97 15.35 13.62 16.22L12.94 17.96V16.96C12.94 16.15 12.28 15.5 11.48 15.5H8.6C7.79 15.5 7.14 16.16 7.14 16.96H7.13ZM9.56 23.03L8.63 23.06L8.59 17L11.43 16.96V21.54C10.77 21.78 10.06 22.28 9.55 23.03H9.56ZM36.13 31.63H33.96V34.65C33.96 35.19 33.76 35.6 33.37 35.82C32.95 36.06 32.39 36.06 31.97 35.82C31.69 35.66 31.36 35.33 31.36 34.65V31.63H15.16V34.65C15.16 35.33 14.83 35.66 14.55 35.82C14.13 36.06 13.57 36.06 13.15 35.82C12.76 35.59 12.55 35.19 12.56 34.64V31.62H10.39V25.2C10.39 23.61 11.73 22.93 12.19 22.87L12.63 22.81L14.99 16.76C15.38 15.76 16.19 15.26 17.38 15.25H29.12C30.31 15.25 31.12 15.76 31.51 16.76L33.87 22.81L34.31 22.87C34.77 22.93 36.12 23.61 36.11 25.2V31.62L36.13 31.63ZM13.96 23.75H13.93C13.3 23.75 12.71 24 12.26 24.45C11.8 24.91 11.54 25.53 11.55 26.17C11.55 26.81 11.8 27.4 12.25 27.86C12.7 28.32 13.31 28.57 13.95 28.57C13.95 28.57 13.95 28.57 13.96 28.57C14.59 28.57 15.18 28.33 15.62 27.88C16.07 27.43 16.32 26.82 16.32 26.18C16.32 25.54 16.06 24.89 15.6 24.44C15.16 24 14.58 23.76 13.96 23.76V23.75ZM14.91 27.17C14.66 27.42 14.31 27.57 13.95 27.57C13.57 27.57 13.22 27.42 12.96 27.16C12.7 26.9 12.56 26.55 12.56 26.18C12.56 25.8 12.71 25.44 12.98 25.17C13.24 24.91 13.59 24.76 13.95 24.76H13.97C14.34 24.79 14.66 24.9 14.91 25.15C15.18 25.42 15.33 25.79 15.33 26.18C15.33 26.57 15.19 26.91 14.92 27.17H14.91ZM32.59 23.75C31.94 23.78 31.38 23.99 30.93 24.43C30.47 24.88 30.21 25.52 30.21 26.17C30.21 26.82 30.46 27.42 30.91 27.87C31.35 28.31 31.95 28.56 32.57 28.56H32.58C33.22 28.56 33.83 28.31 34.28 27.85C34.73 27.4 34.98 26.8 34.98 26.17C34.98 25.52 34.73 24.91 34.27 24.45C33.81 24 33.22 23.76 32.59 23.75ZM33.99 26.17C33.99 26.54 33.85 26.88 33.59 27.14C33.32 27.41 32.97 27.55 32.59 27.55C32.23 27.55 31.89 27.41 31.63 27.15C31.37 26.89 31.22 26.53 31.22 26.16C31.22 25.79 31.38 25.39 31.64 25.13C31.9 24.88 32.22 24.76 32.59 24.74C32.94 24.74 33.3 24.88 33.57 25.15C33.84 25.42 33.99 25.78 33.99 26.16V26.17Z" fill="#193A56"/>
</svg>
