<svg xmlns="http://www.w3.org/2000/svg" width="40" height="40" viewBox="0 0 40 40">
    <g fill="none" fill-rule="evenodd">
        <g>
            <g transform="translate(-700 -388) translate(700 388)">
                <circle cx="20" cy="20" r="20" fill="#8BC94D"/>
                <path fill="#FFF" d="M29.608 11.476L17.496 23.972 12.581 18.9c-1.024-1.058-2.712-1.085-3.77-.061-1.056 1.024-1.086 2.712-.059 3.77l6.837 7.062c.024.021.03.043.046.056.237.232.512.395.8.52.373.163.714.232 1.056.232.682.003 1.352-.248 1.869-.75.019-.018.024-.042.043-.06l14.034-14.48c1.027-1.057 1-2.745-.058-3.771-1.056-1.022-2.744-1-3.771.058z"/>
            </g>
        </g>
    </g>
</svg>