<svg width="40" height="40" viewBox="0 0 40 40" fill="none" xmlns="http://www.w3.org/2000/svg">
<path d="M35.4802 8.35C35.4802 7.07 35.0802 6.13 34.2902 5.56C33.5202 5 32.5802 4.96 31.8802 5.04V4.75C31.8802 4.34 31.5402 4 31.1302 4C30.7202 4 30.3802 4.34 30.3802 4.75V7.15C30.3802 7.56 30.7202 7.9 31.1302 7.9C31.5402 7.9 31.8802 7.56 31.8802 7.15V6.55C32.3502 6.48 32.9902 6.47 33.4102 6.78C33.7902 7.05 33.9802 7.58 33.9802 8.35C33.9802 12.23 31.7102 21.99 26.3302 21.99C20.9502 21.99 18.6902 12.23 18.6902 8.35C18.6902 7.58 18.8802 7.05 19.2502 6.78C19.4002 6.67 19.5802 6.6 19.7802 6.56C20.1202 6.49 20.4802 6.51 20.7902 6.56V7.16C20.7902 7.57 21.1302 7.91 21.5402 7.91C21.9502 7.91 22.2902 7.57 22.2902 7.16V4.75C22.2902 4.34 21.9502 4 21.5402 4C21.1302 4 20.7902 4.34 20.7902 4.75V5.04C20.0902 4.96 19.1502 5 18.3802 5.56C17.5902 6.13 17.1902 7.07 17.1902 8.35C17.1902 11.3 18.4902 18.51 22.1502 21.8L22.0502 21.84L25.5802 29.78C25.5602 31.83 23.8902 33.49 21.8402 33.49C19.7902 33.49 18.0902 31.81 18.0902 29.74V24.12C18.0902 21.23 15.7402 18.87 12.8402 18.87C9.94023 18.87 7.59023 21.22 7.59023 24.12V26.86C5.55023 27.22 3.99023 28.99 3.99023 31.13C3.99023 33.53 5.94023 35.48 8.34023 35.48C10.7402 35.48 12.6902 33.53 12.6902 31.13C12.6902 28.99 11.1302 27.22 9.09023 26.86V24.12C9.09023 22.05 10.7702 20.37 12.8402 20.37C14.9102 20.37 16.5902 22.05 16.5902 24.12V29.74C16.5902 32.63 18.9402 34.99 21.8402 34.99C24.7402 34.99 27.0502 32.67 27.0802 29.8L30.6202 21.84L30.5202 21.8C34.1702 18.51 35.4802 11.3 35.4802 8.35ZM11.2002 31.13C11.2002 32.7 9.92023 33.98 8.35023 33.98C6.78023 33.98 5.50023 32.7 5.50023 31.13C5.50023 29.56 6.78023 28.28 8.35023 28.28C9.92023 28.28 11.2002 29.56 11.2002 31.13ZM26.3402 27.78L24.2602 23.1C24.9002 23.34 25.5902 23.48 26.3402 23.48C27.0902 23.48 27.7802 23.34 28.4202 23.1L26.3402 27.78ZM6.80023 31.13C6.80023 31.98 7.49023 32.67 8.34023 32.67C9.19023 32.67 9.88023 31.98 9.88023 31.13C9.88023 30.28 9.19023 29.59 8.34023 29.59C7.49023 29.59 6.80023 30.28 6.80023 31.13ZM8.89023 31.13C8.89023 31.43 8.65023 31.67 8.35023 31.67C8.05023 31.67 7.81023 31.43 7.81023 31.13C7.81023 30.83 8.05023 30.59 8.35023 30.59C8.65023 30.59 8.89023 30.83 8.89023 31.13Z" fill="#193A56"/>
</svg>
