<svg width="32" height="32" viewBox="0 0 32 32" fill="none" xmlns="http://www.w3.org/2000/svg">
<path d="M28.3844 6.68C28.3844 5.656 28.0644 4.904 27.4324 4.448C26.8164 4 26.0644 3.968 25.5044 4.032V3.8C25.5044 3.472 25.2324 3.2 24.9044 3.2C24.5764 3.2 24.3044 3.472 24.3044 3.8V5.72C24.3044 6.048 24.5764 6.32 24.9044 6.32C25.2324 6.32 25.5044 6.048 25.5044 5.72V5.24C25.8804 5.184 26.3924 5.176 26.7284 5.424C27.0324 5.64 27.1844 6.064 27.1844 6.68C27.1844 9.784 25.3684 17.592 21.0644 17.592C16.7604 17.592 14.9524 9.784 14.9524 6.68C14.9524 6.064 15.1044 5.64 15.4004 5.424C15.5204 5.336 15.6644 5.28 15.8244 5.248C16.0964 5.192 16.3844 5.208 16.6324 5.248V5.728C16.6324 6.056 16.9044 6.328 17.2324 6.328C17.5604 6.328 17.8324 6.056 17.8324 5.728V3.8C17.8324 3.472 17.5604 3.2 17.2324 3.2C16.9044 3.2 16.6324 3.472 16.6324 3.8V4.032C16.0724 3.968 15.3204 4 14.7044 4.448C14.0724 4.904 13.7524 5.656 13.7524 6.68C13.7524 9.04 14.7924 14.808 17.7204 17.44L17.6404 17.472L20.4644 23.824C20.4484 25.464 19.1124 26.792 17.4724 26.792C15.8324 26.792 14.4724 25.448 14.4724 23.792V19.296C14.4724 16.984 12.5924 15.096 10.2724 15.096C7.95238 15.096 6.07238 16.976 6.07238 19.296V21.488C4.44038 21.776 3.19238 23.192 3.19238 24.904C3.19238 26.824 4.75238 28.384 6.67238 28.384C8.59238 28.384 10.1524 26.824 10.1524 24.904C10.1524 23.192 8.90438 21.776 7.27238 21.488V19.296C7.27238 17.64 8.61638 16.296 10.2724 16.296C11.9284 16.296 13.2724 17.64 13.2724 19.296V23.792C13.2724 26.104 15.1524 27.992 17.4724 27.992C19.7924 27.992 21.6404 26.136 21.6644 23.84L24.4964 17.472L24.4164 17.44C27.3364 14.808 28.3844 9.04 28.3844 6.68ZM8.96038 24.904C8.96038 26.16 7.93638 27.184 6.68038 27.184C5.42438 27.184 4.40038 26.16 4.40038 24.904C4.40038 23.648 5.42438 22.624 6.68038 22.624C7.93638 22.624 8.96038 23.648 8.96038 24.904ZM21.0724 22.224L19.4084 18.48C19.9204 18.672 20.4724 18.784 21.0724 18.784C21.6724 18.784 22.2244 18.672 22.7364 18.48L21.0724 22.224ZM5.44038 24.904C5.44038 25.584 5.99238 26.136 6.67238 26.136C7.35238 26.136 7.90438 25.584 7.90438 24.904C7.90438 24.224 7.35238 23.672 6.67238 23.672C5.99238 23.672 5.44038 24.224 5.44038 24.904ZM7.11238 24.904C7.11238 25.144 6.92038 25.336 6.68038 25.336C6.44038 25.336 6.24838 25.144 6.24838 24.904C6.24838 24.664 6.44038 24.472 6.68038 24.472C6.92038 24.472 7.11238 24.664 7.11238 24.904Z" fill="white"/>
</svg>
