<svg width="40" height="40" viewBox="0 0 40 40" fill="none" xmlns="http://www.w3.org/2000/svg">
    <path d="M35.085 25.495c0-.58-.19-1.12-.51-1.555a2.629 2.629 0 0 0 1.19-2.195c0-.915-.475-1.725-1.19-2.195a2.628 2.628 0 0 0-2.115-4.18h-5.575c.01-.035.025-.075.04-.12.235-.67.78-2.465.72-4.445-.03-1-.215-1.91-.55-2.705-.945-2.265-2.54-2.15-3.005-2.065-1.1.21-1.95 1.225-1.975 2.37v.125c-.04 1.245-.335 4.275-2.19 5.545-1.125.77-2.005 1.715-2.845 2.64a2.094 2.094 0 0 0-1.575-.73H4.9a.75.75 0 0 0-.75.74L4 30.905c0 .025 0 .05.005.075 0 .025 0 .045.005.07 0 .025.015.05.02.075.005.02.01.045.02.065.01.025.02.045.035.07l.03.06.045.06c.015.02.03.04.045.055s.035.03.055.045c.02.015.035.035.055.045.02.015.04.025.06.035.02.015.045.025.065.035.02.01.045.015.065.025.025.01.05.02.075.025.025.005.045.005.07.01.025.005.045.01.07.01l6.65.205h4.125s.045-.005.07-.005c.115 0 .235-.01.345-.035.045-.01.085-.03.13-.04.09-.025.175-.045.26-.08.055-.025.11-.06.16-.085.065-.035.13-.065.195-.105.225-.155.42-.35.575-.575.035-.05.055-.105.085-.155.035-.065.08-.13.105-.2v-.01h.03c.15.02.305.05.46.085.035.01.07.015.105.025.14.035.285.07.425.11l.055.015c.16.045.325.095.485.15.045.015.09.03.13.045.155.05.31.1.465.155 1.04.35 2.115.71 3.235.71h8.98a2.628 2.628 0 0 0 2.1-4.2c.7-.47 1.16-1.27 1.16-2.18h.035zM16.1 29.78a.565.565 0 0 1-.175.415.612.612 0 0 1-.19.13c-.045.02-.095.02-.145.03-.025 0-.055.015-.08.015h-4.105l-5.895-.185.135-12.705h9.86c.325 0 .595.265.595.595V29.78zm17.035-6.91h-.675a.749.749 0 1 0 0 1.5c.62 0 1.125.505 1.125 1.125s-.505 1.125-1.125 1.125h-.635a.749.749 0 1 0 0 1.5c.62 0 1.125.505 1.125 1.125s-.505 1.125-1.125 1.125h-8.98c-.875 0-1.79-.305-2.76-.63-.17-.055-.34-.115-.51-.17l-.145-.045c-.18-.06-.365-.115-.55-.17l-.065-.015c-.165-.045-.33-.09-.5-.125l-.13-.03a7.184 7.184 0 0 0-.555-.1c-.01 0-.025 0-.035-.005V18.37c.15-.16.295-.325.44-.485.865-.955 1.685-1.86 2.73-2.575 2.335-1.595 2.785-4.905 2.84-6.735V8.43c.015-.435.345-.84.755-.915.505-.1.995.33 1.345 1.165.26.62.405 1.35.43 2.165.03 1.045-.14 2.05-.32 2.8-.165.695-.345 1.175-.38 1.275-.03.085-.05.155-.075.23-.135.43-.135.725.015 1.07.01.02.02.045.03.08.085.33.385.56.725.56h6.315c.62 0 1.125.505 1.125 1.125s-.505 1.125-1.125 1.125a.749.749 0 1 0 0 1.5h.675c.62 0 1.125.505 1.125 1.125s-.505 1.125-1.125 1.125l.015.01z" fill="#193A56"/>
</svg>
