<svg width="40" height="40" viewBox="0 0 40 40" fill="none" xmlns="http://www.w3.org/2000/svg">
<path d="M32.29 18.42L32.01 18.18C32.93 17.18 33.5 15.84 33.5 14.37C33.5 11.31 31.04 8.81 28 8.73C28 8.73 27.95 8.73 27.93 8.73C27.91 8.73 27.88 8.73 27.86 8.73C24.81 8.81 22.36 11.31 22.36 14.37C22.36 15.02 22.48 15.65 22.68 16.23C21.97 15.55 21.02 15.13 19.98 15.08V15.06C19.98 15.06 19.91 15.06 19.88 15.07C19.85 15.07 19.81 15.06 19.78 15.06V15.08C18.92 15.12 18.14 15.41 17.49 15.89C17.96 15.04 18.22 14.06 18.22 13.02C18.21 9.73 15.54 7.04 12.24 7C12.24 7 12.22 7 12.21 7C12.2 7 12.19 7 12.18 7C8.88 7.04 6.21 9.73 6.21 13.03C6.21 14.62 6.84 16.07 7.85 17.15L7.62 17.35L7.49 17.44C5.46 18.84 4 19.86 4 21.43V32.16H35.54V22.16C35.54 20.67 34.1 19.68 32.28 18.41L32.29 18.42ZM27.92 10.24C30.17 10.28 31.99 12.12 31.99 14.38C31.99 16.64 30.17 18.48 27.92 18.52C25.67 18.48 23.85 16.64 23.85 14.38C23.85 12.12 25.67 10.28 27.92 10.24ZM23.84 18.19H23.83C23.83 18.19 23.83 18.18 23.82 18.16C23.82 18.16 23.84 18.18 23.84 18.19ZM23.94 30.64H15.79V24.83C15.79 24.45 16.69 23.83 17.55 23.23L17.88 22.96C18.44 23.28 19.08 23.48 19.76 23.51V23.53C19.76 23.53 19.83 23.53 19.86 23.52C19.89 23.52 19.93 23.53 19.96 23.53V23.51C20.64 23.48 21.28 23.28 21.84 22.96L22.09 23.17L22.17 23.23C23.04 23.83 23.93 24.45 23.93 24.84V30.65L23.94 30.64ZM19.86 16.58C21.31 16.63 22.48 17.83 22.48 19.29C22.48 20.75 21.31 21.95 19.86 22C18.41 21.95 17.24 20.75 17.24 19.29C17.24 17.83 18.41 16.63 19.86 16.58ZM12.21 8.5C14.69 8.52 16.71 10.54 16.71 13.03C16.71 15.52 14.7 17.54 12.21 17.56C9.73 17.54 7.71 15.52 7.71 13.03C7.71 10.54 9.73 8.52 12.21 8.5ZM12.02 30.66H5.5V21.43C5.5 20.64 6.76 19.77 8.35 18.67L9.02 18.11C9.94 18.69 11.02 19.04 12.18 19.05C12.18 19.05 12.2 19.05 12.21 19.05C12.22 19.05 12.23 19.05 12.24 19.05C13.4 19.03 14.48 18.69 15.4 18.11L15.83 18.48C15.78 18.74 15.75 19 15.75 19.28C15.75 20.3 16.13 21.22 16.73 21.95L16.7 21.97C15.36 22.9 14.29 23.64 14.29 24.81V30.65H12.01L12.02 30.66ZM27.71 30.66H25.45V24.82C25.45 23.65 24.39 22.91 23.04 21.98L23.02 21.96C23.45 21.43 23.78 20.81 23.92 20.11L25.02 19.15C25.85 19.67 26.82 19.98 27.86 20C27.86 20 27.91 20 27.93 20C27.95 20 27.98 20 28 20C29.04 19.97 30.01 19.66 30.84 19.14L31.32 19.55L31.44 19.63C32.9 20.64 34.05 21.44 34.05 22.14V30.64H27.71V30.66Z" fill="#193A56"/>
</svg>
