<svg width="20" height="21" viewBox="0 0 20 21" fill="none" xmlns="http://www.w3.org/2000/svg">
<circle cx="10" cy="10.5" r="10" fill="#38C661"/>
<path fill-rule="evenodd" clip-rule="evenodd" d="M12.7272 7.26695L8.84252 11.3871L7.26625 9.71477C6.93782 9.36571 6.39643 9.35691 6.05688 9.69454C5.71819 10.0322 5.70879 10.5887 6.03807 10.9378L8.231 13.266C8.2387 13.2731 8.24041 13.2801 8.24554 13.2845C8.32166 13.361 8.40975 13.4146 8.50212 13.456C8.62186 13.5096 8.73134 13.5325 8.84081 13.5325C9.05976 13.5333 9.27444 13.4507 9.44036 13.2854C9.44635 13.2792 9.44806 13.2713 9.45404 13.2652L13.9554 8.49086C14.2846 8.14268 14.2761 7.58611 13.9366 7.2476C13.5979 6.91085 13.0565 6.91789 12.7272 7.26695Z" fill="white"/>
</svg>
