<svg width="40" height="40" viewBox="0 0 40 40" fill="none" xmlns="http://www.w3.org/2000/svg">
<path d="M17.15 17.24C16.07 17.13 14.96 17.49 14.05 18.25C13.11 19.03 12.45 20.18 12.36 21.18C12.14 23.83 14.06 25.26 16.5 27.08C18.77 28.78 19.91 30.52 19.92 30.54L20.35 31.21L20.77 30.53C20.77 30.53 21.87 28.77 24.14 27.08C26.58 25.26 28.5 23.82 28.28 21.18C28.2 20.18 27.53 19.03 26.59 18.25C25.67 17.49 24.57 17.13 23.49 17.24C21.79 17.41 20.85 18.33 20.32 19.24C19.79 18.34 18.85 17.41 17.15 17.24ZM20.8 20.65C21.09 19.65 21.81 18.42 23.59 18.24C24.64 18.13 25.45 18.61 25.95 19.03C26.68 19.64 27.22 20.54 27.28 21.27C27.45 23.26 26.04 24.42 23.54 26.29C21.92 27.5 20.87 28.72 20.34 29.42C19.8 28.72 18.73 27.5 17.1 26.29C14.6 24.42 13.19 23.27 13.36 21.27C13.42 20.54 13.96 19.63 14.69 19.03C15.14 18.65 15.85 18.23 16.76 18.23C16.86 18.23 16.95 18.23 17.05 18.25C18.82 18.43 19.55 19.66 19.84 20.66L20.32 22.3L20.8 20.66V20.65ZM20.46 5L4 21.46L5.06 22.52L8.19 19.39V34.26H32.73V19.39L35.86 22.52L36.92 21.46L20.46 5ZM31.23 32.76H9.69V17.89L20.46 7.12L31.23 17.89V32.76Z" fill="white"/>
</svg>
