<svg width="40" height="40" viewBox="0 0 40 40" fill="none" xmlns="http://www.w3.org/2000/svg">
<path fill-rule="evenodd" clip-rule="evenodd" d="M29.1443 9.18852C21.9325 7.12373 18.0142 3.95585 16.693 2.72353C15.1954 3.91253 10.658 7.17059 3.5749 9.25234C4.86247 17.7694 7.79117 23.1987 10.553 26.497C11.9661 28.1846 13.3379 29.3173 14.4295 30.0226C14.976 30.3757 15.4465 30.6181 15.8114 30.7695C15.9939 30.8453 16.1437 30.8957 16.2586 30.9262C16.3157 30.9414 16.3604 30.9507 16.3934 30.9559C16.4177 30.9598 16.4318 30.9609 16.4368 30.9612L16.4388 30.961C16.4482 30.9598 16.4863 30.9549 16.5563 30.9351C16.6404 30.9112 16.7455 30.8728 16.8612 30.8189C17.0806 30.7168 17.301 30.5765 17.4708 30.4173C17.3187 29.706 17.2386 28.968 17.2386 28.2113C17.2386 22.6182 21.6118 18.0465 27.1254 17.729C28.1108 15.2867 28.7272 12.7997 29.3377 9.4823C29.3596 9.36341 29.2861 9.22913 29.1443 9.18852ZM28.7257 17.7571C29.6439 15.3521 30.2369 12.884 30.813 9.75381C30.9794 8.84933 30.4156 7.99225 29.5571 7.74646C21.5219 5.4459 17.8089 1.74957 17.3477 1.26508C17.0335 0.934957 16.5206 0.910473 16.1762 1.20682C15.5838 1.71662 10.8002 5.67569 2.62159 7.96537C2.20598 8.08172 1.94983 8.48824 2.00827 8.90409C3.28566 17.9939 6.38499 23.8559 9.40298 27.46C10.9097 29.2594 12.3938 30.4931 13.6154 31.2825C14.2255 31.6767 14.7758 31.9638 15.2363 32.1549C15.6712 32.3354 16.0986 32.4613 16.4386 32.4613C16.7687 32.4613 17.1612 32.3339 17.4944 32.1787C17.6333 32.1141 17.7782 32.037 17.9228 31.9475C19.4288 35.9019 23.2556 38.7113 27.7386 38.7113C33.5376 38.7113 38.2386 34.0103 38.2386 28.2113C38.2386 22.7452 34.0618 18.2547 28.7257 17.7571ZM36.7386 28.2113C36.7386 33.1819 32.7092 37.2113 27.7386 37.2113C22.7681 37.2113 18.7386 33.1819 18.7386 28.2113C18.7386 23.2408 22.7681 19.2113 27.7386 19.2113C32.7092 19.2113 36.7386 23.2408 36.7386 28.2113Z" fill="#193A56"/>
<path d="M23.7383 27.7109L26.6676 30.6402C26.7066 30.6793 26.7699 30.6793 26.809 30.6402L31.2383 26.2109" stroke="#193A56" stroke-width="1.5" stroke-linecap="round"/>
</svg>
