<svg width="40" height="40" viewBox="0 0 40 40" fill="none" xmlns="http://www.w3.org/2000/svg">
<path fill-rule="evenodd" clip-rule="evenodd" d="M32.4803 23.4504L29.0303 20.0004L32.4803 16.5504C32.5403 16.4904 32.5903 16.4104 32.6303 16.3304C34.6303 13.7904 34.4203 10.1904 32.1203 7.88039C29.8203 5.58039 26.2203 5.37039 23.6803 7.36039C23.6003 7.40039 23.5203 7.45039 23.4603 7.51039L20.0103 10.9604L18.7803 9.73039L16.5603 7.51039C16.5003 7.45039 16.4203 7.40039 16.3403 7.36039C13.7803 5.37039 10.1903 5.58039 7.88026 7.88039C5.58026 10.1804 5.37026 13.7804 7.36026 16.3204C7.40026 16.4004 7.45026 16.4804 7.52026 16.5504L9.74026 18.7704L10.9703 20.0004L7.52026 23.4504C7.46026 23.5104 7.41026 23.5904 7.37026 23.6704C5.37026 26.2104 5.57026 29.8104 7.88026 32.1204C9.13026 33.3704 10.7603 34.0004 12.3903 34.0004C13.7703 34.0004 15.1503 33.5504 16.3203 32.6404C16.4003 32.6004 16.4803 32.5504 16.5503 32.4804L20.0003 29.0304L23.4503 32.4804C23.5103 32.5404 23.5803 32.5904 23.6603 32.6204C24.8303 33.5404 26.2203 34.0004 27.6103 34.0004C29.2403 34.0004 30.8703 33.3704 32.1203 32.1204C34.4203 29.8204 34.6303 26.2304 32.6403 23.6804C32.6003 23.6004 32.5503 23.5204 32.4803 23.4504ZM24.3803 8.72039C24.3803 8.72039 24.4503 8.67039 24.4803 8.65039C26.4303 7.02039 29.2603 7.15039 31.0603 8.95039C32.8603 10.7504 32.9903 13.5704 31.3603 15.5304C31.3303 15.5604 31.3103 15.6004 31.2803 15.6404L27.9703 18.9504L24.5403 15.5204L21.0703 12.0504L24.3903 8.73039L24.3803 8.72039ZM10.2703 17.1804L8.71026 15.6204C8.71026 15.6204 8.66026 15.5504 8.64026 15.5104C7.01026 13.5604 7.14026 10.7304 8.94026 8.93039C10.7403 7.13039 13.5603 7.00039 15.5203 8.63039C15.5503 8.66039 15.5903 8.68039 15.6203 8.70039L17.1803 10.2604L10.2703 17.1704V17.1804ZM15.6203 31.2804C15.6203 31.2804 15.5503 31.3304 15.5103 31.3504C13.5603 32.9804 10.7303 32.8504 8.93026 31.0504C7.13026 29.2504 7.00026 26.4304 8.63026 24.4704C8.66026 24.4404 8.68026 24.4004 8.70026 24.3604L12.0203 21.0404L18.9303 27.9504L15.6103 31.2604L15.6203 31.2804ZM12.5603 19.4704L11.3303 18.2404L18.2403 11.3304L19.4703 12.5604L23.4803 16.5704L28.7703 21.8604L21.8603 28.7704L12.5603 19.4704ZM31.0603 31.0604C29.2603 32.8604 26.4403 32.9904 24.4803 31.3604C24.4503 31.3304 24.4103 31.3104 24.3803 31.2904L22.9203 29.8304L29.8303 22.9204L31.2803 24.3704C31.2803 24.3704 31.3303 24.4404 31.3603 24.4804C32.9903 26.4304 32.8603 29.2604 31.0603 31.0604ZM22.1703 23.5904C22.5603 23.9804 22.5603 24.6204 22.1703 25.0004C21.7803 25.3804 21.1403 25.3904 20.7603 25.0004C20.3803 24.6104 20.3703 23.9704 20.7603 23.5904C21.1503 23.2004 21.7903 23.2004 22.1703 23.5904ZM19.3403 20.7604C19.7303 21.1504 19.7303 21.7904 19.3403 22.1704C18.9503 22.5604 18.3103 22.5604 17.9303 22.1704C17.5503 21.7804 17.5403 21.1404 17.9303 20.7604C18.3203 20.3704 18.9603 20.3704 19.3403 20.7604ZM16.5103 17.9304C16.9003 18.3204 16.9003 18.9604 16.5103 19.3404C16.1203 19.7204 15.4803 19.7304 15.1003 19.3404C14.7203 18.9504 14.7103 18.3104 15.1003 17.9304C15.4903 17.5404 16.1303 17.5404 16.5103 17.9304ZM25.0003 22.1704C24.6103 22.5604 23.9703 22.5604 23.5903 22.1704C23.2003 21.7804 23.2003 21.1404 23.5903 20.7604C23.9803 20.3704 24.6203 20.3704 25.0003 20.7604C25.3903 21.1504 25.3903 21.7904 25.0003 22.1704ZM22.1703 17.9304C22.5603 18.3204 22.5603 18.9604 22.1703 19.3404C21.7803 19.7204 21.1403 19.7304 20.7603 19.3404C20.3803 18.9504 20.3703 18.3104 20.7603 17.9304C21.1503 17.5404 21.7903 17.5404 22.1703 17.9304ZM19.3403 15.1004C19.7303 15.4904 19.7303 16.1304 19.3403 16.5104C18.9503 16.9004 18.3103 16.9004 17.9303 16.5104C17.5503 16.1204 17.5403 15.4804 17.9303 15.1004C18.3203 14.7104 18.9603 14.7104 19.3403 15.1004Z" fill="white"/>
</svg>
