<svg width="24" height="24" viewBox="0 0 24 24" fill="none" xmlns="http://www.w3.org/2000/svg">
<path d="M12 2C6.49 2 2 6.49 2 12C2 17.51 6.49 22 12 22C17.51 22 22 17.51 22 12C22 6.49 17.51 2 12 2ZM12 20.6C7.26 20.6 3.4 16.74 3.4 12C3.4 7.26 7.26 3.4 12 3.4C16.74 3.4 20.6 7.26 20.6 12C20.6 16.74 16.74 20.6 12 20.6ZM10.22 7.15C10.22 6.27 10.9 5.58 11.79 5.58C12.68 5.58 13.36 6.28 13.36 7.15C13.36 8.02 12.67 8.72 11.79 8.72C10.91 8.72 10.22 8.04 10.22 7.15ZM13.78 15.76V17.9C13.78 17.9 13.43 17.97 13.02 17.97C11.6 17.97 10.47 17.24 10.47 15.64V9.56H13.1V15.27C13.1 15.58 13.25 15.77 13.78 15.77V15.76Z" fill="#193A56"/>
</svg>
