<svg width="20" height="20" viewBox="0 0 20 20" fill="none" xmlns="http://www.w3.org/2000/svg">
<g clip-path="url(#clip0_10065_105628)">
<g clip-path="url(#clip1_10065_105628)">
<path d="M17 8H18C18.2652 8 18.5196 8.10536 18.7071 8.29289C18.8946 8.48043 19 8.73478 19 9V19C19 19.2652 18.8946 19.5196 18.7071 19.7071C18.5196 19.8946 18.2652 20 18 20H2C1.73478 20 1.48043 19.8946 1.29289 19.7071C1.10536 19.5196 1 19.2652 1 19V9C1 8.73478 1.10536 8.48043 1.29289 8.29289C1.48043 8.10536 1.73478 8 2 8H3V7C3 6.08075 3.18106 5.1705 3.53284 4.32122C3.88463 3.47194 4.40024 2.70026 5.05025 2.05025C5.70026 1.40024 6.47194 0.884626 7.32122 0.532843C8.17049 0.18106 9.08075 0 10 0C10.9193 0 11.8295 0.18106 12.6788 0.532843C13.5281 0.884626 14.2997 1.40024 14.9497 2.05025C15.5998 2.70026 16.1154 3.47194 16.4672 4.32122C16.8189 5.1705 17 6.08075 17 7V8ZM15 8V7C15 5.67392 14.4732 4.40215 13.5355 3.46447C12.5979 2.52678 11.3261 2 10 2C8.67392 2 7.40215 2.52678 6.46447 3.46447C5.52678 4.40215 5 5.67392 5 7V8H15ZM9 12V16H11V12H9Z" fill="#193A56"/>
</g>
</g>
<defs>
<clipPath id="clip0_10065_105628">
<rect width="20" height="20" rx="4" fill="white"/>
</clipPath>
<clipPath id="clip1_10065_105628">
<rect width="24" height="24" fill="white" transform="translate(-2 -2)"/>
</clipPath>
</defs>
</svg>
