<svg width="40" height="40" viewBox="0 0 40 40" fill="none" xmlns="http://www.w3.org/2000/svg">
    <path d="M32.3 27.13c-.09 0-.18.02-.27.03 1.63-.93 3.65-.84 3.67-.83l.09-1.5c-.14 0-3.46-.18-5.61 1.83-.91.85-1.44 1.97-1.64 3.3-.03.11-.07.22-.1.34H15.25l-5.63-8.49 2.49-11.73h2.12v-1.5H8.45v1.5h2.13L6.96 27.13h-.04C4.76 27.13 3 28.89 3 31.05s1.76 3.92 3.92 3.92c1.91 0 3.49-1.37 3.85-3.17h17.68c.35 1.8 1.94 3.17 3.84 3.17 2.16 0 3.92-1.76 3.92-3.92s-1.76-3.92-3.92-3.92h.01zM6.92 33.47c-1.33 0-2.42-1.09-2.42-2.42 0-1.24.94-2.25 2.14-2.39l-.45 2.14 1.47.31.46-2.16c.73.42 1.23 1.19 1.23 2.09 0 1.33-1.09 2.42-2.42 2.42l-.01.01zm3.85-3.17a3.923 3.923 0 0 0-2.33-2.87l.76-3.57 4.27 6.44H10.77zm21.53 3.17c-1.07 0-1.97-.7-2.29-1.67h2.33v-1.5h-2.32v-.05c.33-.94 1.22-1.62 2.27-1.62 1.33 0 2.42 1.09 2.42 2.42 0 1.33-1.09 2.42-2.42 2.42h.01zm-5.24-13.95c.37 0 .71-.17.93-.47 1.67-2.29 4.47-6.47 4.47-8.67 0-2.97-2.42-5.38-5.4-5.38-2.98 0-5.4 2.41-5.4 5.38 0 2.2 2.8 6.38 4.47 8.67.22.3.56.47.93.47zm0-13.52c2.43 0 4.4 1.96 4.4 4.38 0 1.38-1.6 4.4-4.28 8.08-.08.11-.16.11-.24 0-2.68-3.68-4.28-6.7-4.28-8.08 0-2.41 1.97-4.38 4.4-4.38zm2.2 4.18c0-1.21-.99-2.19-2.2-2.19-1.21 0-2.2.98-2.2 2.19s.99 2.19 2.2 2.19c1.21 0 2.2-.98 2.2-2.19zm-3.39 0c0-.66.54-1.19 1.2-1.19.66 0 1.2.53 1.2 1.19 0 .66-.54 1.19-1.2 1.19-.66 0-1.2-.53-1.2-1.19z" fill="#193A56"/>
</svg>
