<svg width="24" height="24" viewBox="0 0 24 24" fill="none" xmlns="http://www.w3.org/2000/svg">
<path d="M20.0176 5.28006L18.7396 4.00206C18.2056 3.46806 17.3356 3.46806 16.7956 4.00206L15.0676 5.73006L5.48556 15.3121L3.60156 20.4181L8.70756 18.5341L18.2896 8.95206L20.0176 7.22406C20.2756 6.96606 20.4196 6.61806 20.4196 6.25206C20.4196 5.88606 20.2756 5.53806 20.0176 5.28006ZM8.20956 17.7601L6.52356 18.3841L5.63556 17.4961L6.25956 15.8101L15.4876 6.57606L17.4376 8.52606L8.20956 17.7601ZM19.3816 6.58806L17.8636 8.10606L15.9136 6.15606L17.4316 4.63806C17.6116 4.45806 17.9236 4.45806 18.0976 4.63806L19.3756 5.91606C19.4656 6.00606 19.5136 6.12606 19.5136 6.25206C19.5136 6.37806 19.4656 6.49806 19.3756 6.58806H19.3816Z" fill="white"/>
</svg>
