<svg width="40" height="40" viewBox="0 0 40 40" fill="none" xmlns="http://www.w3.org/2000/svg">
<path d="M31.2 29.94C31.2 29.94 31.2 29.87 31.2 29.84C31.13 29.4 29.5 18.96 22.78 17.29C22.63 17.25 22.48 17.23 22.32 17.21C22.28 17.21 22.24 17.19 22.2 17.19H18.06C17.72 17.19 17.41 17.22 17.13 17.3C10.41 18.98 8.78004 29.41 8.72004 29.85C8.72004 29.88 8.72004 29.92 8.72004 29.95C8.71004 30.28 8.63004 33.23 10.44 34.44C10.93 34.77 11.48 34.93 12.1 34.93C12.72 34.93 13.44 34.75 14.21 34.4C16.15 33.5 17.81 33.18 18.99 33.07C20.16 33 22.81 33.04 25.75 34.4C26.52 34.75 27.22 34.93 27.86 34.93C28.5 34.93 29.03 34.77 29.52 34.44C31.33 33.22 31.26 30.28 31.24 29.95L31.2 29.94ZM28.36 32.77C27.89 33.08 27.12 32.84 26.55 32.58C24.55 31.65 22.67 31.26 21.19 31.12C20.93 31.08 20.1 30.97 18.84 31.07C18.32 31.1 18.01 31.15 17.97 31.16C17.96 31.16 17.95 31.17 17.93 31.18C16.66 31.37 15.1 31.77 13.33 32.59C12.77 32.85 11.99 33.1 11.52 32.78C10.84 32.33 10.66 30.81 10.68 30.09C10.81 29.33 12.38 20.54 17.59 19.23C17.71 19.2 17.86 19.18 18.04 19.18H21.84C22.01 19.18 22.16 19.2 22.28 19.23C27.49 20.53 29.07 29.32 29.2 30.09C29.22 30.81 29.04 32.33 28.36 32.78V32.77Z" fill="#193a56"/>
<path d="M24.1202 14.77C24.0202 14.77 23.9102 14.77 23.8102 14.75C22.7402 14.64 21.7602 13.98 21.1302 12.94C20.5502 11.97 20.3002 10.76 20.4202 9.50999C20.5402 8.26999 21.0302 7.11999 21.7902 6.28999C22.6102 5.38999 23.7002 4.92999 24.7702 5.03999C26.9002 5.24999 28.4202 7.59999 28.1602 10.28C28.0402 11.52 27.5502 12.67 26.7902 13.5C26.0502 14.31 25.0902 14.76 24.1202 14.76V14.77ZM24.4602 7.02999C23.9102 7.02999 23.4802 7.40999 23.2702 7.63999C22.8102 8.14999 22.4902 8.89999 22.4102 9.70999C22.3302 10.52 22.4902 11.32 22.8402 11.91C23.0202 12.2 23.4002 12.7 24.0002 12.76C24.6002 12.82 25.0802 12.41 25.3102 12.15C25.7702 11.64 26.0902 10.89 26.1702 10.08C26.3202 8.52999 25.5902 7.12999 24.5702 7.02999C24.5302 7.02999 24.4902 7.02999 24.4502 7.02999H24.4602ZM30.1602 18.74C29.7802 18.74 29.4002 18.66 29.0502 18.5C28.2702 18.13 27.7102 17.38 27.5102 16.44C27.3402 15.59 27.4602 14.64 27.8702 13.78C28.2802 12.92 28.9202 12.21 29.6802 11.8C30.5302 11.34 31.4702 11.29 32.2502 11.66C33.0302 12.03 33.5902 12.78 33.7902 13.72C33.9602 14.57 33.8402 15.52 33.4302 16.38C33.0202 17.24 32.3802 17.95 31.6202 18.36C31.1502 18.61 30.6402 18.74 30.1602 18.74ZM31.1502 13.41C30.9502 13.41 30.7502 13.49 30.6402 13.56C30.2602 13.77 29.9102 14.15 29.6902 14.62C29.4702 15.09 29.3902 15.61 29.4802 16.03C29.5202 16.22 29.6302 16.55 29.9102 16.68C30.1902 16.81 30.5102 16.68 30.6802 16.59C31.0602 16.38 31.4102 16 31.6302 15.53C31.8502 15.06 31.9302 14.54 31.8402 14.12C31.8002 13.93 31.6902 13.6 31.4102 13.47C31.3302 13.43 31.2402 13.41 31.1502 13.41ZM15.7602 14.72C14.7902 14.72 13.8302 14.27 13.0902 13.46C12.3302 12.63 11.8402 11.48 11.7202 10.24C11.6002 8.99999 11.8502 7.77999 12.4302 6.80999C13.0502 5.77999 14.0202 5.11999 15.1002 5.00999C16.1702 4.90999 17.2602 5.35999 18.0802 6.25999C18.8402 7.08999 19.3302 8.23999 19.4502 9.47999C19.7202 12.16 18.2002 14.51 16.0602 14.72C15.9602 14.73 15.8502 14.74 15.7502 14.74L15.7602 14.72ZM15.4202 6.97999C15.4202 6.97999 15.3402 6.97999 15.3002 6.97999C14.7002 7.03999 14.3102 7.53999 14.1402 7.82999C13.7802 8.41999 13.6302 9.21999 13.7102 10.03C13.7902 10.84 14.1002 11.59 14.5702 12.1C14.8002 12.35 15.2602 12.77 15.8802 12.71C16.9002 12.61 17.6302 11.21 17.4702 9.65999C17.3902 8.84999 17.0802 8.09999 16.6102 7.58999C16.4002 7.34999 15.9702 6.97999 15.4202 6.97999ZM9.72022 18.71C9.23022 18.71 8.73022 18.58 8.26022 18.33C7.50022 17.92 6.85022 17.22 6.45022 16.35C5.54022 14.43 6.06022 12.36 7.62022 11.63C9.18022 10.9 11.1002 11.83 12.0002 13.75C12.9002 15.67 12.3802 17.74 10.8202 18.47C10.4702 18.63 10.1002 18.71 9.71022 18.71H9.72022ZM8.73022 13.38C8.63022 13.38 8.54022 13.4 8.47022 13.43C8.01022 13.64 7.82022 14.57 8.25022 15.49C8.47022 15.96 8.82022 16.35 9.20022 16.55C9.37022 16.64 9.69022 16.77 9.97022 16.64C10.4302 16.43 10.6202 15.5 10.1902 14.58C9.82022 13.79 9.19022 13.37 8.73022 13.37V13.38Z" fill="#193a56"/>
</svg>
