<svg width="32" height="32" viewBox="0 0 32 32" fill="none" xmlns="http://www.w3.org/2000/svg">
<path d="M18.2638 14.0555C18.1278 14.0235 17.9918 13.9995 17.8398 13.9915V13.9755H14.4478C14.1838 13.9755 13.9518 13.9995 13.7358 14.0555C8.37584 15.3995 7.06384 23.7995 6.99984 24.2155C6.99184 24.4715 6.92784 26.7755 8.31184 27.7035C8.67184 27.9435 9.08784 28.0715 9.55184 28.0715C10.0398 28.0715 10.5838 27.9355 11.1838 27.6555C12.7998 26.9115 14.1838 26.6315 15.1758 26.5515C16.1598 26.4955 18.3678 26.5275 20.8158 27.6555C21.4158 27.9275 21.9598 28.0715 22.4478 28.0715C22.9118 28.0715 23.3198 27.9515 23.6878 27.7035C25.0718 26.7755 25.0078 24.4795 24.9918 24.1515C24.9358 23.7915 23.6238 15.3915 18.2638 14.0555ZM23.0158 26.7115C22.6398 26.9595 22.0718 26.9115 21.3198 26.5675C19.6958 25.8155 18.1838 25.5035 16.9918 25.3835C16.7918 25.3515 16.1198 25.2635 15.0958 25.3435C14.6958 25.3675 14.4558 25.4075 14.4238 25.4155C13.3998 25.5675 12.1278 25.8955 10.6798 26.5595C9.92784 26.9035 9.35984 26.9515 8.98384 26.7035C8.27984 26.2315 8.18384 24.7515 8.19184 24.3275C8.19984 24.2475 9.43184 16.3595 14.0238 15.2155C14.1438 15.1835 14.2798 15.1675 14.4398 15.1675H17.5518C17.7118 15.1675 17.8558 15.1835 17.9678 15.2075C22.5518 16.3515 23.7838 24.2395 23.7918 24.2555C23.8078 24.7355 23.7118 26.2235 23.0078 26.6955L23.0158 26.7115ZM19.1838 11.5595C19.2638 11.5675 19.3438 11.5755 19.4238 11.5755C20.1598 11.5755 20.8718 11.2395 21.4398 10.6155C22.0318 9.96748 22.4078 9.07948 22.5038 8.10348C22.7118 6.03148 21.5518 4.21548 19.9278 4.05548C18.3038 3.89548 16.8078 5.44748 16.5998 7.51948C16.3918 9.59148 17.5518 11.4075 19.1758 11.5675L19.1838 11.5595ZM17.7998 7.63148C17.9358 6.29548 18.7838 5.23948 19.6958 5.23948C19.7358 5.23948 19.7758 5.23948 19.8078 5.23948C20.7598 5.33548 21.4478 6.59148 21.3118 7.97548C21.2398 8.68748 20.9678 9.33548 20.5518 9.79148C20.1758 10.1995 19.7358 10.3995 19.2958 10.3595C18.3438 10.2635 17.6558 9.00748 17.7918 7.62348L17.7998 7.63148ZM27.1198 10.9835C26.9758 10.2795 26.5598 9.71948 25.9838 9.44748C24.8158 8.90348 23.3678 9.61548 22.6878 11.0795C22.3758 11.7435 22.2798 12.4715 22.4078 13.1195C22.5518 13.8235 22.9678 14.3835 23.5438 14.6555C23.7998 14.7755 24.0718 14.8315 24.3598 14.8315C24.7198 14.8315 25.0958 14.7355 25.4558 14.5435C26.0398 14.2315 26.5358 13.6875 26.8478 13.0235C27.1598 12.3595 27.2558 11.6315 27.1198 10.9835ZM25.7598 12.5195C25.5598 12.9515 25.2398 13.3035 24.8878 13.4955C24.7118 13.5915 24.3758 13.7275 24.0558 13.5755C23.7358 13.4235 23.6238 13.0795 23.5838 12.8875C23.5038 12.4955 23.5678 12.0235 23.7678 11.5995C24.0798 10.9275 24.6638 10.4795 25.1598 10.4795C25.2718 10.4795 25.3758 10.5035 25.4718 10.5435C25.7918 10.6955 25.9038 11.0395 25.9438 11.2315C26.0238 11.6235 25.9598 12.0955 25.7598 12.5195ZM9.47184 8.06348C9.67184 10.0315 11.0318 11.5355 12.5678 11.5355C12.6478 11.5355 12.7198 11.5355 12.7998 11.5275C13.6238 11.4475 14.3438 10.9595 14.8318 10.1515C15.2798 9.39948 15.4798 8.45548 15.3838 7.47948C15.2878 6.51148 14.9118 5.61548 14.3198 4.96748C13.6798 4.27148 12.8718 3.92748 12.0558 4.01548C10.4318 4.17548 9.27184 5.99148 9.47984 8.06348H9.47184ZM12.1678 5.20748C12.6078 5.16748 13.0478 5.36748 13.4238 5.77548C13.8398 6.23148 14.1118 6.87948 14.1838 7.59148C14.2558 8.30348 14.1198 8.99148 13.7998 9.52748C13.5118 9.99948 13.1198 10.2875 12.6798 10.3275C11.7358 10.4155 10.8078 9.32748 10.6638 7.94348C10.5278 6.55148 11.2158 5.30348 12.1678 5.20748ZM8.43984 14.6155C9.58384 14.0795 9.97584 12.4715 9.30384 11.0395C8.63184 9.60748 7.15184 8.87148 6.00784 9.40748C4.83184 9.95148 4.45584 11.5195 5.13584 12.9835C5.65584 14.1035 6.67184 14.7915 7.63184 14.7915C7.90384 14.7915 8.17584 14.7355 8.43184 14.6155H8.43984ZM6.23184 12.4795C5.84784 11.6555 5.97584 10.7515 6.51184 10.4955C7.04784 10.2475 7.83184 10.7275 8.21584 11.5435C8.59984 12.3675 8.47184 13.2715 7.93584 13.5275C7.39984 13.7755 6.61584 13.2955 6.23184 12.4795Z" fill="white"/>
</svg>
