<svg width="80" height="80" viewBox="0 0 80 80" fill="none" xmlns="http://www.w3.org/2000/svg">
<path d="M70.17 50.9906C70.17 49.8306 69.79 48.7506 69.15 47.8806C70.58 46.9406 71.53 45.3206 71.53 43.4906C71.53 41.6606 70.58 40.0406 69.15 39.1006C69.79 38.2306 70.17 37.1506 70.17 35.9906C70.17 33.0906 67.81 30.7406 64.92 30.7406H53.77C53.79 30.6706 53.82 30.5906 53.85 30.5006C54.32 29.1606 55.41 25.5706 55.29 21.6106C55.23 19.6106 54.86 17.7906 54.19 16.2006C52.3 11.6706 49.11 11.9006 48.18 12.0706C45.98 12.4906 44.28 14.5206 44.23 16.8106V17.0606C44.15 19.5506 43.56 25.6106 39.85 28.1506C37.6 29.6906 35.84 31.5806 34.16 33.4306C33.39 32.5506 32.27 31.9706 31.01 31.9706H9.8C8.98 31.9706 8.31 32.6306 8.3 33.4506L8 61.8106C8 61.8606 8 61.9106 8.01 61.9606C8.01 62.0106 8.01 62.0506 8.02 62.1006C8.02 62.1506 8.05 62.2006 8.06 62.2506C8.07 62.2906 8.08 62.3406 8.1 62.3806C8.12 62.4306 8.14 62.4706 8.17 62.5206C8.19 62.5606 8.21 62.6006 8.23 62.6406C8.26 62.6806 8.29 62.7206 8.32 62.7606C8.35 62.8006 8.38 62.8406 8.41 62.8706C8.44 62.9006 8.48 62.9306 8.52 62.9606C8.56 62.9906 8.59 63.0306 8.63 63.0506C8.67 63.0806 8.71 63.1006 8.75 63.1206C8.79 63.1506 8.84 63.1706 8.88 63.1906C8.92 63.2106 8.97 63.2206 9.01 63.2406C9.06 63.2606 9.11 63.2806 9.16 63.2906C9.21 63.3006 9.25 63.3006 9.3 63.3106C9.35 63.3206 9.39 63.3306 9.44 63.3306L22.74 63.7406H30.99C30.99 63.7406 31.08 63.7306 31.13 63.7306C31.36 63.7306 31.6 63.7106 31.82 63.6606C31.91 63.6406 31.99 63.6006 32.08 63.5806C32.26 63.5306 32.43 63.4906 32.6 63.4206C32.71 63.3706 32.82 63.3006 32.92 63.2506C33.05 63.1806 33.18 63.1206 33.31 63.0406C33.76 62.7306 34.15 62.3406 34.46 61.8906C34.53 61.7906 34.57 61.6806 34.63 61.5806C34.7 61.4506 34.79 61.3206 34.84 61.1806C34.84 61.1806 34.84 61.1706 34.84 61.1606C34.86 61.1606 34.88 61.1606 34.9 61.1606C35.2 61.2006 35.51 61.2606 35.82 61.3306C35.89 61.3506 35.96 61.3606 36.03 61.3806C36.31 61.4506 36.6 61.5206 36.88 61.6006C36.92 61.6106 36.96 61.6206 36.99 61.6306C37.31 61.7206 37.64 61.8206 37.96 61.9306C38.05 61.9606 38.14 61.9906 38.22 62.0206C38.53 62.1206 38.84 62.2206 39.15 62.3306C41.23 63.0306 43.38 63.7506 45.62 63.7506H63.58C66.48 63.7506 68.83 61.3906 68.83 58.5006C68.83 57.3206 68.44 56.2306 67.78 55.3506C69.18 54.4106 70.1 52.8106 70.1 50.9906H70.17ZM32.2 59.5606C32.2 59.7206 32.17 59.8706 32.11 60.0106C32.05 60.1506 31.96 60.2806 31.85 60.3906C31.74 60.5006 31.61 60.5906 31.47 60.6506C31.38 60.6906 31.28 60.6906 31.18 60.7106C31.13 60.7106 31.07 60.7406 31.02 60.7406H22.81L11.02 60.3706L11.29 34.9606H31.01C31.66 34.9606 32.2 35.4906 32.2 36.1506V59.5506V59.5606ZM66.27 45.7406H64.92C64.09 45.7406 63.42 46.4106 63.42 47.2406C63.42 48.0706 64.09 48.7406 64.92 48.7406C66.16 48.7406 67.17 49.7506 67.17 50.9906C67.17 52.2306 66.16 53.2406 64.92 53.2406H63.65C62.82 53.2406 62.15 53.9106 62.15 54.7406C62.15 55.5706 62.82 56.2406 63.65 56.2406C64.89 56.2406 65.9 57.2506 65.9 58.4906C65.9 59.7306 64.89 60.7406 63.65 60.7406H45.69C43.94 60.7406 42.11 60.1306 40.17 59.4806C39.83 59.3706 39.49 59.2506 39.15 59.1406C39.05 59.1106 38.95 59.0806 38.86 59.0506C38.5 58.9306 38.13 58.8206 37.76 58.7106C37.72 58.7006 37.68 58.6906 37.63 58.6806C37.3 58.5906 36.97 58.5006 36.63 58.4306C36.54 58.4106 36.46 58.3906 36.37 58.3706C36 58.2906 35.63 58.2206 35.26 58.1706C35.24 58.1706 35.21 58.1706 35.19 58.1606V36.7406C35.49 36.4206 35.78 36.0906 36.07 35.7706C37.8 33.8606 39.44 32.0506 41.53 30.6206C46.2 27.4306 47.1 20.8106 47.21 17.1506V16.8606C47.24 15.9906 47.9 15.1806 48.72 15.0306C49.73 14.8306 50.71 15.6906 51.41 17.3606C51.93 18.6006 52.22 20.0606 52.27 21.6906C52.33 23.7806 51.99 25.7906 51.63 27.2906C51.3 28.6806 50.94 29.6406 50.87 29.8406C50.81 30.0106 50.77 30.1506 50.72 30.3006C50.45 31.1606 50.45 31.7506 50.75 32.4406C50.77 32.4806 50.79 32.5306 50.81 32.6006C50.98 33.2606 51.58 33.7206 52.26 33.7206H64.89C66.13 33.7206 67.14 34.7306 67.14 35.9706C67.14 37.2106 66.13 38.2206 64.89 38.2206C64.06 38.2206 63.39 38.8906 63.39 39.7206C63.39 40.5506 64.06 41.2206 64.89 41.2206H66.24C67.48 41.2206 68.49 42.2306 68.49 43.4706C68.49 44.7106 67.48 45.7206 66.24 45.7206L66.27 45.7406Z" fill="#193A56"/>
</svg>
