<svg width="32" height="32" viewBox="0 0 32 32" fill="none" xmlns="http://www.w3.org/2000/svg">
<path d="M17.5871 17.5871C16.9391 18.2351 16.9391 19.2991 17.5871 19.9551C17.8991 20.2751 18.3231 20.4431 18.7711 20.4431C19.2191 20.4431 19.6351 20.2671 19.9551 19.9551C20.2671 19.6431 20.4431 19.2191 20.4431 18.7711C20.4431 18.3231 20.2671 17.9071 19.9551 17.5871C19.3231 16.9551 18.2191 16.9551 17.5871 17.5871ZM19.3871 19.3871C19.0591 19.7151 18.4831 19.7151 18.1551 19.3871C17.8191 19.0511 17.8191 18.4911 18.1551 18.1551C18.3231 17.9871 18.5391 17.8991 18.7711 17.8991C19.0031 17.8991 19.2191 17.9871 19.3871 18.1551C19.5551 18.3231 19.6431 18.5391 19.6431 18.7711C19.6431 19.0031 19.5551 19.2191 19.3871 19.3871ZM14.5551 14.5551C14.8671 14.2351 15.0431 13.8191 15.0431 13.3711C15.0431 12.9231 14.8671 12.5071 14.5551 12.1871C13.9071 11.5391 12.8431 11.5391 12.1871 12.1871C11.8751 12.4991 11.6991 12.9231 11.6991 13.3711C11.6991 13.8191 11.8751 14.2351 12.1871 14.5551C12.5151 14.8831 12.9391 15.0431 13.3711 15.0431C13.8031 15.0431 14.2271 14.8831 14.5551 14.5551ZM12.7551 13.9871C12.5871 13.8191 12.4991 13.6031 12.4991 13.3711C12.4991 13.1391 12.5871 12.9231 12.7551 12.7551C12.9231 12.5871 13.1471 12.4991 13.3711 12.4991C13.5951 12.4991 13.8191 12.5871 13.9871 12.7551C14.1551 12.9231 14.2431 13.1391 14.2431 13.3711C14.2431 13.6031 14.1551 13.8191 13.9871 13.9871C13.6431 14.3231 13.0911 14.3231 12.7551 13.9871ZM19.7871 12.9151L12.9151 19.7871L12.3471 19.2191L19.2191 12.3471L19.7871 12.9151ZM28.9391 16.0671L24.9871 12.3711L25.1711 6.96312L19.7631 7.14712L16.0751 3.20312L12.3791 7.15512L6.97112 6.97112L7.15512 12.3791L3.20312 16.0751L7.15512 19.7711L6.97112 25.1791L12.3791 24.9951L16.0751 28.9471L19.7711 24.9951L25.1791 25.1791L24.9951 19.7711L28.9471 16.0751L28.9391 16.0671ZM19.2591 23.7631L16.0671 27.1791L12.8751 23.7631L8.21112 23.9231L8.37112 19.2591L4.96312 16.0671L8.37112 12.8751L8.21112 8.21112L12.8751 8.37112L16.0671 4.95512L19.2591 8.37112L23.9231 8.21112L23.7631 12.8751L27.1711 16.0671L23.7631 19.2591L23.9231 23.9231L19.2591 23.7631Z" fill="#193A56"/>
</svg>
