<svg width="20" height="20" viewBox="0 0 20 20" fill="none" xmlns="http://www.w3.org/2000/svg">
<path d="M19.488 14.7144C19.302 12.1584 17.082 10.2324 14.514 10.4124C14.316 10.4244 14.124 10.4544 13.938 10.4964V5.43844L9.066 0.398438H2.124C0.954 0.398438 0 1.38244 0 2.59444V17.1144C0 18.3264 0.954 19.3104 2.124 19.3104H12.996C13.578 19.5624 14.202 19.7004 14.85 19.7004C14.964 19.7004 15.078 19.7004 15.198 19.6884C17.754 19.5024 19.686 17.2704 19.5 14.7144H19.488ZM9.228 1.86244L12.318 5.06044H9.636C9.414 5.06044 9.228 4.88044 9.228 4.65244V1.86244ZM2.124 18.4104C1.452 18.4104 0.9 17.8284 0.9 17.1144V2.59444C0.9 1.88044 1.452 1.29844 2.124 1.29844H8.328V4.65244C8.328 5.37244 8.916 5.96044 9.636 5.96044H13.038V10.7784C11.256 11.5344 10.068 13.3584 10.218 15.3924C10.302 16.5564 10.812 17.6184 11.652 18.4164H2.124V18.4104ZM15.126 18.7884C14.13 18.8604 13.158 18.5424 12.402 17.8884C11.646 17.2344 11.184 16.3224 11.112 15.3264C10.962 13.2624 12.516 11.4624 14.58 11.3124C14.67 11.3064 14.766 11.3004 14.856 11.3004C16.8 11.3004 18.45 12.8064 18.594 14.7804C18.744 16.8444 17.19 18.6444 15.126 18.7944V18.7884ZM11.112 8.07844H2.826V7.47844H11.112V8.07844ZM11.112 10.5804H2.826V9.98044H11.112V10.5804ZM2.826 12.4824H9.312V13.0824H2.826V12.4824ZM15.552 16.6164V17.4564C15.552 17.4564 15.414 17.4804 15.252 17.4804C14.694 17.4804 14.25 17.1924 14.25 16.5624V14.1744H15.288V16.4184C15.288 16.5444 15.348 16.6164 15.552 16.6164ZM14.154 13.2324C14.154 12.8844 14.418 12.6144 14.772 12.6144C15.126 12.6144 15.39 12.8904 15.39 13.2324C15.39 13.5744 15.114 13.8504 14.772 13.8504C14.43 13.8504 14.154 13.5864 14.154 13.2324Z" fill="#193A56"/>
</svg>
