<svg width="40" height="40" viewBox="0 0 40 40" fill="none" xmlns="http://www.w3.org/2000/svg">
<path d="M37.1802 24.6802L37.0902 24.0302H36.4402C33.6402 24.0302 30.7202 21.7702 30.6902 21.7502L30.6202 21.6902L27.9502 15.9002C28.5502 15.3602 29.0002 14.9402 29.3302 14.6402C29.5702 14.4202 29.7502 14.2602 29.8602 14.1602C31.2702 12.9102 35.9002 8.62023 36.0202 6.01023C36.0502 5.44023 35.8702 4.94023 35.5202 4.56023C35.1802 4.20023 34.7202 4.01023 34.1802 3.99023C34.1602 3.99023 34.1402 3.99023 34.1102 3.99023C31.9202 3.99023 28.2702 7.02023 25.5802 9.57023C25.2602 9.88023 24.6302 10.5002 23.7902 11.3502L13.9802 6.00023L9.09023 9.02023L18.3302 16.9502C14.9602 20.4302 11.9702 23.5702 9.98023 25.7302L6.74023 24.2902L2.99023 26.4502L6.64023 29.6502C5.96023 30.6402 5.73023 31.3202 5.90023 31.8502C5.95023 32.0202 6.05023 32.1702 6.17023 32.2802C6.28023 32.4202 6.46023 32.5702 6.75023 32.6502C7.30023 32.8002 7.99023 32.6202 8.87023 32.0602L11.7002 35.7302L14.0902 32.1302L12.8702 28.8502C16.3202 25.9802 19.4302 23.3502 22.1302 21.0202L24.3802 24.0402H24.3602H23.7002L23.6102 24.6902C23.6002 24.7702 22.6502 32.5602 29.8402 36.6702L30.2002 36.8802L30.5702 36.6802C38.1902 32.5702 37.1802 24.7602 37.1702 24.6802H37.1802ZM22.3802 18.8302L21.7702 19.3602C18.8302 21.9002 15.3802 24.8202 11.5102 28.0402L11.1002 28.3802L12.4202 31.9402L11.6102 33.1602L9.18023 30.0002L8.59023 30.4402C8.09023 30.8102 7.75023 31.0002 7.52023 31.1002C7.64023 30.8602 7.87023 30.5102 8.25023 30.0002L8.68023 29.4402L5.57023 26.7102L6.84023 25.9802L10.3702 27.5502L10.7302 27.1502C12.8002 24.8902 16.1602 21.3502 19.9702 17.4302L20.5302 16.8602L11.6202 9.22023L14.0202 7.74023L24.0702 13.2202L24.4702 12.8202C25.4902 11.7902 26.2602 11.0202 26.6202 10.6702C29.9802 7.47023 32.8402 5.50023 34.1002 5.50023C34.1102 5.50023 34.1202 5.50023 34.1302 5.50023C34.3302 5.50023 34.3902 5.57023 34.4202 5.60023C34.4702 5.66023 34.5302 5.75023 34.5202 5.96023C34.4502 7.45023 31.5402 10.6802 28.8702 13.0502C28.7502 13.1602 28.5702 13.3202 28.3202 13.5502C27.9202 13.9102 27.3502 14.4402 26.5402 15.1702L26.1302 15.5402L29.1902 22.1902C28.5302 22.6502 27.3602 23.3802 26.0602 23.7702L22.3802 18.8402V18.8302ZM30.2402 35.1502C25.3302 32.1202 25.0102 27.2202 25.0702 25.4902C27.2902 25.2502 29.3502 23.9202 30.2402 23.2702C31.1802 23.9202 33.3702 25.2602 35.7302 25.4902C35.7702 27.2002 35.4102 32.1402 30.2302 35.1402L30.2402 35.1502ZM31.9002 27.2302L32.7402 27.7702L30.3102 31.5202L27.8402 28.9602L28.5602 28.2602L30.1602 29.9102L31.9102 27.2202L31.9002 27.2302Z" fill="#193A56"/>
</svg>
