<svg width="70" height="70" viewBox="0 0 70 70" fill="none" xmlns="http://www.w3.org/2000/svg">
<path d="M66.5161 37.8468L66.3661 36.7668H65.2761C64.1461 36.7668 63.0061 36.5768 61.9061 36.2768C62.5261 33.2068 62.7261 31.1268 62.7361 31.0368C62.8861 29.4168 62.1861 27.4868 60.3161 27.1068C58.8161 26.7968 50.7361 25.7068 48.9161 25.4568L38.8361 17.2468C38.3661 16.7268 37.2361 16.0568 34.4761 15.9968H19.1761C18.3861 15.9468 16.7961 16.2868 15.5861 17.9468L11.4161 24.6268L5.81614 26.2968C4.71614 26.6268 2.70614 27.8968 3.03614 30.4368L3.93614 36.2968C4.24614 37.6968 5.61614 40.3368 8.55614 40.3368H14.9861C15.6461 42.8068 17.8961 44.6068 20.5461 44.6068C23.1961 44.6068 25.4361 42.8068 26.1061 40.3368H40.5561C40.6661 44.9468 42.1961 54.9268 52.6161 60.8868L53.2161 61.2268L53.8261 60.8968C68.4661 52.9968 66.5261 37.9968 66.5061 37.8468H66.5161ZM23.8161 38.9068C23.8161 38.9068 23.8161 38.9968 23.8161 39.0168C23.7161 40.7468 22.2861 42.0968 20.5561 42.0968C18.8261 42.0968 17.3961 40.7368 17.2961 39.0068V38.8268C17.2961 37.0268 18.7561 35.5568 20.5561 35.5568C22.3561 35.5568 23.8261 37.0268 23.8261 38.8268C23.8261 38.8268 23.8261 38.8468 23.8261 38.8568C23.8261 38.8768 23.8261 38.8868 23.8261 38.9068H23.8161ZM40.7861 36.7668L40.6461 37.8268H26.2361C25.7561 35.1168 23.3961 33.0568 20.5561 33.0568C17.7161 33.0568 15.3561 35.1168 14.8761 37.8268H8.55614C6.88614 37.8268 6.39614 35.8268 6.38614 35.8268L5.50614 30.0768C5.38614 29.1268 6.26614 28.7668 6.52614 28.6868L12.5861 26.8768C12.8761 26.7868 13.1261 26.5968 13.2861 26.3368L17.6561 19.3468C18.2761 18.4968 18.9661 18.4968 19.0061 18.4968C19.0461 18.4968 19.0861 18.4968 19.1261 18.4968H34.4461C36.2361 18.5368 36.8661 18.8668 36.9961 18.9368C37.0461 18.9968 37.0961 19.0468 37.1561 19.0968L47.6061 27.6168C47.7861 27.7668 47.9961 27.8568 48.2261 27.8868C51.6761 28.3468 58.5461 29.2968 59.8061 29.5568C60.2861 29.6568 60.2461 30.8068 60.2461 30.8068C60.2461 30.8268 60.0661 32.7068 59.5261 35.4568C56.3961 34.1468 54.0461 32.3368 54.0161 32.3068L53.2161 31.6868L52.4361 32.3268C52.3861 32.3668 47.0261 36.7768 41.8761 36.7768H40.7861V36.7668ZM53.2661 58.3568C43.3661 52.3268 42.9061 42.4268 43.0461 39.2068C47.4761 38.7768 51.5961 36.0768 53.2661 34.8368C55.0161 36.0568 59.4161 38.7968 64.1161 39.2068C64.2261 42.4068 63.6661 52.3768 53.2561 58.3468L53.2661 58.3568ZM56.2561 42.6068L58.3561 43.9668L53.4461 51.5268L48.4061 46.3168L50.2061 44.5768L53.0661 47.5268L56.2661 42.5968L56.2561 42.6068ZM40.4861 27.4668C40.4861 28.1568 39.9261 28.7168 39.2361 28.7168H19.1361C18.4461 28.7168 17.8861 28.1568 17.8861 27.4668C17.8861 26.7768 18.4461 26.2168 19.1361 26.2168H39.2261C39.9161 26.2168 40.4761 26.7768 40.4761 27.4668H40.4861Z" fill="#193A56"/>
</svg>
