<svg width="40" height="40" viewBox="0 0 40 40" fill="none" xmlns="http://www.w3.org/2000/svg">
    <circle cx="20" cy="20" r="19.5" stroke="#59A627"/>
    <path d="M29.288 12.729c0-.768-.24-1.332-.713-1.674-.462-.336-1.026-.36-1.447-.312v-.174a.453.453 0 0 0-.45-.45.453.453 0 0 0-.45.45v1.44c0 .246.204.45.45.45.246 0 .45-.204.45-.45v-.36c.282-.042.666-.048.919.138.227.162.341.48.341.942 0 2.328-1.362 8.184-4.59 8.184-3.227 0-4.583-5.856-4.583-8.184 0-.462.113-.78.335-.942a.795.795 0 0 1 .319-.132c.204-.042.42-.03.605 0v.36c0 .246.204.45.45.45.247 0 .45-.204.45-.45v-1.446a.453.453 0 0 0-.45-.45.453.453 0 0 0-.45.45v.174c-.42-.048-.983-.024-1.445.312-.474.342-.715.906-.715 1.674 0 1.77.78 6.096 2.977 8.07l-.06.024 2.117 4.764a2.248 2.248 0 0 1-2.243 2.226 2.259 2.259 0 0 1-2.25-2.25V22.19a3.15 3.15 0 1 0-6.3 0v1.644a2.61 2.61 0 0 0-2.16 2.562c0 1.44 1.17 2.61 2.61 2.61s2.61-1.17 2.61-2.61a2.61 2.61 0 0 0-2.16-2.562V22.19a2.25 2.25 0 0 1 4.5 0v3.372c0 1.734 1.41 3.15 3.15 3.15a3.137 3.137 0 0 0 3.143-3.114l2.124-4.776-.06-.024c2.19-1.974 2.976-6.3 2.976-8.07zM14.72 26.397c0 .942-.768 1.71-1.71 1.71-.941 0-1.71-.768-1.71-1.71s.768-1.71 1.71-1.71c.943 0 1.71.768 1.71 1.71zm9.085-2.01-1.248-2.808a3.522 3.522 0 0 0 2.495 0l-1.247 2.808zm-11.724 2.01a.924.924 0 1 0 1.848-.001.924.924 0 0 0-1.848 0zm1.254 0c0 .18-.145.324-.325.324a.323.323 0 0 1-.323-.324c0-.18.144-.324.324-.324.18 0 .324.144.324.324z" fill="#fff"/>
</svg>
