<svg width="40" height="40" viewBox="0 0 40 40" fill="none" xmlns="http://www.w3.org/2000/svg">
    <circle cx="20" cy="20" r="19.5" fill="#fff" stroke="#0169B4"/>
    <path d="M26.678 18.452c-.204-.63-.606-.954-1.194-.966h-7.056c-.588.006-.984.33-1.182.942L16.01 21.71h11.892l-1.224-3.258zm-9.366 2.358.786-2.082c.102-.324.198-.336.342-.342h7.038c.15 0 .24.018.354.36l.774 2.064h-9.294zm11.67.084-1.236-3.162c-.372-.948-1.176-1.47-2.268-1.476h-7.044c-.132 0-.258.012-.378.024v-1.83c0-.378-.204-.72-.528-.9-.15-.084-.564-.138-1.08-.174V11.27h1.65v-.9h-1.83c-.234-.582-.702-1.17-1.566-1.17h-1.494v.012c-.87 0-1.338.582-1.572 1.17H9.8v.9h1.65v2.106c-.516.036-.93.09-1.08.174-.324.18-.528.528-.528.9v3.858c.09.864.714 2.454 2.43 2.646v.864c0 .486.396.876.876.876h.222c-.024.132-.036.27-.036.414v4.752h1.302v.912c0 .648.294 1.188.804 1.488a1.764 1.764 0 0 0 1.74 0c.516-.3.816-.84.816-1.482v-.912h7.92v.912c0 .642.294 1.188.816 1.482a1.777 1.777 0 0 0 1.74 0c.516-.3.804-.84.804-1.482v-.912h1.302v-4.752c0-1.242-.87-2.004-1.596-2.232zm-15.78-10.782h1.494V10.1c.744 0 .852 1.038.852 1.038v2.196a58.498 58.498 0 0 0-2.226-.012c-.312 0-.648.012-.978.018v-2.148c0-.042.108-1.08.852-1.08h.006zm-.924 8.064v1.872c-1.344-.222-1.53-1.752-1.53-1.782v-3.804c0-.048.024-.096.024-.096.228-.072 1.668-.162 3.792-.126v-.018c1.44.006 2.382.072 2.532.114a.129.129 0 0 1 .066.114v2.124c-.444.246-.78.636-.99 1.158l-.408 1.044v-.6a.877.877 0 0 0-.876-.876H13.16a.877.877 0 0 0-.876.876h-.006zm1.458 3.642-.558.018-.024-3.636 1.704-.024v2.748a2.382 2.382 0 0 0-1.128.894h.006zm15.942 5.16h-1.302v1.812c0 .324-.12.57-.354.702a.87.87 0 0 1-.84 0c-.168-.096-.366-.294-.366-.702v-1.812h-9.72v1.812c0 .408-.198.606-.366.702a.87.87 0 0 1-.84 0c-.234-.138-.36-.378-.354-.708v-1.812h-1.302V23.12c0-.954.804-1.362 1.08-1.398l.264-.036 1.416-3.63c.234-.6.72-.9 1.434-.906h7.044c.714 0 1.2.306 1.434.906l1.416 3.63.264.036c.276.036 1.086.444 1.08 1.398v3.852l.012.006zM16.376 22.25h-.018c-.378 0-.732.15-1.002.42a1.433 1.433 0 0 0-.426 1.032c0 .384.15.738.42 1.014s.636.426 1.02.426h.006c.378 0 .732-.144.996-.414.27-.27.42-.636.42-1.02s-.156-.774-.432-1.044a1.38 1.38 0 0 0-.984-.408v-.006zm.57 2.052a.823.823 0 0 1-1.17-.006.826.826 0 0 1-.24-.588.854.854 0 0 1 .834-.852h.012c.222.018.414.084.564.234a.871.871 0 0 1 .252.618.801.801 0 0 1-.246.594h-.006zm10.608-2.052c-.39.018-.726.144-.996.408a1.47 1.47 0 0 0-.432 1.044c0 .39.15.75.42 1.02.264.264.624.414.996.414h.006c.384 0 .75-.15 1.02-.426.27-.27.42-.63.42-1.008a1.447 1.447 0 0 0-1.434-1.452zm.84 1.452a.812.812 0 0 1-.24.582.834.834 0 0 1-1.176.006.845.845 0 0 1-.246-.594c0-.222.096-.462.252-.618a.857.857 0 0 1 .57-.234.854.854 0 0 1 .84.852v.006z" fill="#193A56"/>
</svg>
