<svg width="40" height="40" viewBox="0 0 40 40" fill="none" xmlns="http://www.w3.org/2000/svg">
    <circle cx="20" cy="20" r="19.5" fill="#fff" stroke="#E94D10"/>
    <path d="m25.712 17.186.294-.264c.822-.726 3.504-3.216 3.57-4.734.018-.336-.09-.63-.294-.852a1.105 1.105 0 0 0-.786-.336c-1.266-.036-3.414 1.74-4.992 3.24-.186.174-.546.534-1.032 1.02l-5.682-3.102-2.856 1.764 5.358 4.602a322.357 322.357 0 0 0-4.818 5.07l-1.872-.834-2.196 1.266 2.118 1.86c-.396.576-.522.966-.426 1.272.03.102.09.192.162.258a.687.687 0 0 0 .342.216c.324.09.72-.018 1.23-.336l1.644 2.136 1.404-2.112-.702-1.896a431.473 431.473 0 0 0 5.346-4.518l4.062 5.442 1.944-2.742-2.616-5.682c.354-.318.618-.558.804-.732l-.006-.006zm.774 6.324-.93 1.308-3.9-5.226-.366.318a392.805 392.805 0 0 1-5.946 5.028l-.246.204.768 2.064-.45.684-1.404-1.824-.354.264c-.258.192-.45.3-.576.36.072-.138.198-.33.402-.594l.258-.336-1.8-1.578.708-.408 2.046.912.216-.24c1.632-1.782 4.056-4.296 5.352-5.634l.336-.342-5.148-4.428 1.368-.84 5.826 3.18.24-.24c.594-.6 1.038-1.044 1.248-1.242 1.944-1.848 3.6-2.994 4.326-2.994h.018c.108 0 .144.036.156.048.018.018.06.066.054.198-.042.864-1.722 2.73-3.27 4.098l-.3.276c-.228.21-.57.522-1.05.948l-.246.222 2.676 5.814h-.012z" fill="#193A56"/>
</svg>
