<svg width="40" height="40" viewBox="0 0 40 40" fill="none" xmlns="http://www.w3.org/2000/svg">
    <circle cx="20" cy="20" r="19.5" stroke="#E94D10"/>
    <path d="m27.372 19.427-.168-.144a3.37 3.37 0 0 0 .894-2.286 3.395 3.395 0 0 0-3.3-3.384h-.084a3.39 3.39 0 0 0-3.3 3.384c0 .39.072.768.192 1.116a2.509 2.509 0 0 0-1.62-.69v-.012s-.042 0-.06.006c-.018 0-.042-.006-.06-.006v.012a2.488 2.488 0 0 0-1.374.486c.282-.51.438-1.098.438-1.722a3.634 3.634 0 0 0-3.588-3.612h-.036a3.626 3.626 0 0 0-3.582 3.618c0 .954.378 1.824.984 2.472l-.138.12-.078.054c-1.218.84-2.094 1.452-2.094 2.394v6.438h18.924v-6c0-.894-.864-1.488-1.956-2.25l.006.006zM24.75 14.52a2.488 2.488 0 0 1 2.442 2.484 2.488 2.488 0 0 1-2.442 2.484 2.488 2.488 0 0 1-2.442-2.484 2.488 2.488 0 0 1 2.442-2.484zm-2.448 4.77h-.006s0-.006-.006-.018c0 0 .012.012.012.018zm.06 7.47h-4.89v-3.486c0-.228.54-.6 1.056-.96l.198-.162c.336.192.72.312 1.128.33v.012s.042 0 .06-.006c.018 0 .042.006.06.006v-.012a2.494 2.494 0 0 0 1.128-.33l.15.126.048.036c.522.36 1.056.732 1.056.966v3.486l.006-.006zm-2.448-8.436c.87.03 1.572.75 1.572 1.626 0 .876-.702 1.596-1.572 1.626a1.633 1.633 0 0 1-1.572-1.626c0-.876.702-1.596 1.572-1.626zm-4.59-4.848a2.723 2.723 0 0 1 2.7 2.718 2.72 2.72 0 0 1-2.7 2.718 2.723 2.723 0 0 1-2.7-2.718 2.723 2.723 0 0 1 2.7-2.718zm-.114 13.296h-3.912v-5.538c0-.474.756-.996 1.71-1.656l.402-.336c.552.348 1.2.558 1.896.564h.036a3.66 3.66 0 0 0 1.896-.564l.258.222c-.03.156-.048.312-.048.48 0 .612.228 1.164.588 1.602l-.018.012c-.804.558-1.446 1.002-1.446 1.704v3.504h-1.368l.006.006zm9.414 0h-1.356v-3.504c0-.702-.636-1.146-1.446-1.704l-.012-.012c.258-.318.456-.69.54-1.11l.66-.576a3.32 3.32 0 0 0 1.704.51h.084a3.383 3.383 0 0 0 1.704-.516l.288.246.072.048c.876.606 1.566 1.086 1.566 1.506v5.1h-3.804v.012z" fill="#fff"/>
</svg>
