<svg width="40" height="40" viewBox="0 0 40 40" fill="none" xmlns="http://www.w3.org/2000/svg">
    <circle cx="20" cy="20" r="19.5" fill="#fff" stroke="#0169B4"/>
    <path d="M27.38 24.278c-.054 0-.108.012-.162.018.978-.558 2.19-.504 2.202-.498l.054-.9c-.084 0-2.076-.108-3.366 1.098-.546.51-.864 1.182-.984 1.98-.018.066-.042.132-.06.204H17.15l-3.378-5.094 1.494-7.038h1.272v-.9H13.07v.9h1.278l-2.172 10.23h-.024A2.356 2.356 0 0 0 9.8 26.63a2.356 2.356 0 0 0 2.352 2.352 2.362 2.362 0 0 0 2.31-1.902H25.07a2.355 2.355 0 0 0 2.304 1.902 2.356 2.356 0 0 0 2.352-2.352 2.356 2.356 0 0 0-2.352-2.352h.006zm-15.228 3.804A1.457 1.457 0 0 1 10.7 26.63c0-.744.564-1.35 1.284-1.434l-.27 1.284.882.186.276-1.296c.438.252.738.714.738 1.254 0 .798-.654 1.452-1.452 1.452l-.006.006zm2.31-1.902a2.354 2.354 0 0 0-1.398-1.722l.456-2.142 2.562 3.864h-1.62zm12.918 1.902c-.642 0-1.182-.42-1.374-1.002h1.398v-.9h-1.392v-.03a1.447 1.447 0 0 1 1.362-.972c.798 0 1.452.654 1.452 1.452 0 .798-.654 1.452-1.452 1.452h.006zm-3.144-8.37a.685.685 0 0 0 .558-.282c1.002-1.374 2.682-3.882 2.682-5.202A3.235 3.235 0 0 0 24.236 11a3.235 3.235 0 0 0-3.24 3.228c0 1.32 1.68 3.828 2.682 5.202.132.18.336.282.558.282zm0-8.112a2.634 2.634 0 0 1 2.64 2.628c0 .828-.96 2.64-2.568 4.848-.048.066-.096.066-.144 0-1.608-2.208-2.568-4.02-2.568-4.848a2.638 2.638 0 0 1 2.64-2.628zm1.32 2.508c0-.726-.594-1.314-1.32-1.314-.726 0-1.32.588-1.32 1.314 0 .726.594 1.314 1.32 1.314.726 0 1.32-.588 1.32-1.314zm-2.034 0c0-.396.324-.714.72-.714.396 0 .72.318.72.714a.717.717 0 0 1-.72.714.717.717 0 0 1-.72-.714z" fill="#193A56"/>
</svg>
