<svg width="40" height="40" viewBox="0 0 40 40" fill="none" xmlns="http://www.w3.org/2000/svg">
    <circle cx="20" cy="20" r="19.5" fill="#fff" stroke="#E94D10"/>
    <path d="M21.698 18.917a1.763 1.763 0 0 0-.318-.048v-.012h-2.544c-.198 0-.372.018-.534.06-4.02 1.008-5.004 7.308-5.052 7.62-.006.192-.054 1.92.984 2.616.27.18.582.276.93.276.366 0 .774-.102 1.224-.312 1.212-.558 2.25-.768 2.994-.828a9.07 9.07 0 0 1 4.23.828c.45.204.858.312 1.224.312.348 0 .654-.09.93-.276 1.038-.696.99-2.418.978-2.664-.042-.27-1.026-6.57-5.046-7.572zm3.564 9.492c-.282.186-.708.15-1.272-.108a10.13 10.13 0 0 0-3.246-.888c-.15-.024-.654-.09-1.422-.03-.3.018-.48.048-.504.054a10.41 10.41 0 0 0-2.808.858c-.564.258-.99.294-1.272.108-.528-.354-.6-1.464-.594-1.782.006-.06.93-5.976 4.374-6.834.09-.024.192-.036.312-.036h2.334c.12 0 .228.012.312.03 3.438.858 4.362 6.774 4.368 6.786.012.36-.06 1.476-.588 1.83l.006.012zm-2.874-11.364c.06.006.12.012.18.012.552 0 1.086-.252 1.512-.72.444-.486.726-1.152.798-1.884.156-1.554-.714-2.916-1.932-3.036-1.218-.12-2.34 1.044-2.496 2.598-.156 1.554.714 2.916 1.932 3.036l.006-.006zm-1.038-2.946c.102-1.002.738-1.794 1.422-1.794h.084c.714.072 1.23 1.014 1.128 2.052-.054.534-.258 1.02-.57 1.362-.282.306-.612.456-.942.426-.714-.072-1.23-1.014-1.128-2.052l.006.006zm6.99 2.514c-.108-.528-.42-.948-.852-1.152-.876-.408-1.962.126-2.472 1.224a2.503 2.503 0 0 0-.21 1.53c.108.528.42.948.852 1.152.192.09.396.132.612.132.27 0 .552-.072.822-.216.438-.234.81-.642 1.044-1.14.234-.498.306-1.044.204-1.53zm-1.02 1.152c-.15.324-.39.588-.654.732-.132.072-.384.174-.624.06-.24-.114-.324-.372-.354-.516a1.588 1.588 0 0 1 .138-.966c.234-.504.672-.84 1.044-.84.084 0 .162.018.234.048.24.114.324.372.354.516.06.294.012.648-.138.966zm-12.216-3.342c.15 1.476 1.17 2.604 2.322 2.604.06 0 .114 0 .174-.006.618-.06 1.158-.426 1.524-1.032.336-.564.486-1.272.414-2.004-.072-.726-.354-1.398-.798-1.884-.48-.522-1.086-.78-1.698-.714-1.218.12-2.088 1.482-1.932 3.036h-.006zm2.022-2.142c.33-.03.66.12.942.426.312.342.516.828.57 1.362.054.534-.048 1.05-.288 1.452-.216.354-.51.57-.84.6-.708.066-1.404-.75-1.512-1.788-.102-1.044.414-1.98 1.128-2.052zm-2.796 7.056c.858-.402 1.152-1.608.648-2.682-.504-1.074-1.614-1.626-2.472-1.224-.882.408-1.164 1.584-.654 2.682.39.84 1.152 1.356 1.872 1.356.204 0 .408-.042.6-.132h.006zm-1.656-1.602c-.288-.618-.192-1.296.21-1.488.402-.186.99.174 1.278.786.288.618.192 1.296-.21 1.488-.402.186-.99-.174-1.278-.786z" fill="#193A56"/>
</svg>
