<svg width="40" height="40" viewBox="0 0 40 40" fill="none" xmlns="http://www.w3.org/2000/svg">
<path d="M34.6002 26.15C33.7802 24.73 31.9502 24.24 30.5702 25.05L26.4502 27.18C26.2602 26.07 25.4502 25.11 24.3102 24.81C22.6102 24.31 16.9702 22.69 15.9202 22.69C14.8702 22.69 12.3002 24.41 10.3702 25.86L6.40021 28.82C6.00021 29.12 5.88021 29.66 6.12021 30.1L9.62021 36.5C9.75021 36.73 9.96021 36.91 10.2202 36.98C10.3102 37.01 10.4102 37.02 10.5002 37.02C10.6702 37.02 10.8302 36.98 10.9802 36.9L15.0802 34.64C16.6902 34.96 22.3602 35.99 24.6802 35.3H24.7102C24.7102 35.3 24.7302 35.29 24.7402 35.28C24.7502 35.28 24.7602 35.26 24.7802 35.26C24.8302 35.24 24.8902 35.22 24.9402 35.19L33.5002 30.22C34.9202 29.4 35.4102 27.57 34.5802 26.15H34.6002ZM32.5102 28.49L24.0702 33.39C22.4602 33.83 17.7602 33.15 15.1302 32.6C14.9002 32.55 14.6502 32.59 14.4402 32.7L10.9002 34.65L8.30021 29.89L11.5702 27.44C13.2502 26.18 15.4202 24.76 15.9102 24.67C16.5202 24.69 20.3702 25.73 23.7702 26.72C24.2902 26.86 24.6002 27.4 24.4702 27.92C24.3302 28.44 23.7902 28.75 23.2002 28.6L18.0902 27.64C17.5502 27.54 17.0302 27.9 16.9202 28.44C16.8202 28.98 17.1702 29.51 17.7202 29.61L22.7602 30.56C23.9002 30.86 25.0502 30.45 25.7802 29.61C25.9502 29.61 26.1202 29.6 26.2902 29.52L31.5502 26.8C32.0202 26.53 32.6202 26.69 32.8902 27.16C33.1602 27.63 33.0002 28.23 32.5302 28.5L32.5102 28.49ZM15.1202 21.62C15.3802 21.8 15.7602 21.96 16.2502 21.96C16.6202 21.96 17.0502 21.87 17.5502 21.64C18.4502 21.22 19.2102 21.06 19.7602 21C20.2202 20.96 21.6002 20.92 23.1602 21.64C23.6602 21.87 24.0902 21.96 24.4602 21.96C24.9502 21.96 25.3302 21.8 25.5902 21.62C26.7302 20.86 26.7102 19.19 26.7002 18.86C26.7002 18.83 26.7002 18.79 26.7002 18.76C26.6602 18.52 25.7602 12.77 21.9602 11.82C21.9002 11.81 21.8402 11.81 21.7802 11.8C21.7002 11.78 21.6202 11.75 21.5402 11.75H19.3802C19.1602 11.75 18.9602 11.77 18.7802 11.82C14.9702 12.77 14.0702 18.52 14.0302 18.76C14.0302 18.79 14.0302 18.83 14.0302 18.86C14.0202 19.19 14.0002 20.86 15.1402 21.62H15.1202ZM19.2502 13.76C19.2502 13.76 19.3002 13.76 19.3702 13.76H21.3502C21.4202 13.76 21.4502 13.76 21.4702 13.76C23.5302 14.27 24.5002 17.66 24.7102 19C24.7102 19.42 24.5902 19.88 24.5002 19.96C24.5002 19.96 24.3702 19.99 24.0102 19.83C22.9502 19.34 21.9702 19.13 21.1702 19.05C21.0702 19.03 20.5402 18.93 19.7102 19.01C19.4502 19.03 19.2902 19.05 19.2702 19.06C19.2702 19.06 19.2602 19.06 19.2502 19.06C18.5502 19.17 17.7002 19.39 16.7302 19.83C16.3902 19.99 16.2502 19.96 16.2502 19.97C16.1402 19.88 16.0202 19.42 16.0202 19.01C16.1102 18.49 16.9202 14.35 19.2602 13.77L19.2502 13.76Z" fill="#193a56"/>
<path d="M15.51 10.05C15.2 9.20999 14.63 8.55999 13.93 8.24999C13.4 8.01999 12.83 8.00999 12.33 8.22999C11.16 8.72999 10.68 10.29 11.22 11.77C11.53 12.61 12.1 13.27 12.8 13.57C13.07 13.69 13.36 13.75 13.64 13.75C13.9 13.75 14.16 13.7 14.4 13.59C15.57 13.09 16.06 11.53 15.52 10.05H15.51ZM13.63 11.75C13.54 11.75 13.25 11.55 13.09 11.09C12.89 10.54 13.04 10.12 13.09 10.08C13.18 10.08 13.47 10.28 13.63 10.74C13.83 11.29 13.68 11.71 13.63 11.76V11.75ZM17.46 3.99999C16 4.10999 14.95 5.65999 15.07 7.52999C15.13 8.57999 15.56 9.51999 16.23 10.11C16.67 10.5 17.21 10.71 17.75 10.71C17.8 10.71 17.85 10.71 17.9 10.71C19.36 10.6 20.41 9.04999 20.29 7.17999C20.22 6.12999 19.8 5.18999 19.13 4.59999C18.65 4.16999 18.04 3.96999 17.46 3.99999ZM17.75 8.69999C17.69 8.71999 17.58 8.62999 17.54 8.59999C17.34 8.42999 17.1 8.00999 17.06 7.39999C17.01 6.56999 17.39 6.00999 17.6 5.98999C17.67 5.98999 17.75 6.04999 17.8 6.08999C18 6.25999 18.24 6.67999 18.28 7.28999C18.33 8.11999 17.95 8.67999 17.74 8.69999H17.75ZM28.92 8.18999C28.42 7.97999 27.85 7.97999 27.32 8.20999C26.62 8.50999 26.04 9.16999 25.74 10.01C25.2 11.5 25.69 13.05 26.85 13.55C27.09 13.65 27.35 13.71 27.61 13.71C27.89 13.71 28.17 13.65 28.45 13.53C29.15 13.23 29.73 12.57 30.03 11.73C30.57 10.24 30.08 8.68999 28.91 8.18999H28.92ZM28.16 11.05C27.99 11.51 27.71 11.71 27.65 11.72C27.57 11.66 27.42 11.25 27.62 10.7C27.79 10.24 28.07 10.04 28.13 10.03C28.21 10.09 28.36 10.5 28.16 11.05ZM23.78 3.99999C23.19 3.95999 22.6 4.16999 22.11 4.58999C21.44 5.17999 21.01 6.11999 20.95 7.16999C20.83 9.03999 21.89 10.59 23.34 10.7C23.39 10.7 23.44 10.7 23.49 10.7C24.03 10.7 24.56 10.49 25.01 10.1C25.68 9.50999 26.11 8.56999 26.17 7.51999C26.29 5.64999 25.24 4.09999 23.78 3.98999V3.99999ZM23.7 8.59999C23.7 8.59999 23.57 8.69999 23.49 8.69999C23.28 8.67999 22.9 8.11999 22.95 7.28999C22.99 6.67999 23.23 6.26999 23.43 6.08999C23.48 6.04999 23.57 5.96999 23.64 5.98999C23.85 6.00999 24.23 6.56999 24.18 7.39999C24.14 8.00999 23.9 8.41999 23.7 8.59999Z" fill="#193a56"/>
</svg>
