<svg width="40" height="40" viewBox="0 0 40 40" fill="none" xmlns="http://www.w3.org/2000/svg">
<path d="M22.76 13.71H22.75C22.75 13.71 22.82 13.63 22.85 13.59C22.89 13.53 22.93 13.47 22.97 13.41C23.28 12.91 23.46 12.34 23.46 11.71C23.46 11.4 23.4 11.11 23.32 10.83C23.29 10.73 23.27 10.63 23.23 10.54C23.03 10.02 22.7 9.57997 22.28 9.22997C21.72 8.75997 21 8.46997 20.21 8.46997C19.71 8.46997 19.24 8.58997 18.82 8.78997C18.53 8.92997 18.26 9.10997 18.03 9.31997C17.75 9.57997 17.52 9.87997 17.34 10.22C17.2 10.48 17.09 10.75 17.03 11.05C16.99 11.26 16.96 11.49 16.96 11.71C16.96 12.47 17.23 13.16 17.67 13.71C16.35 14.55 15.46 16.02 15.46 17.71V19.96C15.46 20.51 15.91 20.96 16.46 20.96H23.96C24.51 20.96 24.96 20.51 24.96 19.96V17.71C24.96 16.03 24.08 14.56 22.76 13.72V13.71ZM20.21 10.46C20.9 10.46 21.46 11.02 21.46 11.71C21.46 12.4 20.9 12.96 20.21 12.96C19.52 12.96 18.96 12.4 18.96 11.71C18.96 11.02 19.52 10.46 20.21 10.46ZM22.96 18.95H17.46V17.7C17.46 16.18 18.69 14.95 20.21 14.95C21.73 14.95 22.96 16.18 22.96 17.7V18.95Z" fill="#193A56"/>
<path d="M23.23 10.53C23.27 10.62 23.29 10.72 23.32 10.82C23.4 11.1 23.46 11.4 23.46 11.7C23.46 12.32 23.27 12.9 22.97 13.4C23.63 12.43 24.72 11.83 25.91 11.83C27.87 11.83 29.47 13.43 29.47 15.39V18.95H24.97V19.95C24.97 20.5 24.52 20.95 23.97 20.95H30.47C31.02 20.95 31.47 20.5 31.47 19.95V15.39C31.47 13.35 30.36 11.57 28.72 10.6C29.36 9.91 29.76 9 29.76 7.98C29.76 5.86 28.03 4.13 25.91 4.13C23.79 4.13 22.06 5.86 22.06 7.98C22.06 8.41 22.15 8.82 22.28 9.21C22.7 9.56 23.03 10.01 23.23 10.52V10.53ZM25.9 6.14C26.92 6.14 27.75 6.97 27.75 7.99C27.75 9.01 26.92 9.84 25.9 9.84C24.88 9.84 24.05 9.01 24.05 7.99C24.05 6.97 24.88 6.14 25.9 6.14ZM10.96 20.95H16.47C15.92 20.95 15.47 20.5 15.47 19.95V18.95H11.96V14.26C11.96 12.3 13.55 10.7 15.52 10.7C16.05 10.7 16.57 10.82 17.04 11.04C17.1 10.74 17.21 10.47 17.35 10.21C17.53 9.87 17.76 9.57 18.04 9.31C18.28 9.1 18.54 8.92 18.83 8.78C19.16 8.21 19.37 7.56 19.37 6.85C19.37 4.73 17.64 3 15.52 3C13.4 3 11.67 4.73 11.67 6.85C11.67 7.86 12.07 8.78 12.71 9.47C11.07 10.44 9.95997 12.22 9.95997 14.26V19.95C9.95997 20.5 10.41 20.95 10.96 20.95ZM15.51 5C16.53 5 17.36 5.83 17.36 6.85C17.36 7.87 16.53 8.7 15.51 8.7C14.49 8.7 13.66 7.87 13.66 6.85C13.66 5.83 14.49 5 15.51 5ZM34.6 26.12C33.77 24.7 31.95 24.21 30.57 25.02L26.45 27.15C26.39 26.8 26.28 26.47 26.1 26.15C25.7 25.46 25.06 24.97 24.31 24.77C22.61 24.27 16.97 22.65 15.92 22.65C14.87 22.65 12.3 24.37 10.37 25.82L6.39997 28.79C5.99997 29.09 5.87997 29.63 6.11997 30.07L9.61997 36.47C9.74997 36.7 9.95997 36.88 10.22 36.95C10.31 36.98 10.41 36.99 10.5 36.99C10.67 36.99 10.83 36.95 10.98 36.87L15.08 34.61C16.69 34.93 22.36 35.96 24.68 35.27C24.69 35.27 24.7 35.27 24.71 35.27C24.73 35.27 24.76 35.25 24.78 35.24C24.83 35.22 24.89 35.2 24.94 35.17L33.5 30.2C34.92 29.38 35.41 27.55 34.58 26.13L34.6 26.12ZM32.51 28.46L24.07 33.36C22.46 33.8 17.76 33.12 15.13 32.57C14.9 32.52 14.65 32.56 14.44 32.67L10.9 34.62L8.29997 29.86L11.57 27.41C13.25 26.15 15.42 24.73 15.92 24.64C16.53 24.66 20.38 25.7 23.78 26.69C24.03 26.76 24.24 26.92 24.38 27.15C24.51 27.38 24.55 27.64 24.48 27.89C24.41 28.14 24.25 28.35 24.02 28.49C23.79 28.62 23.53 28.66 23.2 28.57L18.09 27.61C17.55 27.51 17.03 27.87 16.92 28.41C16.82 28.95 17.17 29.48 17.72 29.58L22.76 30.52C23.53 30.73 24.33 30.62 25.02 30.22C25.31 30.05 25.56 29.83 25.78 29.58C25.95 29.58 26.12 29.57 26.29 29.49L31.55 26.77C32.02 26.5 32.62 26.66 32.89 27.12C33.16 27.59 33 28.19 32.53 28.46H32.51Z" fill="#193A56"/>
</svg>
