<svg width="40" height="40" viewBox="0 0 40 40" fill="none" xmlns="http://www.w3.org/2000/svg">
<path d="M32.9802 25.3C32.1902 23.94 30.4302 23.47 29.1102 24.24L25.3002 26.21C25.2402 25.91 25.1402 25.61 24.9802 25.33C24.6002 24.67 23.9802 24.2 23.2702 24.01C21.2202 23.41 16.3402 22.01 15.3702 22.01C14.3302 22.01 11.9402 23.64 10.1202 25L6.40021 27.79C6.00021 28.09 5.88021 28.63 6.12021 29.07L9.41021 35.08C9.54021 35.31 9.75021 35.49 10.0102 35.56C10.1002 35.59 10.2002 35.6 10.2902 35.6C10.4602 35.6 10.6202 35.56 10.7702 35.48L14.6002 33.36C16.1502 33.67 21.4402 34.63 23.6302 33.98H23.6602C23.6602 33.98 23.6802 33.97 23.6902 33.96C23.7002 33.96 23.7102 33.94 23.7302 33.94C23.7802 33.92 23.8402 33.9 23.8902 33.87L31.9402 29.2C32.6002 28.82 33.0702 28.2 33.2702 27.46C33.4702 26.72 33.3602 25.95 32.9802 25.29V25.3ZM31.3402 26.96C31.2802 27.18 31.1402 27.37 30.9402 27.48L23.0102 32.08C21.5002 32.49 17.1102 31.85 14.6402 31.33C14.4102 31.28 14.1602 31.32 13.9502 31.43L10.6802 33.24L8.29021 28.87L11.3202 26.6C12.8902 25.43 14.9102 24.1 15.3602 24.01C15.9402 24.03 19.5502 25 22.7302 25.93C22.9502 25.99 23.1402 26.13 23.2502 26.33C23.3602 26.53 23.4002 26.76 23.3402 26.98C23.2202 27.44 22.7502 27.71 22.2202 27.57L17.4202 26.67C16.8802 26.57 16.3502 26.93 16.2502 27.47C16.1502 28.01 16.5002 28.54 17.0502 28.64L21.7802 29.53C22.8602 29.82 23.9602 29.43 24.6502 28.65C24.8102 28.65 24.9802 28.63 25.1302 28.55L30.0702 25.99C30.2702 25.87 30.5002 25.84 30.7202 25.9C30.9402 25.96 31.1302 26.1 31.2402 26.3C31.3602 26.5 31.3902 26.73 31.3302 26.95L31.3402 26.96ZM13.1902 10.54L14.3502 11.7L14.5602 11.91L15.2702 12.62L15.9802 13.33L18.7202 16.07L19.4302 16.78L20.1402 17.49L21.5102 18.86C21.5702 18.92 21.6502 18.98 21.7202 19.02C22.4302 19.56 23.2702 19.83 24.1002 19.83C25.1102 19.83 26.1102 19.44 26.8802 18.67C28.2802 17.27 28.4202 15.08 27.2402 13.52C27.2002 13.44 27.1402 13.36 27.0702 13.3L25.9702 12.19L25.7102 11.93L25.0002 11.22L24.2902 10.51L21.5502 7.77001L20.1402 6.36001L19.9302 6.15001L18.7702 4.99001C18.7102 4.93001 18.6402 4.87001 18.5602 4.83001C16.9902 3.63001 14.8002 3.77001 13.3902 5.18001C11.9802 6.59001 11.8402 8.77001 13.0402 10.34C13.0802 10.42 13.1402 10.49 13.2102 10.56L13.1902 10.54ZM25.2502 14.29L25.5302 14.57C25.5302 14.57 25.5602 14.61 25.5802 14.63C26.2302 15.4 26.1702 16.52 25.4602 17.24C24.7602 17.94 23.6102 17.99 22.8502 17.36C22.8302 17.34 22.8102 17.33 22.7902 17.31L22.5102 17.03L25.2502 14.29ZM19.2102 8.25001L19.4202 8.46001L23.5702 12.61L23.8302 12.87L21.0902 15.61L20.8302 15.35L16.6802 11.2L16.4702 10.99L19.2102 8.25001ZM14.7902 6.57001C15.5002 5.86001 16.6202 5.80001 17.4002 6.45001C17.4202 6.47001 17.4402 6.48001 17.4502 6.49001L17.7902 6.83001L15.0502 9.57001L14.7102 9.23001C14.7102 9.23001 14.6802 9.19001 14.6702 9.17001C14.0302 8.40001 14.0802 7.28001 14.7902 6.56001V6.57001Z" fill="#193A56"/>
<path d="M27.2201 10.36C27.1801 10.44 27.1201 10.51 27.0501 10.58L25.6801 11.95L24.9701 11.24L24.2601 10.53L25.5101 9.28002C25.5101 9.28002 25.5401 9.24002 25.5601 9.22002C26.2101 8.45002 26.1501 7.33002 25.4401 6.61002C24.7401 5.91002 23.5901 5.86002 22.8301 6.49002C22.8101 6.51002 22.7901 6.52002 22.7701 6.54002L21.5201 7.79002L20.1101 6.38002L21.4801 5.01002C21.5501 4.94002 21.6201 4.89002 21.7001 4.84002C23.2701 3.65002 25.4501 3.79002 26.8601 5.20002C28.2701 6.61002 28.4001 8.79002 27.2101 10.36H27.2201ZM18.7001 16.1L17.4401 17.36C17.4401 17.36 17.4001 17.39 17.3801 17.4C16.6101 18.05 15.4901 17.99 14.7701 17.28C14.0501 16.57 14.0101 15.45 14.6501 14.67C14.6701 14.65 14.6801 14.63 14.6901 14.61L15.9401 13.35L15.2301 12.64L14.5201 11.93L13.1501 13.3C13.0801 13.36 13.0301 13.44 12.9901 13.51C11.7901 15.08 11.9301 17.27 13.3401 18.67C14.1101 19.44 15.1101 19.83 16.1201 19.83C16.9501 19.83 17.7901 19.56 18.5001 19.02C18.5801 18.98 18.6501 18.92 18.7201 18.85L20.0901 17.48L19.3801 16.77L18.6701 16.06L18.7001 16.1ZM20.4701 12.27C20.0801 12.66 20.0801 13.3 20.4701 13.68C20.8601 14.06 21.5001 14.07 21.8801 13.68C22.2601 13.29 22.2701 12.65 21.8801 12.27C21.4901 11.89 20.8501 11.88 20.4701 12.27ZM18.4301 10.27C18.0401 10.66 18.0401 11.3 18.4301 11.68C18.8201 12.06 19.4601 12.07 19.8401 11.68C20.2201 11.29 20.2301 10.65 19.8401 10.27C19.4501 9.89002 18.8101 9.88002 18.4301 10.27Z" fill="#193A56"/>
</svg>
