<svg width="40" height="40" viewBox="0 0 40 40" fill="none" xmlns="http://www.w3.org/2000/svg">
<path d="M15.123 16.34C14.803 16.23 14.473 16.16 14.123 16.16C13.773 16.16 13.443 16.23 13.123 16.34C11.923 16.76 11.043 17.89 11.043 19.24C11.043 20.94 12.423 22.32 14.123 22.32C15.823 22.32 17.203 20.94 17.203 19.24C17.203 17.9 16.333 16.76 15.123 16.34ZM14.123 20.31C13.533 20.31 13.043 19.83 13.043 19.23C13.043 18.63 13.523 18.15 14.123 18.15C14.723 18.15 15.203 18.63 15.203 19.23C15.203 19.83 14.723 20.31 14.123 20.31Z" fill="#193a56"/>
<path d="M34.6031 26.19C34.2031 25.5 33.5631 25.01 32.7931 24.81C32.0131 24.6 31.2231 24.71 30.5731 25.09L26.4531 27.22C26.2631 26.11 25.4531 25.15 24.3131 24.85C22.6131 24.35 16.9731 22.73 15.9231 22.73C14.8731 22.73 12.3031 24.45 10.3731 25.9L6.40314 28.86C6.00314 29.16 5.88314 29.7 6.12314 30.14L9.62314 36.54C9.75314 36.77 9.96314 36.95 10.2231 37.02C10.3131 37.05 10.4131 37.06 10.5031 37.06C10.6731 37.06 10.8331 37.02 10.9831 36.94L15.0831 34.68C16.6931 35 22.3631 36.03 24.6831 35.34H24.7131C24.7131 35.34 24.7331 35.33 24.7431 35.32C24.7531 35.32 24.7631 35.3 24.7831 35.3C24.8331 35.28 24.8931 35.26 24.9431 35.23L33.5031 30.26C34.1931 29.86 34.6831 29.22 34.8831 28.45C35.0831 27.68 34.9831 26.88 34.5831 26.19H34.6031ZM32.9731 27.94C32.9031 28.19 32.7431 28.4 32.5131 28.54L24.0731 33.44C22.4631 33.88 17.7631 33.2 15.1331 32.65C14.9031 32.6 14.6531 32.64 14.4431 32.75L10.9031 34.7L8.30314 29.94L11.5731 27.49C13.2531 26.23 15.4231 24.81 15.9131 24.72C16.5231 24.74 20.3731 25.78 23.7731 26.77C24.2931 26.91 24.6031 27.45 24.4731 27.97C24.3331 28.49 23.7931 28.8 23.2031 28.65L18.0931 27.69C17.5531 27.59 17.0231 27.95 16.9231 28.49C16.8231 29.03 17.1731 29.56 17.7231 29.66L22.7631 30.61C23.9031 30.91 25.0531 30.5 25.7831 29.66C25.9531 29.66 26.1231 29.66 26.2931 29.57L31.5531 26.85C31.7831 26.72 32.0431 26.68 32.2931 26.75C32.5431 26.82 32.7531 26.98 32.8931 27.21C33.0231 27.44 33.0631 27.7 32.9931 27.95L32.9731 27.94ZM14.1231 16.16C13.7731 16.16 13.4431 16.23 13.1231 16.34V15.19C13.1231 13.21 14.7331 11.59 16.7231 11.59C18.7131 11.59 20.3231 13.2 20.3231 15.19V18.44C20.3231 19.32 21.0431 20.04 21.9231 20.04C22.8031 20.04 23.5231 19.32 23.5231 18.44V15.26C19.8531 14.33 18.6731 8.38 18.6731 6.09C18.6731 4.93 19.1731 4.32 19.5931 4.02C19.9931 3.73 20.4331 3.63 20.8431 3.61C21.0031 3.26 21.3431 3.02 21.7531 3.02C22.3031 3.02 22.7531 3.47 22.7531 4.02V5.4C22.7531 5.95 22.3031 6.4 21.7531 6.4C21.2831 6.4 20.9031 6.07 20.8031 5.63C20.8031 5.63 20.7731 5.63 20.7731 5.64C20.7531 5.66 20.6831 5.78 20.6831 6.09C20.6831 8.28 21.9931 13.4 24.5331 13.4C27.0731 13.4 28.3831 8.28 28.3831 6.09C28.3831 5.78 28.3131 5.66 28.2931 5.64C28.2931 5.64 28.2731 5.64 28.2631 5.63C28.1531 6.07 27.7831 6.4 27.3131 6.4C26.7631 6.4 26.3131 5.95 26.3131 5.4V4C26.3131 3.45 26.7631 3 27.3131 3C27.7231 3 28.0631 3.24 28.2231 3.59C28.6231 3.61 29.0731 3.72 29.4731 4C29.8931 4.3 30.3931 4.91 30.3931 6.07C30.3931 8.36 29.2131 14.31 25.5431 15.24V18.42C25.5431 20.4 23.9331 22.02 21.9431 22.02C19.9531 22.02 18.3431 20.41 18.3431 18.42V15.17C18.3431 14.29 17.6231 13.57 16.7431 13.57C15.8631 13.57 15.1431 14.29 15.1431 15.17V16.32C14.8231 16.21 14.4931 16.14 14.1431 16.14L14.1231 16.16Z" fill="#193a56"/>
</svg>
