<svg width="40" height="40" viewBox="0 0 40 40" fill="none" xmlns="http://www.w3.org/2000/svg">
<path d="M9.83 35C9.28 35 8.83 34.55 8.83 34V25.99C7.4 23.28 6 19.64 6 17.44C6 13.98 8.23 5 18.44 5C29.34 5 31.29 14.52 31.31 14.61C31.32 14.67 31.33 14.73 31.33 14.8V19.57C31.36 19.92 31.95 21.15 32.34 21.97C33.3 23.98 33.75 24.97 33.26 25.75C33.03 26.11 32.65 26.31 32.21 26.31C31.27 26.31 30.63 26.33 30.2 26.35V29.39C30.2 30.94 29.76 32.08 28.88 32.77C27.89 33.55 26.72 33.44 26.31 33.37H22.46C19.73 33.37 18.85 30.42 18.77 28.86C18.74 28.31 19.16 27.84 19.72 27.81C20.27 27.78 20.74 28.2 20.77 28.75C20.77 28.75 20.95 31.37 22.47 31.37H26.42C26.5 31.37 26.58 31.37 26.65 31.4C26.65 31.4 27.25 31.52 27.66 31.19C28.11 30.82 28.21 30.01 28.21 29.39V25.44C28.21 24.98 28.52 24.58 28.96 24.47C29.09 24.44 29.6 24.34 31.23 24.32C31.04 23.86 30.76 23.28 30.54 22.83C29.83 21.34 29.39 20.38 29.34 19.64V14.9C29.13 14 27.26 6.99 18.45 6.99C8.12 7 8 17.33 8 17.44C8 19.07 9.12 22.29 10.72 25.27C10.8 25.42 10.84 25.58 10.84 25.74V34C10.84 34.55 10.39 35 9.84 35H9.83Z" fill="#193A56"/>
<path d="M23.93 11.75C23.54 11.36 22.91 11.36 22.52 11.75L21.58 12.69C20.73 11.64 19.59 11.01 18.32 11.01C15.64 11.01 13.55 13.8 13.55 17.36C13.55 18.4 13.73 19.36 14.05 20.22L12.72 21.55C12.33 21.94 12.33 22.57 12.72 22.96C12.92 23.16 13.17 23.25 13.43 23.25C13.69 23.25 13.94 23.15 14.14 22.96L15.08 22.02C15.93 23.06 17.07 23.7 18.34 23.7C21.02 23.7 23.11 20.91 23.11 17.35C23.11 16.31 22.93 15.35 22.61 14.49L23.94 13.16C24.33 12.77 24.33 12.14 23.94 11.75H23.93ZM15.55 17.36C15.55 15 16.82 13.01 18.32 13.01C19.01 13.01 19.65 13.44 20.14 14.13L15.68 18.59C15.6 18.2 15.55 17.79 15.55 17.36ZM21.1 17.36C21.1 19.72 19.83 21.71 18.33 21.71C17.64 21.71 17 21.28 16.51 20.59L20.97 16.13C21.05 16.52 21.1 16.93 21.1 17.36Z" fill="#193A56"/>
</svg>
