<svg width="40" height="40" viewBox="0 0 40 40" fill="none" xmlns="http://www.w3.org/2000/svg">
<path d="M24.43 11.42C26.2 11.42 27.64 9.98 27.64 8.21C27.64 6.44 26.2 5 24.43 5C22.66 5 21.22 6.44 21.22 8.21C21.22 9.98 22.66 11.42 24.43 11.42ZM24.43 6.5C25.37 6.5 26.14 7.27 26.14 8.21C26.14 9.15 25.37 9.92 24.43 9.92C23.49 9.92 22.72 9.15 22.72 8.21C22.72 7.27 23.49 6.5 24.43 6.5ZM32.32 16.34C32.27 16.32 27.21 14.04 22.64 12.22C22.43 12.13 22.25 12.06 22.05 11.99C21.98 11.96 21.91 11.94 21.85 11.91C17.67 10.31 14.89 9.52 13.39 9.52C9.69 9.52 7 12.21 7 15.91C7 18 8.04 20.15 9.64 21.39C10.52 22.07 11.5 22.42 12.5 22.42C12.86 22.42 13.23 22.37 13.58 22.28C14.87 21.94 16.34 21.04 17.8 19.74L16.95 21.32V21.34L17.11 28.23L11.13 34.8L12.24 35.81L18.42 29.02C18.55 28.88 18.62 28.69 18.62 28.5L18.49 22.95L22.74 27.36V35.82H24.24V26.76L18.79 21.1L21.87 15.38L24.91 19.88L31.72 17.73L32.34 16.36L32.32 16.34ZM13.2 20.82C12.07 21.12 11.13 20.65 10.55 20.2C9.32 19.25 8.5 17.53 8.5 15.91C8.5 13.03 10.51 11.02 13.39 11.02C14.29 11.02 16.37 11.42 21.23 13.27C18.87 17.08 15.58 20.2 13.2 20.82ZM25.51 18.09L22.64 13.83C25.21 14.87 27.86 16.01 29.63 16.79L25.51 18.09Z" fill="#193A56"/>
</svg>
