<svg width="40" height="40" viewBox="0 0 40 40" fill="none" xmlns="http://www.w3.org/2000/svg">
<path d="M21.4698 9.46C21.4698 10.01 21.0198 10.46 20.4698 10.46H16.0098V14.92C16.0098 15.47 15.5598 15.92 15.0098 15.92C14.4598 15.92 14.0098 15.47 14.0098 14.92V10.46H9.5498C8.9998 10.46 8.5498 10.01 8.5498 9.46C8.5498 8.91 8.9998 8.46 9.5498 8.46H14.0098V4C14.0098 3.45 14.4598 3 15.0098 3C15.5598 3 16.0098 3.45 16.0098 4V8.46H20.4698C21.0198 8.46 21.4698 8.91 21.4698 9.46Z" fill="#193a56"/>
<path d="M34.0698 28C34.6198 28 35.0698 27.55 35.0698 27V15.95C35.0698 15.4 34.6198 14.95 34.0698 14.95C33.5198 14.95 33.0698 15.4 33.0698 15.95V18.4H18.1098C17.5598 18.4 17.1098 18.85 17.1098 19.4V21.71H12.2798V21.18C12.2798 19.45 10.9498 18.05 9.31977 18.05H7.91977C7.59977 18.05 7.28977 18.12 7.00977 18.22V13.82C7.00977 13.27 6.55977 12.82 6.00977 12.82C5.45977 12.82 5.00977 13.27 5.00977 13.82V27.01C5.00977 27.56 5.45977 28.01 6.00977 28.01H7.00977V31.17C5.84977 31.57 5.02977 32.65 5.02977 33.94C5.02977 35.58 6.35977 36.91 7.99977 36.91C9.63977 36.91 10.9698 35.58 10.9698 33.94C10.9698 32.65 10.1398 31.57 8.99977 31.16V30.97H30.9598V31.14C29.8098 31.55 28.9798 32.64 28.9798 33.93C28.9798 35.57 30.3198 36.91 31.9598 36.91C33.5998 36.91 34.9398 35.57 34.9398 33.93C34.9398 32.64 34.1098 31.55 32.9598 31.14V28H34.0698ZM6.99977 21.16C6.99977 20.53 7.39977 20.04 7.90977 20.04H9.30977C9.82977 20.04 10.2698 20.56 10.2698 21.17V21.7H6.99977V21.16ZM7.99977 34.9C7.46977 34.9 7.02977 34.46 7.02977 33.93C7.02977 33.4 7.45977 32.96 7.99977 32.96C8.53977 32.96 8.96977 33.4 8.96977 33.93C8.96977 34.46 8.53977 34.9 7.99977 34.9ZM6.99977 25.99V23.7H17.1098V25.99H6.99977ZM30.9598 28.96H8.99977V27.99H30.9598V28.96ZM31.9598 34.91C31.4198 34.91 30.9798 34.47 30.9798 33.93C30.9798 33.39 31.4198 32.95 31.9598 32.95C32.4998 32.95 32.9398 33.39 32.9398 33.93C32.9398 34.47 32.4998 34.91 31.9598 34.91ZM19.0998 26V20.4H33.0598V26H19.1098H19.0998Z" fill="#193a56"/>
</svg>
