<svg width="40" height="40" viewBox="0 0 40 40" fill="none" xmlns="http://www.w3.org/2000/svg">
<path d="M34.98 19.64L29.39 16.58L31.88 9.54C32 9.2 31.93 8.82 31.69 8.55C31.45 8.28 31.09 8.15 30.74 8.22L23.88 9.6L21.08 5.42C20.71 4.86 19.79 4.86 19.42 5.42L16.63 9.61L9.77 8.23C9.41 8.16 9.05 8.28 8.82 8.56C8.58 8.83 8.51 9.21 8.63 9.55L11.11 16.56L5.55 19.33C5.21 19.5 5 19.85 5 20.22C5 20.59 5.21 20.95 5.55 21.11L10.99 23.83L8.27 29.27C8.1 29.61 8.14 30.02 8.37 30.32C8.6 30.62 8.99 30.77 9.36 30.69L16.53 29.26L19.36 34.91C19.53 35.25 19.88 35.46 20.25 35.46C20.62 35.46 20.97 35.25 21.14 34.91L23.97 29.26L31.14 30.69C31.51 30.77 31.9 30.62 32.13 30.32C32.36 30.02 32.4 29.61 32.23 29.27L29.53 23.87L34.92 21.43C35.26 21.27 35.49 20.94 35.51 20.56C35.52 20.18 35.32 19.83 34.99 19.64H34.98ZM27.75 22.47C27.5 22.58 27.31 22.79 27.22 23.05C27.13 23.31 27.15 23.59 27.27 23.83L29.52 28.33L23.61 27.15C23.17 27.06 22.72 27.28 22.52 27.68L20.25 32.22L17.98 27.68C17.81 27.34 17.46 27.13 17.09 27.13C17.03 27.13 16.96 27.13 16.89 27.15L10.98 28.33L13.23 23.83C13.48 23.34 13.28 22.74 12.78 22.49L8.24 20.22L12.78 17.95C13.23 17.72 13.44 17.2 13.28 16.72L11.1 10.54L16.89 11.7C17.28 11.78 17.69 11.61 17.92 11.27L20.25 7.77L22.58 11.27C22.81 11.61 23.21 11.78 23.61 11.7L29.4 10.54L27.22 16.72C27.06 17.18 27.25 17.7 27.68 17.93L32.26 20.43L27.75 22.47Z" fill="#193A56"/>
<path d="M21.21 13.86V20.19C21.21 20.74 20.76 21.19 20.21 21.19C19.66 21.19 19.21 20.74 19.21 20.19V13.86C19.21 13.31 19.66 12.86 20.21 12.86C20.76 12.86 21.21 13.31 21.21 13.86ZM20.21 23.19C19.66 23.19 19.21 23.64 19.21 24.19C19.21 24.74 19.66 25.19 20.21 25.19C20.76 25.19 21.21 24.74 21.21 24.19C21.21 23.64 20.76 23.19 20.21 23.19Z" fill="#193A56"/>
</svg>
