<svg width="40" height="40" viewBox="0 0 40 40" fill="none" xmlns="http://www.w3.org/2000/svg">
<path d="M27.34 7.2H25.84V4H27.34V7.2ZM21.29 11.75H18.09V13.25H21.29V11.75ZM31.88 13.25H35.08V11.75H31.88V13.25ZM33.13 7.02L32.07 5.96L29.8 8.23L30.86 9.29L33.13 7.02ZM23.37 8.23L21.1 5.96L20.04 7.02L22.31 9.29L23.37 8.23ZM22.03 33.9H35.44V35.4H4.87V33.9H20.53V30.2H7.76L4 14.81H23.71C23.2 14.17 22.88 13.38 22.88 12.5C22.88 10.46 24.54 8.79 26.59 8.79C28.64 8.79 30.3 10.45 30.3 12.5C30.3 13.38 29.98 14.17 29.47 14.81H32.55L36.31 30.19H22.03V33.89V33.9ZM24.38 12.51C24.38 13.73 25.37 14.72 26.59 14.72C27.81 14.72 28.8 13.73 28.8 12.51C28.8 11.29 27.81 10.3 26.59 10.3C25.37 10.3 24.38 11.29 24.38 12.51ZM16.35 23.27L17.68 28.7H26.09L24.58 23.27H16.35ZM24.3 22.27L22.64 16.32H14.65L16.11 22.27H24.31H24.3ZM34.39 28.7L33.06 23.27H25.61L27.12 28.7H34.38H34.39ZM31.36 16.32H23.68L25.34 22.27H32.82L31.36 16.32ZM5.91 16.31L7.37 22.26H15.08L13.62 16.31H5.91ZM8.94 28.69H16.65L15.32 23.26H7.61L8.94 28.69Z" fill="#193A56"/>
</svg>
