<svg width="40" height="40" viewBox="0 0 40 40" fill="none" xmlns="http://www.w3.org/2000/svg">
<path d="M36.08 22.82H35.43C34.5 22.82 33.57 22.56 32.73 22.22V19.39L35.86 22.52L36.92 21.46L20.46 5L4 21.46L5.06 22.52L8.19 19.39V34.26H27.82C28.2 34.54 28.61 34.81 29.06 35.07L29.42 35.28L29.79 35.08C37.16 31.1 36.18 23.54 36.17 23.46L36.08 22.81V22.82ZM9.69 17.89L20.46 7.12L31.23 17.89V21.49C30.43 21.03 29.91 20.63 29.9 20.62L29.42 20.25L28.96 20.64C28.96 20.64 26.72 22.48 24.41 22.78V20.35H16.53V32.78H9.69V17.89ZM17.52 32.76V21.33H23.4V22.81H23.12L23.03 23.46C23.03 23.46 22.81 25.33 23.4 27.66V32.75H17.52V32.76ZM24.4 30.28C24.84 31.12 25.41 31.96 26.15 32.76H24.4V30.28ZM29.44 33.55C24.74 30.64 24.42 25.95 24.47 24.28C26.6 24.04 28.57 22.78 29.44 22.15C30.36 22.78 32.46 24.06 34.73 24.29C34.78 25.97 34.44 30.66 29.44 33.56V33.55ZM31.03 25.92L31.87 26.46L29.51 30.1L27.11 27.62L27.83 26.92L29.36 28.5L31.04 25.92H31.03Z" fill="#193A56"/>
</svg>
