<svg width="40" height="40" viewBox="0 0 40 40" fill="none" xmlns="http://www.w3.org/2000/svg">
<path d="M38.3599 22.36C38.2899 21.87 37.8699 21.5 37.3699 21.5C33.8799 21.5 30.2499 18.68 30.2099 18.66C30.1799 18.64 30.1499 18.63 30.1199 18.62C30.0599 18.58 30.0099 18.56 29.9399 18.53C29.8799 18.51 29.8199 18.49 29.7599 18.48C29.6999 18.47 29.6399 18.47 29.5699 18.47C29.5099 18.47 29.4399 18.47 29.3799 18.49C29.3199 18.5 29.2599 18.52 29.1999 18.55C29.1399 18.58 29.0799 18.6 29.0299 18.64C28.9999 18.66 28.9699 18.66 28.9399 18.69C28.9099 18.72 25.4999 21.52 22.2399 21.52C21.7399 21.52 21.3199 21.89 21.2499 22.39C21.2399 22.49 20.0399 32.28 29.0699 37.45H29.0799C29.0799 37.45 29.1699 37.5 29.2199 37.51C29.2499 37.52 29.2799 37.54 29.3199 37.55C29.3999 37.57 29.4899 37.58 29.5799 37.58C29.6599 37.58 29.7499 37.57 29.8299 37.55C29.8599 37.55 29.8899 37.53 29.9099 37.52C29.9599 37.5 30.0099 37.49 30.0499 37.47H30.0699C39.6199 32.29 38.3499 22.49 38.3399 22.39L38.3599 22.36ZM29.6099 35.39C23.5799 31.64 23.1299 25.63 23.1899 23.44C25.9399 23.12 28.4699 21.5 29.6099 20.68C30.7999 21.5 33.5099 23.14 36.4299 23.44C36.4899 25.62 36.0199 31.64 29.5999 35.38L29.6099 35.39Z" fill="#193a56"/>
<path d="M33.4502 27.55C33.4502 28.1 33.0002 28.55 32.4502 28.55H30.8502V30.15C30.8502 30.7 30.4002 31.15 29.8502 31.15C29.3002 31.15 28.8502 30.7 28.8502 30.15V28.55H27.2502C26.7002 28.55 26.2502 28.1 26.2502 27.55C26.2502 27 26.7002 26.55 27.2502 26.55H28.8502V24.95C28.8502 24.4 29.3002 23.95 29.8502 23.95C30.4002 23.95 30.8502 24.4 30.8502 24.95V26.55H32.4502C33.0002 26.55 33.4502 27 33.4502 27.55ZM27.3802 15.01V10.47C27.3802 9.59 28.1002 8.87 28.9802 8.87C29.8602 8.87 30.5802 9.59 30.5802 10.47V16.01C30.5802 16.56 31.0302 17.01 31.5802 17.01C32.1302 17.01 32.5802 16.56 32.5802 16.01V10.47C32.5802 8.48 30.9602 6.87 28.9802 6.87C28.3902 6.87 27.8402 7.02 27.3502 7.28C27.2402 5.39 25.6802 3.89 23.7702 3.89C23.1002 3.89 22.4802 4.09 21.9402 4.4C21.4402 3.01 20.1202 2 18.5602 2C16.7302 2 15.2302 3.37 15.0002 5.14C14.5002 4.88 13.9502 4.72 13.3502 4.72C11.3602 4.72 9.75015 6.34 9.75015 8.32V22.59L8.41015 20.91C7.17015 19.36 4.90015 19.1 3.34015 20.34C1.79015 21.58 1.53015 23.85 2.77015 25.4L5.59015 28.92L8.68015 33C9.11015 33.5 12.9702 37.93 16.6302 38.08H21.8902C22.4402 38.08 22.8902 37.64 22.8902 37.09C22.8902 36.54 22.4402 36.09 21.8902 36.09H16.6702C14.3402 35.99 11.2102 32.89 10.2402 31.75L7.17015 27.69L4.34015 24.15C3.79015 23.46 3.90015 22.45 4.59015 21.9C5.28015 21.35 6.29015 21.46 6.84015 22.15L9.96015 26.06C9.96015 26.06 9.99015 26.08 10.0002 26.09C10.0502 26.14 10.1002 26.18 10.1602 26.22C10.2102 26.26 10.2602 26.3 10.3102 26.32C10.3602 26.35 10.4202 26.36 10.4802 26.37C10.5502 26.39 10.6202 26.41 10.6902 26.41C10.7102 26.41 10.7202 26.42 10.7402 26.42C10.7802 26.42 10.8202 26.4 10.8602 26.4C10.9302 26.4 11.0002 26.38 11.0602 26.36C11.1302 26.34 11.1802 26.3 11.2402 26.27C11.2802 26.25 11.3202 26.24 11.3502 26.21C11.3602 26.2 11.3702 26.18 11.3802 26.17C11.4302 26.12 11.4702 26.07 11.5202 26.01C11.5602 25.96 11.5902 25.92 11.6202 25.86C11.6502 25.81 11.6602 25.75 11.6702 25.69C11.6902 25.62 11.7102 25.56 11.7102 25.49C11.7102 25.47 11.7202 25.46 11.7202 25.44V8.33C11.7202 7.45 12.4402 6.73 13.3202 6.73C14.2002 6.73 14.9202 7.45 14.9202 8.33V14.95C14.9202 15.5 15.3702 15.95 15.9202 15.95C16.4702 15.95 16.9202 15.5 16.9202 14.95V5.6C16.9202 4.72 17.6402 4 18.5202 4C19.4002 4 20.1202 4.72 20.1202 5.6V15.01C20.1202 15.56 20.5702 16.01 21.1202 16.01C21.6702 16.01 22.1202 15.56 22.1202 15.01V7.49C22.1202 6.61 22.8402 5.89 23.7202 5.89C24.6002 5.89 25.3202 6.61 25.3202 7.49V15.01C25.3202 15.56 25.7702 16.01 26.3202 16.01C26.8702 16.01 27.3202 15.56 27.3202 15.01H27.3802Z" fill="#193a56"/>
</svg>
