<svg width="40" height="40" viewBox="0 0 40 40" fill="none" xmlns="http://www.w3.org/2000/svg">
<path d="M30.72 31.74H34.14V33.24H29.87L28.33 30.67L24.89 36.31L20.95 27.99L16.95 37.38L12.93 30.45L10.69 33.23H6.54V31.73H9.98L13.14 27.8L16.75 34.02L20.88 24.32L25.06 33.14L28.34 27.75L30.72 31.73V31.74ZM20.46 3L4 19.46L5.06 20.52L8.19 17.39V27.51H9.69V15.89L20.46 5.12L31.23 15.89V27.51H32.73V17.39L35.86 20.52L36.92 19.46L20.46 3ZM24.4 27.51V18.33H16.52V27.51H17.52V19.33H23.4V27.51H24.4Z" fill="#193A56"/>
</svg>
