<svg width="40" height="40" viewBox="0 0 40 40" fill="none" xmlns="http://www.w3.org/2000/svg">
<path d="M32.5 23.39C32.45 23.29 32.39 23.2 32.31 23.12L30.24 21.05L29.13 19.94L27.72 18.53L21.36 12.17L20.21 11.02L19.94 10.75L16.76 7.57001C16.69 7.50001 16.6 7.44001 16.51 7.39001C13.91 5.36001 10.26 5.57001 7.91999 7.92001C5.58 10.25 5.36 13.9 7.36999 16.48C7.41999 16.58 7.47999 16.67 7.55999 16.75L9.73 18.92L10.74 19.93L11.44 20.64L19.22 28.42L19.93 29.13L23.11 32.31C23.18 32.38 23.27 32.44 23.36 32.49C24.54 33.41 25.95 33.87 27.35 33.87C29.01 33.87 30.67 33.23 31.94 31.95C34.28 29.61 34.49 25.97 32.49 23.38L32.5 23.39ZM27 20.64L28.11 21.75L21.75 28.11L12.59 18.95L11.86 18.22L18.22 11.86L19.23 12.87L27.01 20.65L27 20.64ZM9.13 15.5C9.13 15.5 9.07999 15.43 9.04999 15.39C7.54999 13.59 7.66999 10.99 9.32999 9.33001C10.99 7.67001 13.59 7.55001 15.39 9.05001C15.42 9.08001 15.46 9.11001 15.5 9.13001L16.81 10.44L10.45 16.8L9.14 15.49L9.13 15.5ZM30.54 30.55C28.88 32.21 26.28 32.33 24.48 30.83C24.45 30.8 24.41 30.77 24.37 30.75L23.16 29.54L29.52 23.18L30.73 24.38C30.73 24.38 30.78 24.46 30.81 24.49C32.31 26.29 32.19 28.89 30.54 30.55Z" fill="#193A56"/>
<path fill-rule="evenodd" clip-rule="evenodd" d="M32.4902 16.5C32.4402 16.59 32.3802 16.68 32.3102 16.75L29.1302 19.93L27.7202 18.52L30.7402 15.5C30.7402 15.5 30.7902 15.42 30.8202 15.39C32.3202 13.59 32.2002 10.99 30.5502 9.32999C28.8902 7.66999 26.2902 7.54999 24.4902 9.04999C24.4502 9.07999 24.4202 9.10999 24.3802 9.12999L21.3602 12.15L20.2102 11L19.9402 10.73L23.1202 7.54999C23.2002 7.46999 23.2902 7.40999 23.3902 7.35999C25.9802 5.34999 29.6202 5.56999 31.9602 7.90999C34.3002 10.25 34.5202 13.9 32.4902 16.49V16.5ZM19.2302 28.42L19.9402 29.13L16.7602 32.31C16.6802 32.39 16.5902 32.45 16.4902 32.5C15.3102 33.42 13.9102 33.87 12.5102 33.87C10.8502 33.87 9.1902 33.23 7.9202 31.95C5.5802 29.61 5.3702 25.96 7.3802 23.37C7.4202 23.28 7.4902 23.19 7.5602 23.11L10.7402 19.93L11.4402 20.64L19.2202 28.42H19.2302ZM18.5202 27.72L12.1602 21.36L9.1402 24.39C9.1402 24.39 9.0902 24.46 9.0602 24.5C7.5602 26.3 7.6802 28.9 9.3402 30.56C11.0002 32.22 13.6002 32.34 15.4002 30.84C15.4402 30.81 15.4702 30.78 15.5102 30.76L18.5302 27.74L18.5202 27.72ZM20.6902 23.53C20.3002 23.92 20.3002 24.56 20.6902 24.94C21.0802 25.32 21.7202 25.33 22.1002 24.94C22.4802 24.55 22.4902 23.91 22.1002 23.53C21.7102 23.14 21.0702 23.14 20.6902 23.53ZM19.2802 22.12C19.6702 21.73 19.6702 21.09 19.2802 20.71C18.8902 20.32 18.2502 20.32 17.8702 20.71C17.4802 21.1 17.4802 21.74 17.8702 22.12C18.2602 22.5 18.9002 22.51 19.2802 22.12ZM16.4502 19.29C16.8402 18.9 16.8402 18.26 16.4502 17.88C16.0602 17.49 15.4202 17.49 15.0402 17.88C14.6502 18.27 14.6502 18.91 15.0402 19.29C15.4302 19.67 16.0702 19.68 16.4502 19.29ZM23.5202 20.7C23.1302 21.09 23.1302 21.73 23.5202 22.11C23.9102 22.5 24.5502 22.5 24.9302 22.11C25.3102 21.72 25.3202 21.08 24.9302 20.7C24.5402 20.31 23.9002 20.31 23.5202 20.7ZM20.6902 17.87C20.3002 18.26 20.3002 18.9 20.6902 19.28C21.0802 19.66 21.7202 19.67 22.1002 19.28C22.4802 18.89 22.4902 18.25 22.1002 17.87C21.7102 17.48 21.0702 17.48 20.6902 17.87ZM19.2802 16.46C19.6702 16.07 19.6702 15.43 19.2802 15.05C18.8902 14.66 18.2502 14.66 17.8702 15.05C17.4802 15.44 17.4802 16.08 17.8702 16.46C18.2602 16.84 18.9002 16.85 19.2802 16.46Z" fill="#193A56"/>
</svg>
