<svg width="40" height="40" viewBox="0 0 40 40" fill="none" xmlns="http://www.w3.org/2000/svg">
<path d="M11.92 23.01C13.28 23.01 14.42 22.13 14.84 20.91H25.68C25.68 20.91 25.76 20.89 25.8 20.89C26.21 22.12 27.36 23.01 28.72 23.01C30.43 23.01 31.82 21.62 31.82 19.91C31.82 18.81 31.25 17.86 30.39 17.3C30.71 17.27 30.94 17.28 30.95 17.28C31.54 17.31 31.97 16.89 32 16.34C32.03 15.79 31.61 15.32 31.06 15.28C30.95 15.28 28.55 15.15 26.97 16.63C26.33 17.24 25.92 18.01 25.75 18.92C25.72 18.92 25.7 18.9 25.66 18.9H17.69L14.23 13.68L15.75 6.52002H16.75C17.3 6.52002 17.75 6.07002 17.75 5.52002C17.75 4.97002 17.3 4.52002 16.75 4.52002H12.92C12.37 4.52002 11.92 4.97002 11.92 5.52002C11.92 6.07002 12.37 6.52002 12.92 6.52002H13.71L11.52 16.84C9.99997 17.03 8.80997 18.32 8.80997 19.9C8.80997 21.61 10.2 23 11.91 23L11.92 23.01ZM27.68 19.91C27.68 19.76 27.7 19.62 27.71 19.48C27.88 19.09 28.27 18.81 28.72 18.81C29.33 18.81 29.82 19.3 29.82 19.91C29.82 20.52 29.33 21.01 28.72 21.01C28.16 21.01 27.72 20.59 27.65 20.05C27.65 20 27.68 19.96 27.68 19.91ZM13.67 16.43L15.31 18.91H14.84C14.6 18.21 14.12 17.63 13.49 17.26L13.66 16.44L13.67 16.43ZM11.92 18.81C12.53 18.81 13.02 19.3 13.02 19.91C13.02 20.52 12.53 21.01 11.92 21.01C11.31 21.01 10.82 20.52 10.82 19.91C10.82 19.3 11.31 18.81 11.92 18.81ZM34.6 27.16C34.2 26.47 33.56 25.98 32.79 25.78C32.02 25.57 31.22 25.68 30.57 26.06L26.45 28.19C26.26 27.08 25.45 26.12 24.31 25.82C22.61 25.32 16.97 23.7 15.92 23.7C14.87 23.7 12.3 25.42 10.37 26.87L6.39997 29.83C5.99997 30.13 5.87997 30.67 6.11997 31.11L9.61997 37.51C9.74997 37.74 9.95997 37.92 10.22 37.99C10.31 38.02 10.41 38.03 10.5 38.03C10.67 38.03 10.83 37.99 10.98 37.91L15.08 35.65C16.69 35.97 22.36 37 24.68 36.31C24.69 36.31 24.7 36.31 24.71 36.31C24.72 36.31 24.73 36.31 24.74 36.31C24.75 36.31 24.76 36.29 24.78 36.29C24.83 36.27 24.89 36.25 24.94 36.22L33.5 31.25C34.92 30.43 35.41 28.6 34.58 27.18L34.6 27.16ZM32.51 29.5L24.07 34.4C22.46 34.84 17.76 34.16 15.13 33.61C14.9 33.56 14.65 33.6 14.44 33.71L10.9 35.66L8.29997 30.9L11.57 28.45C13.25 27.19 15.42 25.77 15.91 25.68C16.52 25.7 20.37 26.74 23.77 27.73C24.29 27.87 24.6 28.41 24.47 28.93C24.33 29.45 23.79 29.77 23.2 29.61L18.09 28.65C17.55 28.55 17.02 28.91 16.92 29.45C16.82 29.99 17.17 30.52 17.72 30.62L22.76 31.56C23.9 31.86 25.06 31.45 25.78 30.61C25.95 30.61 26.12 30.6 26.29 30.52L31.55 27.8C31.78 27.67 32.04 27.63 32.29 27.7C32.54 27.77 32.75 27.93 32.89 28.15C33.16 28.62 33 29.22 32.53 29.49L32.51 29.5Z" fill="#193A56"/>
<path d="M26.37 6.1C26.37 6.72 25.87 7.22 25.25 7.22C24.63 7.22 24.13 6.72 24.13 6.1C24.13 5.48 24.63 4.98 25.25 4.98C25.87 4.98 26.37 5.48 26.37 6.1ZM29.49 6.23C29.49 7.79 27.81 10.43 26.4 12.36C26.13 12.73 25.7 12.95 25.24 12.95C24.78 12.95 24.35 12.73 24.08 12.36C22.67 10.42 20.99 7.79 20.99 6.23C20.99 3.9 22.89 2 25.23 2C27.57 2 29.47 3.9 29.47 6.23H29.49ZM27.49 6.23C27.49 5 26.48 4 25.25 4C24.02 4 23.01 5 23.01 6.23C23.01 6.79 23.71 8.32 25.25 10.54C26.8 8.32 27.49 6.79 27.49 6.23Z" fill="#193A56"/>
</svg>
