<svg width="40" height="40" viewBox="0 0 40 40" fill="none" xmlns="http://www.w3.org/2000/svg">
<path d="M34.2322 31.58C34.1522 30.82 33.4822 29.32 31.5622 29.12C29.9322 28.95 27.2822 29.49 25.9522 29.8C25.3222 28.1 22.7022 27.56 21.1922 27.25C20.8122 27.17 20.4522 27.1 20.2822 27.04C19.9422 26.92 19.5622 26.7 19.1622 26.47C18.4422 26.06 17.6322 25.6 16.7722 25.55C15.9322 25.49 14.2822 25.78 13.2722 25.97C13.1122 25.43 12.6822 24.98 12.0722 24.82L5.99219 23.57L6.07219 34.52H10.7422C11.3422 34.52 11.8822 34.18 12.1822 33.65C14.3022 34.6 19.7622 36.95 22.1822 36.95C22.2422 36.95 22.3022 36.95 22.3622 36.95C24.3122 36.84 32.8522 32.8 33.8222 32.33L34.3022 32.1L34.2422 31.57L34.2322 31.58ZM10.8922 32.9C10.8722 32.97 10.8122 33.03 10.7322 33.03H7.57219L7.52219 25.42L11.7322 26.29C11.8122 26.31 11.8622 26.4 11.8422 26.51L10.9022 32.91L10.8922 32.9ZM22.2622 35.46C20.4322 35.56 15.0122 33.3 12.5122 32.17L13.2022 27.52C14.2022 27.32 15.9522 27 16.6722 27.05C17.1822 27.08 17.8122 27.44 18.4222 27.78C18.8622 28.03 19.3222 28.29 19.7822 28.46C20.0422 28.55 20.4222 28.63 20.8922 28.73C22.2122 29 24.6822 29.5 24.6022 30.7C24.2422 31.21 20.9422 30.86 17.2222 29.65L16.7622 31.08C17.9222 31.46 21.1022 32.42 23.4122 32.42C24.2422 32.42 24.9522 32.3 25.4222 31.98C25.6622 31.82 25.8322 31.61 25.9522 31.36C27.2722 31.03 29.9622 30.47 31.4222 30.62C32.0722 30.69 32.4122 31 32.5822 31.28C28.9822 32.98 23.4622 35.4 22.2822 35.47L22.2622 35.46ZM12.1822 14.13V23.11H28.2022V14.13L29.7022 15.63L30.7622 14.57L20.1922 4L9.62219 14.57L10.6822 15.63L12.1822 14.13ZM21.8622 21.61H18.5322V14.87H21.8622V21.61ZM13.6822 12.63L20.1922 6.12L26.7022 12.63V21.61H22.8622V13.87H17.5322V21.61H13.6922V12.63H13.6822Z" fill="#193A56"/>
</svg>

