<svg width="40" height="40" viewBox="0 0 40 40" fill="none" xmlns="http://www.w3.org/2000/svg">
<path d="M19.57 28.6H14.79L9.75 21L11.97 10.53H13.68C14.23 10.53 14.68 10.08 14.68 9.53003C14.68 8.98003 14.23 8.53003 13.68 8.53003H8.34C7.79 8.53003 7.34 8.98003 7.34 9.53003C7.34 10.08 7.79 10.53 8.34 10.53H9.93L6.72 25.69C4.65 25.8 3 27.5 3 29.6C3 31.7 4.76 33.53 6.93 33.53C8.75 33.53 10.27 32.28 10.71 30.6H19.57C20.12 30.6 20.57 30.15 20.57 29.6C20.57 29.05 20.12 28.6 19.57 28.6ZM12.39 28.6H10.71C10.42 27.5 9.67 26.6 8.67 26.1L9.17 23.74L12.39 28.6ZM6.93 31.53C5.87 31.53 5 30.66 5 29.6C5 28.77 5.53 28.06 6.27 27.79L5.95 29.3C5.84 29.84 6.18 30.37 6.72 30.49C6.79 30.51 6.86 30.51 6.93 30.51C7.39 30.51 7.81 30.19 7.91 29.72L8.23 28.19C8.61 28.54 8.85 29.04 8.85 29.6C8.85 30.66 7.98 31.53 6.92 31.53H6.93Z" fill="#193A56"/>
<path d="M35.93 29.93C35.89 29.85 35.83 29.78 35.76 29.71L34.72 28.67L34.52 28.47L35.76 27.23C35.82 27.17 35.88 27.09 35.92 27.02C37.06 25.53 36.92 23.44 35.58 22.1C34.24 20.76 32.16 20.63 30.66 21.76C30.58 21.8 30.51 21.86 30.44 21.93L29.2 23.17L29.05 23.02L27.96 21.93C27.9 21.87 27.82 21.81 27.75 21.77C26.25 20.63 24.17 20.77 22.83 22.11C21.49 23.45 21.36 25.53 22.49 27.03C22.53 27.11 22.59 27.18 22.66 27.25L23.75 28.34L23.9 28.49L22.66 29.73C22.6 29.79 22.54 29.87 22.5 29.94C21.36 31.43 21.5 33.52 22.84 34.86C23.57 35.59 24.53 35.97 25.49 35.97C26.28 35.97 27.08 35.72 27.75 35.21C27.83 35.17 27.9 35.11 27.97 35.04L29.21 33.8L29.41 34L30.45 35.04C30.51 35.1 30.59 35.16 30.66 35.2C31.34 35.71 32.13 35.97 32.93 35.97C33.89 35.97 34.85 35.6 35.58 34.86C36.92 33.52 37.05 31.44 35.92 29.94L35.93 29.93ZM31.76 23.44C31.76 23.44 31.8 23.41 31.81 23.4C32.51 22.82 33.53 22.86 34.17 23.51C34.82 24.16 34.86 25.17 34.28 25.87C34.27 25.89 34.25 25.91 34.24 25.92L33.11 27.05L30.63 24.57L31.76 23.44ZM24.25 23.51C24.9 22.86 25.91 22.82 26.61 23.4C26.63 23.41 26.65 23.43 26.66 23.44L26.93 23.71L24.45 26.19L24.18 25.92C24.18 25.92 24.15 25.88 24.14 25.87C23.56 25.17 23.6 24.15 24.25 23.51ZM26.67 33.5C26.67 33.5 26.63 33.53 26.62 33.54C25.92 34.13 24.9 34.08 24.26 33.43C23.62 32.78 23.57 31.77 24.15 31.07C24.16 31.05 24.18 31.03 24.19 31.02L25.32 29.89L27.8 32.37L26.67 33.5ZM30.13 31.87L29.93 31.67L26.03 27.77L25.88 27.62L28.36 25.14L28.51 25.29L32.41 29.19L32.61 29.39L30.13 31.87ZM34.18 33.44C33.53 34.09 32.52 34.13 31.82 33.55C31.8 33.54 31.78 33.52 31.77 33.51L31.55 33.29L34.03 30.81L34.25 31.03C34.25 31.03 34.28 31.07 34.29 31.08C34.87 31.78 34.83 32.8 34.18 33.44ZM25.54 19.5C26.05 19.5 26.53 19.25 26.83 18.84C28.76 16.19 31.06 12.59 31.06 10.51C31.06 7.47 28.58 5 25.53 5C22.48 5 20 7.47 20 10.51C20 12.58 22.3 16.18 24.23 18.84C24.53 19.25 25.02 19.5 25.52 19.5H25.54ZM25.54 7.01C27.49 7.01 29.07 8.58 29.07 10.52C29.07 11.6 27.7 14.2 25.54 17.22C23.39 14.19 22.01 11.59 22.01 10.52C22.01 8.59 23.59 7.01 25.54 7.01ZM25.54 12.39C24.4 12.39 23.47 11.47 23.47 10.33C23.47 9.19 24.4 8.27 25.54 8.27C26.68 8.27 27.61 9.19 27.61 10.33C27.61 11.47 26.68 12.39 25.54 12.39Z" fill="#193A56"/>
</svg>
