<svg width="40" height="40" viewBox="0 0 40 40" fill="none" xmlns="http://www.w3.org/2000/svg">
<path d="M30.61 16.5C30.31 16.21 29.92 16.05 29.51 16.05H29.5L23.78 16.09V9.96002C23.78 9.10002 23.08 8.40002 22.22 8.40002H17.68C16.82 8.40002 16.12 9.10002 16.12 9.96002V16.08L10.33 16.1C9.47002 16.1 8.77002 16.8 8.77002 17.66V22.19C8.77002 23.05 9.47002 23.76 10.34 23.76H16.12V29.88C16.12 30.74 16.82 31.45 17.68 31.45H22.22C23.08 31.45 23.78 30.75 23.78 29.88V23.7H29.51C30.37 23.7 31.08 23 31.08 22.14V17.62C31.08 17.2 30.92 16.81 30.62 16.51L30.61 16.5ZM29.07 21.7H23.34C22.48 21.7 21.77 22.4 21.77 23.27V29.45H18.1V23.33C18.1 22.47 17.4 21.77 16.53 21.77H10.75V18.1L16.54 18.08C17.4 18.08 18.1 17.38 18.1 16.52V10.4H21.77V16.54C21.77 16.96 21.93 17.35 22.23 17.65C22.52 17.94 22.92 18.1 23.33 18.1H23.34L29.06 18.06V21.71L29.07 21.7Z" fill="#193a56"/>
<path d="M19.92 2C10.04 2 2 10.04 2 19.92C2 29.8 10.04 37.84 19.92 37.84C29.8 37.84 37.84 29.8 37.84 19.92C37.84 10.04 29.8 2 19.92 2ZM19.92 35.84C11.14 35.84 4 28.7 4 19.92C4 11.14 11.14 4 19.92 4C28.7 4 35.84 11.14 35.84 19.92C35.84 28.7 28.7 35.84 19.92 35.84Z" fill="#193a56"/>
</svg>
