<svg width="40" height="40" viewBox="0 0 40 40" fill="none" xmlns="http://www.w3.org/2000/svg">
<path d="M22.3101 15.0102H17.2801V20.4702L12.0601 20.4902V25.5102H17.2801V30.9702H22.3101V25.4602H27.4901V20.4402L22.3101 20.4802V15.0102ZM26.4901 21.4502V24.4702H21.3101V29.9802H18.2801V24.5202H13.0601V21.4902L18.2801 21.4702V16.0102H21.3101V21.4902L26.4901 21.4502ZM31.2601 19.2902C31.1201 19.1102 28.9901 16.3302 28.3201 13.9502C28.2701 13.7702 28.2001 13.6102 28.1101 13.4502V10.2102C28.1101 8.48023 27.0801 7.13023 25.7701 7.13023H24.5801L22.6801 4.99023L21.5601 5.99023L22.5701 7.13023H16.9701L17.9801 5.99023L16.8601 4.99023L14.9601 7.13023H13.7701C12.4601 7.13023 11.4301 8.48023 11.4301 10.2102V13.4502C11.3401 13.6102 11.2701 13.7702 11.2201 13.9502C10.5301 16.4002 8.29006 19.2702 8.29006 19.2702C8.13006 19.4602 4.38006 23.9602 6.81006 29.2102C9.22006 34.4202 15.5101 35.0802 15.8501 35.1102H23.7501C24.0201 35.0802 30.3101 34.4202 32.7201 29.2102C35.1101 24.0502 31.5301 19.6202 31.2501 19.2802L31.2601 19.2902ZM12.9501 10.2202C12.9501 9.33023 13.4001 8.64023 13.7901 8.64023H25.7701C26.1601 8.64023 26.6101 9.33023 26.6101 10.2202V12.1502C24.2601 10.9202 20.3601 10.8702 19.7801 10.8702C19.2001 10.8702 15.3101 10.9202 12.9501 12.1502V10.2202ZM31.3701 28.5902C29.3201 33.0102 23.6801 33.6202 23.6901 33.6202H15.9301C15.8701 33.6202 10.2301 33.0102 8.18006 28.5902C6.16006 24.2202 9.31006 20.4102 9.46006 20.2302C9.56006 20.1002 11.9001 17.1002 12.6701 14.3702C13.0201 13.1302 16.6301 12.3602 19.7701 12.3602C22.9101 12.3602 26.5201 13.1302 26.8701 14.3702C27.6401 17.1002 29.9801 20.1102 30.0801 20.2302L30.1001 20.2502C30.2401 20.4102 33.3901 24.2202 31.3601 28.5902H31.3701Z" fill="#193A56"/>
</svg>
