<svg width="40" height="40" viewBox="0 0 40 40" fill="none" xmlns="http://www.w3.org/2000/svg">
<path d="M14.95 18.77C14.93 18.71 14.93 18.64 14.9 18.58C14.74 18.24 14.4 18 14 18H4.00001C3.60001 18 3.26001 18.24 3.10001 18.58C3.07001 18.64 3.06001 18.71 3.05001 18.77C3.03001 18.84 3.01001 18.9 3.01001 18.97C3.01001 18.98 3.01001 18.99 3.01001 19C3.01001 22.31 5.70001 25 9.01001 25C12.32 25 15.01 22.31 15.01 19C15.01 18.99 15.01 18.98 15.01 18.97C15.01 18.9 14.99 18.84 14.97 18.77H14.95ZM9.00001 23C7.14001 23 5.57001 21.72 5.13001 20H12.88C12.44 21.72 10.87 23 9.01001 23H9.00001ZM20 5C18.14 5 16.59 6.28 16.14 8C16.06 8.32 16 8.65 16 9C16 9.35 16.06 9.68 16.14 10C16.5 11.4 17.6 12.49 19 12.86C19.32 12.94 19.65 13 20 13C20.35 13 20.68 12.94 21 12.86C22.4 12.5 23.49 11.4 23.86 10C23.94 9.68 24 9.35 24 9C24 8.65 23.94 8.32 23.86 8C23.41 6.28 21.86 5 20 5ZM20 11C18.94 11 18.09 10.18 18.01 9.14C18.01 9.09 18 9.05 18 9C18 8.95 18.01 8.91 18.01 8.86C18.08 7.82 18.94 7 20 7C21.06 7 22 7.9 22 9C22 10.1 21.1 11 20 11ZM37.04 18.97C37.04 18.9 37.02 18.84 37 18.77C36.98 18.71 36.98 18.64 36.95 18.58C36.79 18.24 36.45 18 36.05 18H26.05C25.65 18 25.31 18.24 25.15 18.58C25.12 18.64 25.11 18.71 25.1 18.77C25.08 18.84 25.06 18.9 25.06 18.97C25.06 18.98 25.06 18.99 25.06 19C25.06 22.31 27.75 25 31.06 25C34.37 25 37.06 22.31 37.06 19C37.06 18.99 37.06 18.98 37.06 18.97H37.04ZM31.05 23C29.19 23 27.62 21.72 27.18 20H34.93C34.49 21.72 32.92 23 31.06 23H31.05Z" fill="#193A56"/>
<path d="M27.4401 30H25.8801C25.3901 27.99 23.4401 26.42 21.0001 26.08V12.86C20.6801 12.94 20.3501 13 20.0001 13C19.6501 13 19.3201 12.94 19.0001 12.86V26.08C16.5601 26.42 14.6101 27.99 14.1201 30H12.8201C12.2701 30 11.8201 30.45 11.8201 31V34C11.8201 34.55 12.2701 35 12.8201 35H27.4401C27.9901 35 28.4401 34.55 28.4401 34V31C28.4401 30.45 27.9901 30 27.4401 30ZM20.0001 28C21.7401 28 23.2001 28.84 23.7501 30H16.2401C16.7901 28.84 18.2601 28 19.9901 28H20.0001ZM26.4401 33H13.8201V32H26.4401V33ZM12.3801 18L9.0001 11.24L5.6201 18H4.0001C3.6001 18 3.2601 18.24 3.1001 18.58C3.1001 18.58 3.1001 18.56 3.1001 18.55L8.1101 8.54999C8.1101 8.54999 8.1201 8.52999 8.1301 8.51999C8.1901 8.41999 8.2601 8.31999 8.3401 8.24999C8.3601 8.22999 8.3801 8.21999 8.4001 8.20999C8.4801 8.14999 8.5601 8.09999 8.6501 8.06999C8.6701 8.06999 8.7001 8.04999 8.7201 8.03999C8.8101 8.00999 8.9101 7.98999 9.0101 7.98999H16.1501C16.0701 8.30999 16.0101 8.63999 16.0101 8.98999C16.0101 9.33999 16.0701 9.66999 16.1501 9.98999H10.6201L14.9001 18.54C14.9001 18.54 14.9001 18.56 14.9001 18.57C14.7401 18.23 14.4001 17.99 14.0001 17.99H12.3801V18ZM36.9401 18.58C36.7801 18.24 36.4401 18 36.0401 18H34.4201L31.0401 11.24L27.6601 18H26.0401C25.6401 18 25.3001 18.24 25.1401 18.58C25.1401 18.58 25.1401 18.56 25.1401 18.55L29.4201 9.99999H23.8501C23.9301 9.67999 23.9901 9.34999 23.9901 8.99999C23.9901 8.64999 23.9301 8.31999 23.8501 7.99999H31.0301C31.1301 7.99999 31.2301 8.01999 31.3201 8.04999C31.3401 8.04999 31.3701 8.06999 31.3901 8.07999C31.4801 8.10999 31.5601 8.15999 31.6401 8.21999C31.6601 8.22999 31.6801 8.24999 31.7001 8.25999C31.7801 8.32999 31.8501 8.42999 31.9101 8.52999C31.9101 8.52999 31.9201 8.54999 31.9301 8.55999L36.9301 18.56C36.9301 18.56 36.9301 18.58 36.9301 18.59L36.9401 18.58Z" fill="#193A56"/>
</svg>
