<svg width="40" height="40" viewBox="0 0 40 40" fill="none" xmlns="http://www.w3.org/2000/svg">
<path fill-rule="evenodd" clip-rule="evenodd" d="M28.8952 9.60691C26.5692 7.28091 23.4772 5.99991 20.1882 5.99991C16.8992 5.99991 13.8062 7.28091 11.4812 9.60691C11.0902 9.99791 11.0902 10.6299 11.4812 11.0209C11.8722 11.4119 12.5042 11.4119 12.8952 11.0209C14.8432 9.07291 17.4332 7.99991 20.1882 7.99991C22.9432 7.99991 25.5332 9.07291 27.4812 11.0209C27.6762 11.2159 27.9322 11.3139 28.1882 11.3139C28.4442 11.3139 28.7002 11.2159 28.8952 11.0209C29.2862 10.6299 29.2862 9.99791 28.8952 9.60691ZM25.8332 12.6679C26.2242 13.0589 26.2242 13.6909 25.8332 14.0819C25.6382 14.2769 25.3822 14.3749 25.1262 14.3749C24.8712 14.3749 24.6152 14.2769 24.4192 14.0819C23.2902 12.9519 21.7872 12.3299 20.1882 12.3299C18.5882 12.3299 17.0852 12.9519 15.9562 14.0819C15.5652 14.4729 14.9322 14.4729 14.5412 14.0819C14.1512 13.6909 14.1512 13.0589 14.5412 12.6679C16.0492 11.1599 18.0542 10.3299 20.1882 10.3299C22.3212 10.3299 24.3262 11.1599 25.8332 12.6679Z" fill="#193A56"/>
<path fill-rule="evenodd" clip-rule="evenodd" d="M33.1687 29.605C32.9137 29.627 32.5207 29.646 31.9097 29.644C31.4857 28.266 30.2167 27.255 28.7017 27.255C27.1927 27.255 25.9277 28.258 25.4977 29.628H16.8787C16.4487 28.258 15.1837 27.255 13.6737 27.255C12.1647 27.255 10.8987 28.258 10.4707 29.628H7.28766L7.00966 25.36L9.10666 24.604C9.12066 24.599 9.13066 24.589 9.14466 24.584L28.0737 24.915H28.0807C28.1057 24.919 28.1287 24.933 28.1537 24.937L33.3657 25.755L33.1687 29.605ZM28.7017 32C27.9447 32 27.3297 31.384 27.3297 30.628C27.3297 29.871 27.9447 29.255 28.7017 29.255C29.4587 29.255 30.0737 29.871 30.0737 30.628C30.0737 31.384 29.4587 32 28.7017 32ZM13.6737 32C12.9167 32 12.3017 31.384 12.3017 30.628C12.3017 29.871 12.9167 29.255 13.6737 29.255C14.4307 29.255 15.0467 29.871 15.0467 30.628C15.0467 31.384 14.4307 32 13.6737 32ZM12.8257 20H15.7367V22.698L10.9317 22.614L12.8257 20ZM17.7367 20H21.8577L25.2807 22.865L17.7367 22.733V20ZM33.8607 23.809L28.5217 22.97L23.0847 18.419C22.7627 18.149 22.3547 18 21.9337 18H12.7197C12.1467 18 11.6037 18.277 11.2697 18.74L8.36566 22.745L6.18566 23.531C5.43966 23.8 4.95266 24.541 5.00366 25.334L5.30466 29.953C5.36566 30.892 6.15166 31.628 7.09266 31.628H10.4707C10.8987 32.997 12.1647 34 13.6737 34C15.1837 34 16.4487 32.997 16.8787 31.628H25.4977C25.9277 32.997 27.1927 34 28.7017 34C30.2047 34 31.4657 33.005 31.8997 31.645C32.0077 31.646 32.1207 31.65 32.2267 31.65C33.7867 31.65 35.0687 31.48 35.1337 30.359L35.3717 25.681C35.4257 24.756 34.7747 23.952 33.8607 23.809Z" fill="#193A56"/>
</svg>
