<svg width="24" height="24" viewBox="0 0 24 24" fill="none" xmlns="http://www.w3.org/2000/svg">
<path d="M18.3811 4.74H14.6611C14.5231 3.762 13.6891 3 12.6751 3H11.3971C10.3831 3 9.54913 3.756 9.41113 4.74H5.69713C4.87513 4.74 4.20312 5.412 4.20312 6.234V6.468C4.20312 7.188 4.71913 7.794 5.39713 7.932L6.56113 20.706H17.5171L18.6811 7.932C19.3591 7.794 19.8751 7.188 19.8751 6.468V6.234C19.8751 5.412 19.2031 4.74 18.3811 4.74ZM11.4031 3.9H12.6811C13.2031 3.9 13.6351 4.254 13.7611 4.74H10.3291C10.4551 4.26 10.8871 3.9 11.4091 3.9H11.4031ZM16.7011 19.8H7.38313L6.30313 7.956H17.7751L16.7011 19.8ZM18.9811 6.462C18.9811 6.786 18.7171 7.056 18.3871 7.056H5.69713C5.37313 7.056 5.10313 6.792 5.10313 6.462V6.228C5.10313 5.904 5.36713 5.634 5.69713 5.634H18.3811C18.7051 5.634 18.9751 5.898 18.9751 6.228V6.462H18.9811ZM12.3391 17.622H11.7391V10.422H12.3391V17.622ZM8.99113 17.646L8.41513 10.446L9.01513 10.398L9.59113 17.598L8.99113 17.646ZM15.0931 17.646L14.4931 17.598L15.0751 10.398L15.6751 10.446L15.0931 17.646Z" fill="white"/>
</svg>
