<svg width="32" height="32" viewBox="0 0 32 32" fill="none" xmlns="http://www.w3.org/2000/svg">
<path d="M23.616 12.2477L24.008 11.8957C25.104 10.9277 28.68 7.60774 28.768 5.58374C28.792 5.13574 28.648 4.74374 28.376 4.44774C28.112 4.16774 27.752 4.01574 27.328 3.99974C25.64 3.95174 22.776 6.31974 20.672 8.31974C20.424 8.55174 19.944 9.03174 19.296 9.67974L11.72 5.54374L7.91201 7.89574L15.056 14.0317C13.336 15.8077 10.624 18.6317 8.63201 20.7917L6.13601 19.6797L3.20801 21.3677L6.03201 23.8477C5.50401 24.6157 5.33601 25.1357 5.46401 25.5437C5.50401 25.6797 5.58401 25.7997 5.68001 25.8877C5.76801 25.9917 5.91201 26.1117 6.13601 26.1757C6.56801 26.2957 7.09601 26.1517 7.77601 25.7277L9.96801 28.5757L11.84 25.7597L10.904 23.2317C13.576 21.0077 15.968 18.9837 18.032 17.2077L23.448 24.4637L26.04 20.8077L22.552 13.2317C23.024 12.8077 23.376 12.4877 23.624 12.2557L23.616 12.2477ZM24.648 20.6797L23.408 22.4237L18.208 15.4557L17.72 15.8797C15.472 17.8237 12.808 20.0797 9.79201 22.5837L9.46401 22.8557L10.488 25.6077L9.88801 26.5197L8.01601 24.0877L7.54401 24.4397C7.20001 24.6957 6.94401 24.8397 6.77601 24.9197C6.87201 24.7357 7.04001 24.4797 7.31201 24.1277L7.65601 23.6797L5.25601 21.5757L6.20001 21.0317L8.92801 22.2477L9.21601 21.9277C11.392 19.5517 14.624 16.1997 16.352 14.4157L16.8 13.9597L9.93601 8.05574L11.76 6.93574L19.528 11.1757L19.848 10.8557C20.64 10.0557 21.232 9.46374 21.512 9.19974C24.104 6.73574 26.312 5.20774 27.28 5.20774C27.288 5.20774 27.296 5.20774 27.304 5.20774C27.448 5.20774 27.496 5.25574 27.512 5.27174C27.536 5.29574 27.592 5.35974 27.584 5.53574C27.528 6.68774 25.288 9.17574 23.224 10.9997L22.824 11.3677C22.52 11.6477 22.064 12.0637 21.424 12.6317L21.096 12.9277L24.664 20.6797H24.648Z" fill="white"/>
</svg>
