<svg width="40" height="40" viewBox="0 0 40 40" fill="none" xmlns="http://www.w3.org/2000/svg">
<path d="M30 24.7998H38.5" stroke="#193A56" stroke-width="1.5" stroke-linecap="round"/>
<path d="M34 30.7998H38.5" stroke="#193A56" stroke-width="1.5" stroke-linecap="round"/>
<path d="M15.2 19.3L8.82792 11.6915C8.75745 11.6074 8.85437 11.4876 8.95138 11.539L16.8243 15.707C16.8969 15.7454 16.9824 15.6847 16.9699 15.6035L15.5885 6.57817C15.5715 6.46699 15.7226 6.41672 15.7756 6.51593L20.1095 14.6305C20.1476 14.7019 20.2503 14.7007 20.2869 14.6286L23.7827 7.7288C23.8318 7.63206 23.9781 7.67161 23.9718 7.77987L23.5097 15.6355C23.5053 15.7104 23.5819 15.7633 23.6504 15.7327L29.6808 13.0325C29.783 12.9867 29.8716 13.1178 29.7912 13.1956L24 18.8" stroke="#193A56" stroke-width="1.5" stroke-linecap="round"/>
<path d="M2 19.2998H6.2759C6.74377 19.2998 7.19684 19.4638 7.55627 19.7634L12.9782 24.2816C12.9925 24.2935 13.0097 24.3012 13.0281 24.3038L18.4576 25.0795C19.2998 25.1998 19.8735 25.9957 19.7213 26.8327L19.2239 29.5681C19.0943 30.2814 18.4731 30.7998 17.7481 30.7998H16" stroke="#193A56" stroke-width="1.5" stroke-linecap="round"/>
<path d="M2 24.7998H8" stroke="#193A56" stroke-width="1.5" stroke-linecap="round"/>
<circle cx="13.4502" cy="30.8496" r="2.5" stroke="#193A56" stroke-width="1.5"/>
<circle cx="31.25" cy="30.8496" r="2.5" stroke="#193A56" stroke-width="1.5"/>
<path d="M2 30.7998H11" stroke="#193A56" stroke-width="1.5" stroke-linecap="round"/>
<path d="M38.5 19.2998H30.6768C29.9505 19.2998 29.2812 19.6936 28.9285 20.3285L27.0189 23.7658C27.0067 23.7877 26.9868 23.8042 26.9631 23.8121L23.7342 24.8884C23.026 25.1245 22.5992 25.8453 22.7327 26.5798L23.2761 29.5681C23.4057 30.2814 24.0269 30.7998 24.7519 30.7998H28.5" stroke="#193A56" stroke-width="1.5" stroke-linecap="round"/>
</svg>
