<svg width="40" height="40" viewBox="0 0 40 40" fill="none" xmlns="http://www.w3.org/2000/svg">
<path d="M29.5198 15.3099L30.0098 14.8699C31.3798 13.6599 35.8498 9.50992 35.9598 6.97992C35.9898 6.41992 35.8098 5.92992 35.4698 5.55992C35.1398 5.20992 34.6898 5.01992 34.1598 4.99992C32.0498 4.93992 28.4698 7.89992 25.8398 10.3999C25.5298 10.6899 24.9298 11.2899 24.1198 12.0999L14.6498 6.92992L9.88977 9.86992L18.8198 17.5399C16.6698 19.7599 13.2798 23.2899 10.7898 25.9899L7.66977 24.5999L4.00977 26.7099L7.53977 29.8099C6.87977 30.7699 6.66977 31.4199 6.82977 31.9299C6.87977 32.0999 6.97977 32.2499 7.09977 32.3599C7.20977 32.4899 7.38977 32.6399 7.66977 32.7199C8.20977 32.8699 8.86977 32.6899 9.71977 32.1599L12.4598 35.7199L14.7998 32.1999L13.6298 29.0399C16.9698 26.2599 19.9598 23.7299 22.5398 21.5099L29.3098 30.5799L32.5498 26.0099L28.1898 16.5399C28.7798 16.0099 29.2198 15.6099 29.5298 15.3199L29.5198 15.3099ZM30.8098 25.8499L29.2598 28.0299L22.7598 19.3199L22.1498 19.8499C19.3398 22.2799 16.0098 25.0999 12.2398 28.2299L11.8298 28.5699L13.1098 32.0099L12.3598 33.1499L10.0198 30.1099L9.42977 30.5499C8.99977 30.8699 8.67977 31.0499 8.46977 31.1499C8.58977 30.9199 8.79977 30.5999 9.13977 30.1599L9.56977 29.5999L6.56977 26.9699L7.74977 26.2899L11.1598 27.8099L11.5198 27.4099C14.2398 24.4399 18.2798 20.2499 20.4398 18.0199L20.9998 17.4499L12.4198 10.0699L14.6998 8.66992L24.4098 13.9699L24.8098 13.5699C25.7998 12.5699 26.5398 11.8299 26.8898 11.4999C30.1298 8.41992 32.8898 6.50992 34.0998 6.50992C34.1098 6.50992 34.1198 6.50992 34.1298 6.50992C34.3098 6.50992 34.3698 6.56992 34.3898 6.58992C34.4198 6.61992 34.4898 6.69992 34.4798 6.91992C34.4098 8.35992 31.6098 11.4699 29.0298 13.7499L28.5298 14.2099C28.1498 14.5599 27.5798 15.0799 26.7798 15.7899L26.3698 16.1599L30.8298 25.8499H30.8098Z" fill="#193A56"/>
</svg>
