<svg width="20" height="20" viewBox="0 0 20 20" fill="none" xmlns="http://www.w3.org/2000/svg">
<path d="M10.5017 13.456C10.5017 13.732 10.2766 13.9565 10 13.9565C9.72337 13.9565 9.49826 13.732 9.49826 13.456C9.49826 13.1801 9.72337 12.9556 10 12.9556C10.2766 12.9556 10.5017 13.1801 10.5017 13.456ZM10 12.6039C10.2251 12.6039 10.4068 12.4226 10.4068 12.1981V10.0338C10.4068 9.80928 10.2251 9.62802 10 9.62802C9.7749 9.62802 9.59319 9.80928 9.59319 10.0338V12.1981C9.59319 12.4226 9.7749 12.6039 10 12.6039ZM17.9085 16.6618C17.7864 16.8728 17.5667 17 17.3199 17H2.68006C2.43597 17 2.21629 16.8728 2.09153 16.6618C1.96949 16.4508 1.96949 16.1965 2.09153 15.9855L2.43326 15.3957L2.92686 14.5436L9.27587 3.57623L9.41419 3.33816C9.53623 3.12715 9.75591 3 10 3C10.2441 3 10.4638 3.12715 10.5885 3.33816L10.7268 3.57623L17.0731 14.5436L17.5667 15.3957L17.9085 15.9855C18.0305 16.1965 18.0305 16.4508 17.9085 16.6618ZM17.0867 16.1884L16.6338 15.4039L10 3.94686L3.36893 15.4039L2.91601 16.1884H17.0867Z" fill="#F6A623"/>
</svg>
